<svg width="85" height="53" viewBox="0 0 85 53" fill="none" xmlns="http://www.w3.org/2000/svg">
<path d="M0 52.7215V13.4585L25.2809 0V52.7215H0Z" fill="#D5C7AD"/>
<path d="M24.7812 52.2217H0.5V13.7578L24.7812 0.832031V52.2217Z" stroke="#D5C7AD" stroke-opacity="0.5"/>
<path d="M6.9668 29.1055H9.98327V42.8152H6.9668V29.1055Z" fill="#2D2D2D"/>
<path d="M9.4834 29.6055V42.3154H7.4668V29.6055H9.4834Z" stroke="#D5C7AD" stroke-opacity="0.5"/>
<path d="M13.1074 29.1055H15.8725L22.3005 37.5395V29.1055H25.2811V42.8152H22.7314L16.088 34.0941V42.8152H13.1074V29.1055Z" fill="#2D2D2D"/>
<path d="M15.625 29.6055L21.9023 37.8428L22.8008 39.0205V29.6055H24.7812V42.3154H22.9785L16.4854 33.791L15.5879 32.6123V42.3154H13.6074V29.6055H15.625Z" stroke="#D5C7AD" stroke-opacity="0.5"/>
<path d="M27.6875 35.9608C27.6875 32.0489 30.7399 28.8906 34.8696 28.8906C37.3474 28.8906 38.8197 29.5725 40.2562 30.7569L38.3529 33.0538C37.3115 32.1566 36.3419 31.6541 34.7619 31.6541C32.5713 31.6541 30.8117 33.5921 30.8117 35.9608C30.8117 38.4731 32.5354 40.3035 34.9773 40.3035C36.0905 40.3035 37.0601 40.0163 37.8142 39.478V37.5041H34.7619V34.8842H40.723V40.8418C39.3225 42.0261 37.3833 43.031 34.8696 43.031C30.5962 43.031 27.6875 40.0522 27.6875 35.9608Z" fill="#D5C7AD"/>
<path d="M34.8691 29.3906C36.9952 29.3906 38.3113 29.9107 39.543 30.833L38.2842 32.3516C37.8666 32.0283 37.435 31.7571 36.9521 31.5557C36.3126 31.2889 35.6079 31.1543 34.7617 31.1543C32.2539 31.1544 30.3115 33.3592 30.3115 35.9609C30.3116 38.7269 32.2376 40.8037 34.9775 40.8037C36.1761 40.8037 37.2516 40.4936 38.1045 39.8848L38.3145 39.7354V37.0039H35.2617V35.3838H40.2227V40.6045C38.9072 41.6654 37.1361 42.5312 34.8691 42.5312C32.8522 42.5311 31.1882 41.8298 30.0293 40.6758C28.87 39.5213 28.1875 37.8851 28.1875 35.9609C28.1875 32.3256 31.0155 29.3909 34.8691 29.3906Z" stroke="#D5C7AD" stroke-opacity="0.5"/>
<path d="M43.3445 29.1055H49.5929C51.3525 29.1055 52.6812 29.6079 53.579 30.5052C54.3331 31.2588 54.764 32.3355 54.764 33.6634C54.764 35.8886 53.579 37.2524 51.8194 37.8984L55.1591 42.7793H51.6398L48.6593 38.4008H46.3251V42.7793H43.3086V29.1055H43.3445ZM49.4134 35.745C50.8857 35.745 51.7116 34.9554 51.7116 33.7711C51.7116 32.4791 50.8139 31.7972 49.3416 31.7972H46.361V35.745H49.4134Z" fill="#D5C7AD"/>
<path d="M49.5928 29.6055C51.257 29.6055 52.445 30.0784 53.2256 30.8584C53.8719 31.5043 54.2636 32.4469 54.2637 33.6631C54.2637 34.683 53.9937 35.473 53.5488 36.0762C53.1019 36.682 52.4544 37.1324 51.6475 37.4287L51.0439 37.6504L51.4062 38.1807L54.2109 42.2793H51.9043L49.0723 38.1191L48.9238 37.9004H45.8252V42.2793H43.8086V29.6055H49.5928ZM45.8613 36.2451H49.4131C50.2352 36.2451 50.9405 36.0245 51.4463 35.5771C51.9588 35.1238 52.2118 34.4858 52.2119 33.7715C52.2119 33 51.9379 32.3528 51.3945 31.9111C50.8668 31.4823 50.1467 31.2969 49.3418 31.2969H45.8613V36.2451Z" stroke="#D5C7AD" stroke-opacity="0.5"/>
<path d="M61.9088 29H64.674L70.5633 42.7815H67.4031L66.1463 39.695H60.3647L59.1078 42.7815H56.0195L61.9088 29ZM65.069 37.0751L63.2375 32.6248L61.4061 37.0751H65.069Z" fill="#D5C7AD"/>
<path d="M64.3438 29.5L69.8057 42.2812H67.7393L66.6094 39.5068L66.4824 39.1953H60.0283L59.9014 39.5068L58.7715 42.2812H56.7773L62.2383 29.5H64.3438ZM62.7754 32.4346L60.9434 36.8848L60.6592 37.5752H65.8154L65.5312 36.8848L63.7002 32.4346L63.2373 31.3105L62.7754 32.4346Z" stroke="#D5C7AD" stroke-opacity="0.5"/>
<path d="M72.3594 29.1055H77.71C82.0193 29.1055 84.9998 32.0484 84.9998 35.9603C84.9998 39.8005 82.0193 42.8152 77.71 42.8152H72.3594V29.1055ZM77.71 40.0876C80.1878 40.0876 81.8397 38.4367 81.8397 35.9603C81.8397 33.5199 80.1878 31.8331 77.71 31.8331H75.3758V40.0876H77.71Z" fill="#D5C7AD"/>
<path d="M77.71 29.6055C81.7654 29.6055 84.4998 32.3463 84.5 35.96C84.5 39.5054 81.762 42.3154 77.71 42.3154H72.8594V29.6055H77.71ZM74.876 40.5879H77.71C79.0623 40.5879 80.2285 40.1352 81.0576 39.3066C81.8867 38.478 82.3398 37.3119 82.3398 35.96C82.3398 34.6247 81.8856 33.4606 81.0586 32.6289C80.231 31.7967 79.0654 31.333 77.71 31.333H74.876V40.5879Z" stroke="#D5C7AD" stroke-opacity="0.5"/>
</svg>
