<svg width="68" height="71" viewBox="0 0 68 71" fill="none" xmlns="http://www.w3.org/2000/svg">
<path d="M3.24341 63.2143C3.24341 62.8769 3.21192 62.666 3.11745 62.5817C3.02298 62.4974 2.86553 62.4552 2.58213 62.4552H2.42468V61.7383H5.95149V62.4552H5.79405C5.51064 62.4552 5.32171 62.4974 5.25873 62.5817C5.16426 62.666 5.13277 62.8769 5.13277 63.2143V67.1783C5.13277 68.3169 4.91234 69.1604 4.50298 69.7086C4.09362 70.2568 3.71575 70.5942 2.51915 70.5942C0.472341 70.5942 0 69.0338 0 68.2748C0 67.7687 0.314894 66.841 1.16511 66.841C2.01532 66.841 2.29872 67.6844 2.29872 67.9796C2.29872 68.7386 1.66894 68.6543 1.66894 69.076C1.70043 69.4134 1.82638 69.6664 2.3617 69.6664C3.2749 69.6664 3.2749 68.3169 3.2749 67.6V63.2143H3.24341Z" fill="#D5C7AD"/>
<path d="M4.89648 62.2383C4.74601 62.39 4.69284 62.5831 4.66895 62.7109C4.64074 62.862 4.63282 63.0359 4.63281 63.2139V67.1787C4.63276 68.2666 4.4197 68.9843 4.10254 69.4092C3.91098 69.6657 3.76896 69.8133 3.57617 69.9131C3.41681 69.9956 3.18702 70.0622 2.81055 70.085C2.98212 70.0196 3.1313 69.9176 3.25488 69.7852C3.4614 69.5637 3.57574 69.2849 3.64355 69.0312C3.7777 68.5295 3.77441 67.9442 3.77441 67.5996V62.7139H3.70703V62.7109C3.68313 62.5831 3.63003 62.39 3.47949 62.2383H4.89648ZM1.16504 67.3408C1.39649 67.3408 1.53982 67.4457 1.64355 67.5908C1.69869 67.668 1.74017 67.754 1.7666 67.834C1.77963 67.8734 1.78788 67.9088 1.79297 67.9365C1.79799 67.964 1.79879 67.9783 1.79883 67.9795C1.79883 68.0964 1.77511 68.1475 1.76367 68.168C1.75007 68.1921 1.72821 68.2186 1.6709 68.2646C1.64119 68.2885 1.4926 68.3944 1.40137 68.4922C1.274 68.6287 1.16895 68.82 1.16895 69.0762V69.0996L1.1709 69.1221C1.18983 69.3249 1.24427 69.6154 1.46777 69.8457C1.49106 69.8697 1.51603 69.8912 1.54102 69.9121C1.24402 69.7843 1.0351 69.6052 0.887695 69.4141C0.59575 69.0354 0.5 68.5699 0.5 68.2744C0.50008 68.1042 0.558076 67.8403 0.6875 67.6338C0.807219 67.4428 0.956243 67.3408 1.16504 67.3408Z" stroke="#D5C7AD" stroke-opacity="0.5"/>
<path d="M12.2811 63.8477V68.9925C12.2811 69.2455 12.3125 69.4142 12.3755 69.4986C12.4385 69.5829 12.5645 69.6251 12.7849 69.6251H13.0683V70.2576H10.6121V69.4564C10.3287 70.342 9.41552 70.4263 9.03765 70.4263C8.21892 70.4263 6.95935 70.1311 6.95935 68.0647V65.1128C6.95935 64.8598 6.92786 64.6911 6.86488 64.6067C6.8019 64.5224 6.67594 64.4802 6.45552 64.4802H6.14062V63.8477H8.78573V68.0647C8.78573 68.4443 8.84871 68.7395 8.97467 68.9082C9.10063 69.119 9.28956 69.2034 9.50999 69.2034C9.79339 69.2034 9.98233 69.0768 10.1398 68.8238C10.2972 68.5708 10.3602 68.2334 10.3602 67.7695V65.1128C10.3602 64.8598 10.3287 64.6911 10.2657 64.6067C10.2028 64.5224 9.85637 64.4802 9.63595 64.4802H9.54148V63.8477H12.2811V63.8477Z" fill="#D5C7AD"/>
<path d="M8.28613 64.3477V68.0645C8.28613 68.4501 8.34334 68.8629 8.5459 69.1641V69.165C8.54938 69.1709 8.55407 69.1759 8.55762 69.1816C8.56343 69.1899 8.56817 69.1989 8.57422 69.207V69.2061C8.80425 69.5581 9.15394 69.7031 9.50977 69.7031C9.66229 69.7031 9.80969 69.6762 9.9502 69.6221C9.86802 69.7073 9.77084 69.7686 9.66504 69.8135C9.44339 69.9073 9.19787 69.9267 9.03809 69.9268C8.67504 69.9268 8.29068 69.8579 8.00293 69.6289C7.73702 69.4172 7.45898 68.9916 7.45898 68.0645V65.1123C7.45897 64.9683 7.45006 64.83 7.42676 64.7051C7.40696 64.599 7.3693 64.468 7.29102 64.3477H8.28613ZM11.7812 64.3477V68.9922C11.7812 69.1364 11.7901 69.2753 11.8135 69.4004C11.8333 69.5066 11.8717 69.6373 11.9502 69.7578H11.1123V69.4561L10.3701 69.3398C10.4448 69.2614 10.5095 69.1763 10.5645 69.0879C10.7957 68.7163 10.8604 68.2658 10.8604 67.7695V65.1123C10.8603 64.9683 10.8514 64.83 10.8281 64.7051C10.8083 64.599 10.7698 64.4681 10.6914 64.3477H11.7812Z" stroke="#D5C7AD" stroke-opacity="0.5"/>
<path d="M16.1544 61.8242V68.9933C16.1544 69.2885 16.1859 69.4572 16.2489 69.5415C16.3118 69.6258 16.4378 69.668 16.6267 69.668H16.9101V70.3006H13.5723V69.668H13.8557C14.0446 69.668 14.2021 69.6258 14.265 69.5415C14.328 69.4572 14.3595 69.2885 14.3595 69.0354V63.3002C14.3595 62.9628 14.328 62.7098 14.265 62.6255C14.2021 62.5411 14.0761 62.499 13.8872 62.499H13.5723V61.8664H16.1544V61.8242Z" fill="#D5C7AD"/>
<path d="M15.6543 62.3662V68.9932C15.6543 69.1548 15.6628 69.3029 15.6855 69.4326C15.7052 69.5444 15.7434 69.6781 15.8232 69.8008H14.6904C14.7689 69.6803 14.8073 69.5495 14.8271 69.4434C14.8505 69.3182 14.8594 69.1794 14.8594 69.0352V63.2998C14.8594 63.1185 14.8509 62.9468 14.8311 62.8008C14.8212 62.7279 14.8079 62.6519 14.7871 62.5801C14.7712 62.525 14.7428 62.4455 14.6924 62.3662H15.6543Z" stroke="#D5C7AD" stroke-opacity="0.5"/>
<path d="M18.1064 62.0324C18.1064 61.7794 18.2323 61.5264 18.4528 61.3577C18.6732 61.189 18.9566 61.0625 19.2715 61.0625C19.5864 61.0625 19.8698 61.1468 20.0902 61.3577C20.3106 61.5264 20.4366 61.7794 20.4366 62.0324C20.4366 62.2855 20.3106 62.5385 20.0902 62.7072C19.8698 62.8759 19.5864 63.0024 19.2715 63.0024C18.9566 63.0024 18.6732 62.918 18.4528 62.7072C18.2323 62.5385 18.1064 62.2855 18.1064 62.0324ZM18.5472 65.2796V65.1952C18.5472 64.8579 18.5157 64.647 18.4528 64.5627C18.3898 64.4783 18.2638 64.4362 18.0749 64.4362H17.7285V63.8036H20.2792V68.9485C20.2792 69.2015 20.3106 69.3702 20.3736 69.4545C20.4366 69.5388 20.5626 69.581 20.7515 69.581H21.1609V70.2136H17.7285V69.581H18.0434C18.2323 69.581 18.3898 69.5388 18.4528 69.4545C18.5157 69.3702 18.5472 69.2015 18.5472 68.9485V65.2796V65.2796Z" fill="#D5C7AD"/>
<path d="M19.7793 64.3037V68.9482C19.7793 69.0925 19.7882 69.2313 19.8115 69.3564C19.8313 69.4626 19.8697 69.5933 19.9482 69.7139H18.8789C18.9573 69.5934 18.9948 69.4625 19.0146 69.3564C19.038 69.2313 19.0469 69.0925 19.0469 68.9482V65.1953C19.0469 65.0144 19.0394 64.8497 19.0186 64.71C19.0022 64.6007 18.9672 64.4427 18.8779 64.3037H19.7793ZM19.2715 61.5625C19.4954 61.5625 19.6411 61.6204 19.7441 61.7188L19.7646 61.7383L19.7861 61.7549C19.8901 61.8344 19.9365 61.9438 19.9365 62.0322C19.9365 62.1207 19.8902 62.2309 19.7861 62.3105C19.6301 62.4299 19.4506 62.502 19.2715 62.502C19.0474 62.502 18.9019 62.4442 18.7988 62.3457L18.7783 62.3271L18.7568 62.3105L18.6895 62.2451C18.6327 62.1766 18.6064 62.0985 18.6064 62.0322C18.6065 61.9438 18.6529 61.8344 18.7568 61.7549C18.913 61.6354 19.0922 61.5625 19.2715 61.5625Z" stroke="#D5C7AD" stroke-opacity="0.5"/>
<path d="M27.6795 63.8477V68.9925C27.6795 69.2455 27.711 69.4142 27.774 69.4986C27.8369 69.5829 27.9629 69.6251 28.1833 69.6251H28.4667V70.2576H26.0106V69.4564C25.7271 70.342 24.814 70.4263 24.4361 70.4263C23.6174 70.4263 22.3578 70.1311 22.3578 68.0647V65.1128C22.3578 64.8598 22.3263 64.6911 22.2633 64.6067C22.2003 64.5224 22.0744 64.4802 21.854 64.4802H21.5391V63.8477H24.1842V68.0647C24.1842 68.4443 24.2471 68.7395 24.3731 68.9082C24.4991 69.119 24.688 69.2034 24.9084 69.2034C25.1918 69.2034 25.3808 69.0768 25.5382 68.8238C25.6957 68.5708 25.7586 68.2334 25.7586 67.7695V65.1128C25.7586 64.8598 25.7271 64.6911 25.6642 64.6067C25.6012 64.5224 25.2548 64.4802 25.0344 64.4802H24.9399V63.8477H27.6795V63.8477Z" fill="#D5C7AD"/>
<path d="M23.6846 64.3477V68.0645C23.6846 68.4501 23.7418 68.8629 23.9443 69.1641V69.165C23.9478 69.1709 23.9525 69.1759 23.9561 69.1816C23.9619 69.1899 23.9666 69.1989 23.9727 69.207V69.2061C24.2027 69.5581 24.5524 69.7031 24.9082 69.7031C25.0607 69.7031 25.2081 69.6762 25.3486 69.6221C25.2665 69.7073 25.1693 69.7686 25.0635 69.8135C24.8418 69.9073 24.5963 69.9267 24.4365 69.9268C24.0735 69.9268 23.6891 69.8579 23.4014 69.6289C23.1355 69.4172 22.8574 68.9916 22.8574 68.0645V65.1123C22.8574 64.9683 22.8485 64.83 22.8252 64.7051C22.8054 64.599 22.7677 64.468 22.6895 64.3477H23.6846ZM27.1797 64.3477V68.9922C27.1797 69.1364 27.1886 69.2753 27.2119 69.4004C27.2317 69.5066 27.2701 69.6373 27.3486 69.7578H26.5107V69.4561L25.7686 69.3398C25.8433 69.2614 25.9079 69.1763 25.9629 69.0879C26.1941 68.7163 26.2588 68.2658 26.2588 67.7695V65.1123C26.2588 64.9683 26.2499 64.83 26.2266 64.7051C26.2068 64.599 26.1682 64.4681 26.0898 64.3477H27.1797Z" stroke="#D5C7AD" stroke-opacity="0.5"/>
<path d="M29.3162 70.174V68.3607H29.6941C29.7256 68.6559 29.8515 69.0776 29.883 69.1197C29.946 69.1619 30.0405 69.3306 30.8592 69.2884C31.6779 69.2884 31.8668 69.0354 31.8668 68.5715C31.8668 67.5594 30.2294 67.6859 29.6626 67.1377C29.0958 66.5895 29.1273 65.9991 29.1273 65.7039C29.1273 64.1436 30.3554 63.6797 31.363 63.6797C31.6779 63.6797 33.0634 63.7219 33.3468 63.8905V65.5774H32.9375C32.9375 65.3244 32.843 64.9448 32.78 64.9448C32.6541 64.8605 32.0558 64.734 31.5205 64.734C30.9851 64.734 30.7962 65.1978 30.7962 65.4087C30.8277 65.9991 31.0166 66.0834 31.8354 66.3364C32.6226 66.5895 33.5673 66.8425 33.5673 68.2341C33.5673 68.8667 33.032 70.3005 31.6149 70.3005C30.1979 70.3005 29.3162 70.174 29.3162 70.174Z" fill="#D5C7AD"/>
<path d="M31.3633 64.1797C31.5089 64.1797 31.9211 64.1901 32.3291 64.2207C32.5177 64.2349 32.6979 64.2533 32.8467 64.2754V64.4297C32.8087 64.4163 32.7738 64.4041 32.7441 64.3955C32.642 64.366 32.5217 64.3387 32.3936 64.3154C32.1379 64.269 31.8237 64.2344 31.5205 64.2344C31.0876 64.2344 30.7676 64.43 30.5674 64.6797C30.3843 64.908 30.296 65.186 30.2959 65.4082V65.4219L30.2969 65.4355C30.3151 65.7764 30.385 66.1232 30.7021 66.3848C30.8376 66.4964 30.9953 66.5723 31.1484 66.6328C31.3022 66.6936 31.4854 66.751 31.6875 66.8135C32.11 66.9492 32.4379 67.0506 32.6836 67.248C32.8872 67.4117 33.0674 67.6729 33.0674 68.2344C33.0673 68.444 32.9673 68.8597 32.7148 69.2148C32.4759 69.551 32.1274 69.8007 31.6152 69.8008C31.3516 69.8008 31.1068 69.7943 30.8838 69.7871V69.7861C31.3073 69.7838 31.7007 69.7229 31.9854 69.4922C32.3094 69.2293 32.3672 68.8594 32.3672 68.5713C32.3671 68.1576 32.1889 67.842 31.9277 67.6182C31.6895 67.4142 31.3906 67.2928 31.1387 67.207C31.0084 67.1627 30.8743 67.1234 30.7529 67.0869C30.6279 67.0494 30.5152 67.015 30.4102 66.9785C30.1881 66.9013 30.0684 66.835 30.0098 66.7783C29.607 66.3886 29.6269 65.998 29.627 65.7041C29.627 65.0758 29.8642 64.7246 30.1592 64.5127C30.4794 64.2827 30.9239 64.1797 31.3633 64.1797ZM29.9375 69.7129C29.9785 69.7258 30.0231 69.7341 30.0703 69.7441C30.0371 69.7417 30.0046 69.7417 29.9736 69.7393C29.9174 69.7348 29.8651 69.728 29.8164 69.7236V69.6631C29.8543 69.6805 29.8945 69.6993 29.9375 69.7129Z" stroke="#D5C7AD" stroke-opacity="0.5"/>
<path d="M39.4878 68.866C39.4878 69.2033 39.5193 69.372 39.6138 69.4563C39.6767 69.5407 39.8657 69.5829 40.1491 69.5829H40.338V70.2154H38.0078V69.5829H38.1967C38.4802 69.5829 38.6691 69.5407 38.7321 69.4563C38.795 69.372 38.858 69.1611 38.858 68.866V63.1307C38.858 62.7933 38.8265 62.6247 38.7321 62.5403C38.6691 62.456 38.4802 62.4138 38.1967 62.4138H38.0078V61.7812H40.6529L42.3219 66.5044L44.0538 61.7812H46.6044V62.4138H46.384C46.1006 62.4138 45.9116 62.456 45.8487 62.5403C45.7542 62.6247 45.7227 62.8355 45.7227 63.1307V68.866C45.7227 69.2033 45.7542 69.372 45.8487 69.4563C45.9431 69.5407 46.1006 69.5829 46.384 69.5829H46.6044V70.2154H43.1091V69.5829H43.3295C43.6129 69.5829 43.7704 69.5407 43.8648 69.4563C43.9278 69.372 43.9908 69.1611 43.9908 68.866V64.0585L41.7865 70.2154H41.6291L39.4878 64.2272V68.866V68.866Z" fill="#D5C7AD"/>
<path d="M45.415 62.2812C45.3197 62.4135 45.2795 62.5595 45.2598 62.6602C45.2309 62.807 45.2227 62.971 45.2227 63.1309V68.8662C45.2227 69.0425 45.2303 69.2107 45.2607 69.3574C45.284 69.4697 45.3263 69.599 45.4121 69.7158H44.291C44.3649 69.6026 44.411 69.4709 44.4385 69.3545C44.4718 69.213 44.4912 69.0479 44.4912 68.8662V64.0586L43.7949 63.9375L44.4033 62.2812H45.415ZM39.1777 69.7158H39.1582C39.1617 69.7104 39.1646 69.7047 39.168 69.6992C39.1716 69.7044 39.1739 69.7106 39.1777 69.7158ZM40.2998 62.2812L41.8506 66.6709L42.1846 67.6172L41.707 68.9502L39.959 64.0586L39.3584 64.1631V63.1309C39.3584 62.9544 39.3508 62.7855 39.3203 62.6387C39.297 62.5264 39.2537 62.398 39.168 62.2812H40.2998Z" stroke="#D5C7AD" stroke-opacity="0.5"/>
<path d="M51.7993 68.149H52.2402C52.2402 68.9502 52.2717 69.4985 52.1457 69.9624C51.4844 70.2575 50.4768 70.4684 49.784 70.4684C48.9653 70.4684 48.3355 70.1732 47.8317 69.5406C47.3278 68.9081 47.1074 68.1068 47.1074 67.0947C47.1074 66.0405 47.3593 65.197 47.8317 64.5645C48.304 63.9319 48.9338 63.6367 49.7525 63.6367C50.6027 63.6367 51.2325 63.9319 51.7049 64.5223C52.1772 65.1127 52.3347 65.9561 52.3347 67.0526V67.3056H48.8393V67.4321C48.8393 68.0225 48.9338 68.4442 49.0913 68.7394C49.2487 69.0346 49.4691 69.372 50.3508 69.372C50.6657 69.372 51.327 69.2876 51.5159 69.0768C51.7364 68.9081 51.7679 68.5285 51.7993 68.149ZM48.8708 66.2091H50.7287V66.167C50.7287 65.7031 50.6657 65.3657 50.5083 65.1549C50.3823 64.944 50.0989 64.8175 49.8155 64.8175C49.5636 64.8175 49.2172 64.944 49.0913 65.197C48.9338 65.4079 48.8708 65.7453 48.8708 66.2091Z" fill="#D5C7AD"/>
<path d="M49.7529 64.1367C50.4655 64.1368 50.9457 64.3741 51.3145 64.835C51.6469 65.2507 51.8067 65.8734 51.8301 66.8057H48.3389V67.4316C48.3389 68.0686 48.4405 68.5811 48.6504 68.9746C48.7379 69.1386 48.8811 69.3919 49.1758 69.585C49.4681 69.7763 49.8492 69.872 50.3506 69.8721C50.5205 69.8721 50.7586 69.851 50.9932 69.8086C50.5676 69.907 50.128 69.9687 49.7842 69.9688C49.1127 69.9688 48.6285 69.7389 48.2227 69.2295C47.8109 68.7126 47.6074 68.0341 47.6074 67.0947C47.6074 66.1193 47.84 65.3888 48.2324 64.8633C48.6026 64.3676 49.0787 64.1367 49.7529 64.1367ZM51.707 69.6006C51.6369 69.6264 51.5634 69.65 51.4883 69.6738C51.5559 69.6465 51.6349 69.6076 51.7139 69.5557C51.712 69.5709 51.7091 69.5858 51.707 69.6006ZM49.8154 64.3174C49.6144 64.3174 49.3918 64.3657 49.1924 64.46C49.0052 64.5484 48.7963 64.6996 48.665 64.9365C48.4265 65.2831 48.3711 65.7476 48.3711 66.209V66.709H51.2285V66.167C51.2285 65.7072 51.1729 65.2447 50.9365 64.8984H50.9375C50.934 64.8926 50.9294 64.8876 50.9258 64.8818C50.9198 64.8734 50.9154 64.8638 50.9092 64.8555L50.9072 64.8564C50.657 64.4811 50.201 64.3174 49.8154 64.3174Z" stroke="#D5C7AD" stroke-opacity="0.5"/>
<path d="M53.5634 62.0324C53.5634 61.7794 53.6894 61.5264 53.9098 61.3577C54.1302 61.189 54.4136 61.0625 54.7285 61.0625C55.0434 61.0625 55.3268 61.1468 55.5473 61.3577C55.7677 61.5264 55.8936 61.7794 55.8936 62.0324C55.8936 62.2855 55.7677 62.5385 55.5473 62.7072C55.3268 62.8759 55.0434 63.0024 54.7285 63.0024C54.4136 63.0024 54.1302 62.918 53.9098 62.7072C53.6579 62.5385 53.5634 62.2855 53.5634 62.0324ZM53.9728 65.2796V65.1952C53.9728 64.8579 53.9413 64.647 53.8783 64.5627C53.8153 64.4783 53.6894 64.4362 53.5004 64.4362H53.1855V63.8036H55.7362V68.9485C55.7362 69.2015 55.7677 69.3702 55.8307 69.4545C55.8936 69.5388 56.0196 69.581 56.2085 69.581H56.6179V70.2136H53.1855V69.581H53.5004C53.6894 69.581 53.8468 69.5388 53.9098 69.4545C53.9728 69.3702 54.0043 69.2015 54.0043 68.9485V65.2796H53.9728Z" fill="#D5C7AD"/>
<path d="M55.2363 64.3037V68.9482C55.2363 69.0925 55.2452 69.2313 55.2686 69.3564C55.2884 69.4626 55.3267 69.5933 55.4053 69.7139H54.3359C54.4143 69.5934 54.4519 69.4625 54.4717 69.3564C54.495 69.2313 54.5039 69.0925 54.5039 68.9482V64.7793H54.4502C54.4475 64.7558 54.4467 64.7323 54.4434 64.71C54.427 64.6007 54.3929 64.4426 54.3037 64.3037H55.2363ZM54.7285 61.5625C54.9525 61.5625 55.0981 61.6204 55.2012 61.7188L55.2217 61.7383L55.2432 61.7549C55.3471 61.8344 55.3935 61.9438 55.3936 62.0322C55.3936 62.1207 55.3472 62.2309 55.2432 62.3105C55.0871 62.4299 54.9077 62.502 54.7285 62.502C54.5044 62.502 54.3589 62.4442 54.2559 62.3457L54.2236 62.3154L54.1885 62.292L54.1279 62.2402C54.1127 62.2226 54.1021 62.2042 54.0938 62.1865C54.0757 62.1484 54.0635 62.0972 54.0635 62.0322C54.0635 61.9438 54.1099 61.8344 54.2139 61.7549C54.37 61.6354 54.5493 61.5625 54.7285 61.5625Z" stroke="#D5C7AD" stroke-opacity="0.5"/>
<path d="M57.1211 70.2583V69.6258H57.4045C57.5934 69.6258 57.7509 69.5836 57.8139 69.4993C57.8768 69.4149 57.9083 69.2462 57.9083 68.9932V65.1135C57.9083 64.8605 57.8768 64.6918 57.8139 64.6074C57.7509 64.5231 57.6249 64.4809 57.4045 64.4809H57.1211V63.8484H59.5773V64.6496C59.8607 63.764 60.7739 63.6797 61.1517 63.6797C61.9705 63.6797 63.23 63.9749 63.23 66.0413V68.9932C63.23 69.2462 63.2615 69.4149 63.3245 69.4993C63.3875 69.5836 63.5134 69.6258 63.7339 69.6258H64.0488V70.2583H61.4036V66.0413C61.4036 65.6617 61.3407 65.3665 61.2147 65.1978C61.0888 64.987 60.8998 64.9026 60.6794 64.9026C60.396 64.9026 60.2071 65.0292 60.0496 65.2822C59.8922 65.5352 59.8292 65.8726 59.8292 66.3364V68.9932C59.8292 69.2462 59.8607 69.4149 59.9236 69.4993C59.9866 69.5836 60.333 69.6258 60.5534 69.6258H60.6479V70.2583H57.1211V70.2583Z" fill="#D5C7AD"/>
<path d="M61.1514 64.1797C61.5144 64.1797 61.8988 64.2476 62.1865 64.4766C62.4524 64.6882 62.7304 65.1139 62.7305 66.041V68.9932C62.7305 69.1374 62.7384 69.2762 62.7617 69.4014C62.7815 69.5075 62.82 69.6383 62.8984 69.7588H61.9033V66.041C61.9033 65.6371 61.8422 65.2023 61.6152 64.8984H61.6143C61.3842 64.5475 61.035 64.4024 60.6797 64.4023C60.5275 64.4023 60.3795 64.4275 60.2393 64.4814C60.3212 64.3969 60.4192 64.3376 60.5244 64.293C60.7461 64.1991 60.9916 64.1797 61.1514 64.1797ZM59.0771 64.3486V64.6494L59.8193 64.7646C59.7444 64.8432 59.6802 64.929 59.625 65.0176C59.3937 65.3892 59.3291 65.8405 59.3291 66.3369V68.9932C59.3291 69.1374 59.338 69.2762 59.3613 69.4014C59.3812 69.5075 59.4195 69.6383 59.498 69.7588H58.2393C58.3178 69.6383 58.3561 69.5076 58.376 69.4014C58.3993 69.2762 58.4082 69.1374 58.4082 68.9932V65.1133C58.4082 64.9691 58.3993 64.8302 58.376 64.7051C58.3562 64.5991 58.3175 64.4689 58.2393 64.3486H59.0771Z" stroke="#D5C7AD" stroke-opacity="0.5"/>
<path d="M67.0724 61.8242V68.9933C67.0724 69.2885 67.1039 69.4572 67.1668 69.5415C67.2298 69.6258 67.3558 69.668 67.5447 69.668H67.8281V70.3006H64.4902V69.668H64.7736C64.9626 69.668 65.12 69.6258 65.183 69.5415C65.246 69.4572 65.2775 69.2885 65.2775 69.0354V63.3002C65.2775 62.9628 65.246 62.7098 65.183 62.6255C65.12 62.5411 64.9941 62.499 64.8051 62.499H64.4902V61.8664H67.0724V61.8242Z" fill="#D5C7AD"/>
<path d="M66.5723 62.3662V68.9932C66.5723 69.1548 66.5808 69.3029 66.6035 69.4326C66.6231 69.5444 66.6614 69.6781 66.7412 69.8008H65.6084C65.6869 69.6803 65.7253 69.5495 65.7451 69.4434C65.7685 69.3182 65.7773 69.1794 65.7773 69.0352V63.2998C65.7773 63.1185 65.7688 62.9468 65.749 62.8008C65.7391 62.7279 65.7258 62.6519 65.7051 62.5801C65.6891 62.525 65.6608 62.4455 65.6104 62.3662H66.5723Z" stroke="#D5C7AD" stroke-opacity="0.5"/>
<path fill-rule="evenodd" clip-rule="evenodd" d="M51.5481 7.80161C51.6426 5.86175 51.5166 4.17492 50.8239 2.95196C50.1626 1.72901 48.3677 1.22296 47.3285 2.36157C46.7932 1.89769 46.069 2.40374 45.8171 2.95196C44.8409 1.77118 43.6758 0.843418 42.4792 0C41.3771 2.3194 39.8656 4.51228 38.2911 6.40997C36.8111 8.13898 35.1422 9.6993 33.3788 11.4705C30.6392 14.1694 27.7422 17.7961 25.4749 21.2963C25.1285 21.8445 24.6247 22.8988 24.4673 22.8988C24.4358 22.8988 24.1524 22.4771 24.1209 22.4349C22.8928 21.465 22.1056 24.0374 23.1132 25.0917C22.7353 25.2604 22.5779 25.6821 22.6094 26.1459C22.6409 26.7363 23.0502 26.7785 23.1762 27.2002C22.8298 28.381 22.7668 29.3509 22.8298 30.2365C22.9873 32.5559 24.4987 34.0741 24.9711 35.7609C25.4434 37.5321 24.3098 38.0803 23.9005 39.3876C24.1839 40.0623 24.8451 40.231 25.4119 40.5262C25.4119 40.9479 25.223 41.201 25.1915 41.5805C25.6639 41.6227 25.7898 41.6227 26.2622 41.7913C26.1677 42.1709 26.0732 42.5083 26.1992 42.93H27.3328C28.0256 43.436 27.8996 44.7433 28.6239 45.1228C29.6315 45.6711 30.5132 44.659 31.4579 44.3638C32.0247 45.0385 32.3081 46.0506 32.3081 47.2314C32.3081 50.5629 30.2928 53.3883 29.2536 55.5391C29.8519 56.256 30.7336 56.4668 31.7413 56.509C36.2128 56.5512 37.7558 50.9846 40.4324 48.117C41.3141 47.147 42.2902 46.5567 43.4239 45.9241C41.7549 45.2072 39.6766 43.9842 38.4485 42.2974C37.6613 41.2431 37 39.5985 37.3779 37.7008C38.2596 38.1647 39.2673 37.7008 39.1728 36.267C40.2119 36.4356 40.4639 34.538 39.8026 33.8632C39.6136 33.6524 39.1728 33.9054 39.0783 33.7789C39.2043 28.2967 40.7788 24.1639 42.4162 20.5372C43.8647 17.3744 45.6911 14.2959 47.612 11.9344C47.8639 11.6392 48.1788 11.1331 48.5251 11.0909C47.3285 15.0128 45.7856 19.4408 46.3209 25.0073C47.3915 25.2604 48.6511 25.2182 49.8792 25.2182C49.6273 23.4048 49.4698 21.718 49.5328 19.989C49.6902 15.7297 51.3592 11.7235 51.5481 7.80161ZM49.3439 8.34983C48.6826 7.21122 48.1158 5.90392 47.36 4.93399C47.7379 4.55446 48.0213 4.09058 47.9268 3.12065C50.1941 2.06637 50.0681 6.53649 49.3439 8.34983Z" fill="#D5C7AD"/>
<path d="M25.9121 40.2227L25.6426 40.083C25.4878 40.0024 25.3242 39.9287 25.1875 39.8652C25.0436 39.7984 24.919 39.7379 24.8076 39.6709C24.651 39.5766 24.5324 39.4762 24.4453 39.3477C24.5242 39.1492 24.6236 38.9639 24.7363 38.7744C24.873 38.5447 25.0645 38.2551 25.209 37.9814C25.5326 37.3685 25.7281 36.6592 25.4541 35.6318L25.4521 35.626C25.1975 34.7168 24.6572 33.8362 24.2266 33.0059C23.7802 32.1452 23.4009 31.2592 23.3291 30.2031L23.3281 30.2012L23.3125 29.8857C23.2885 29.1403 23.3687 28.321 23.6562 27.3408L23.6973 27.1992L23.6553 27.0566C23.5517 26.7105 23.3073 26.4906 23.2305 26.4043C23.1555 26.3201 23.1162 26.2648 23.1084 26.1191V26.1123L23.1055 25.9863C23.115 25.7142 23.2255 25.5889 23.3174 25.5479L23.9648 25.2588L23.4746 24.7461C23.3152 24.5793 23.208 24.3304 23.1689 24.0312C23.1301 23.7328 23.1651 23.4203 23.252 23.167C23.3436 22.9 23.4647 22.7729 23.5361 22.7354C23.553 22.7265 23.6094 22.6895 23.7627 22.7959C23.7658 22.8003 23.7691 22.8048 23.7725 22.8096C23.8041 22.8553 23.8454 22.9146 23.8867 22.9727C23.927 23.0293 23.9719 23.091 24.0107 23.1406C24.0292 23.1641 24.0535 23.1943 24.0791 23.2217C24.0908 23.2342 24.1138 23.258 24.1436 23.2822C24.1582 23.2941 24.1859 23.3153 24.2236 23.3359C24.2512 23.351 24.341 23.3983 24.4668 23.3984C24.6104 23.3984 24.7167 23.3417 24.7676 23.3096C24.8239 23.274 24.868 23.2339 24.8975 23.2041C24.9567 23.1441 25.0095 23.0729 25.0527 23.0107C25.1415 22.8832 25.2401 22.7175 25.335 22.5508C25.5354 22.1984 25.7298 21.8298 25.8945 21.5684C28.1447 18.0946 31.0193 14.4972 33.7295 11.8271L33.7334 11.8232C35.4797 10.0692 37.1747 8.4833 38.6709 6.73535L38.6758 6.72949C40.1481 4.95496 41.5708 2.91661 42.666 0.75C43.6732 1.48876 44.6231 2.29251 45.4316 3.27051L45.9395 3.88379L46.2715 3.16113C46.3529 2.98401 46.5179 2.80935 46.6865 2.72656C46.8357 2.65342 46.9232 2.67191 47.001 2.73926L47.3691 3.05859L47.4131 3.00879L47.4297 3.16895C47.4715 3.59783 47.4261 3.87724 47.3525 4.07422C47.2797 4.26909 47.1651 4.42113 47.0059 4.58105L46.6943 4.89355L46.9658 5.24121C47.3169 5.69181 47.6311 6.23099 47.9473 6.81641C48.2557 7.38759 48.576 8.02354 48.9111 8.60059L49.4277 9.48926L49.8086 8.53516C50.2039 7.54529 50.4251 5.88742 50.2529 4.59375C50.1683 3.95821 49.9758 3.3051 49.5625 2.88672C49.3436 2.66523 49.0631 2.51114 48.7266 2.47168C48.4064 2.43414 48.0748 2.50382 47.7422 2.6543C48.1216 2.27014 48.6215 2.15828 49.1162 2.26074C49.6413 2.36956 50.1272 2.71515 50.3838 3.18945L50.3887 3.19824C50.9286 4.15132 51.1006 5.46466 51.0723 7.07129L51.0488 7.77734C50.9569 9.68553 50.5043 11.6221 50.041 13.6582C49.6102 15.5519 49.1723 17.5246 49.0527 19.5625L49.0332 19.9707C48.9754 21.5568 49.0989 23.1018 49.3076 24.7188C48.4018 24.722 47.5479 24.7198 46.7861 24.5898C46.3629 19.3129 47.8276 15.0894 49.0029 11.2373L49.2275 10.502L48.4648 10.5947C48.0938 10.6399 47.8193 10.9094 47.6631 11.0811C47.5732 11.1798 47.49 11.2845 47.4189 11.375L47.2236 11.6191C45.2703 14.0208 43.4235 17.1377 41.9619 20.3291L41.9609 20.3311C40.3123 23.9825 38.7063 28.1875 38.5781 33.7676L38.5742 33.9395L38.6777 34.0781C38.7755 34.2091 38.9052 34.2684 39.0029 34.2939C39.0939 34.3176 39.1764 34.3178 39.2275 34.3154C39.3177 34.3113 39.4381 34.2898 39.4766 34.2842C39.4846 34.283 39.4921 34.2822 39.499 34.2812C39.5552 34.3643 39.6075 34.4849 39.6387 34.6436C39.6789 34.8478 39.6777 35.0765 39.6357 35.2812C39.5927 35.4912 39.5158 35.6351 39.4434 35.71C39.3878 35.7674 39.3375 35.7872 39.2529 35.7734L38.6328 35.6729L38.6738 36.2998C38.7134 36.9004 38.5199 37.1737 38.3613 37.2812C38.196 37.3932 37.9256 37.4237 37.6104 37.2578L37.0186 36.9463L36.8877 37.6035C36.4765 39.6693 37.196 41.4525 38.0439 42.5908V42.5918C39.1316 44.0857 40.8229 45.2131 42.3398 45.9707C41.5264 46.461 40.769 47.0037 40.0664 47.7754C39.3633 48.5286 38.7441 49.4492 38.1523 50.375C37.5524 51.3136 36.9835 52.2532 36.3564 53.1084C35.1034 54.8175 33.7321 56.0261 31.7471 56.0078C30.9318 55.9722 30.3095 55.8216 29.8604 55.4414C30.0816 55.0068 30.3372 54.5431 30.6094 54.04C30.9452 53.4192 31.3016 52.7475 31.626 52.0352C32.2743 50.6114 32.8086 48.9975 32.8086 47.2314C32.8086 45.9833 32.5103 44.839 31.8408 44.042L31.627 43.7871L31.3086 43.8867C31.0214 43.9765 30.7522 44.1159 30.5166 44.2461C30.266 44.3846 30.0637 44.5063 29.8496 44.6084C29.4905 44.7796 29.2291 44.8312 28.9727 44.7344L28.8633 44.6836L28.8555 44.6797C28.7906 44.6456 28.7242 44.582 28.6523 44.4512C28.5766 44.313 28.516 44.14 28.4414 43.916C28.3723 43.7083 28.2892 43.4495 28.1748 43.2139C28.058 42.9734 27.8909 42.7186 27.6279 42.5264L27.4961 42.4297H26.6436C26.6558 42.2867 26.6934 42.1277 26.7471 41.9121L26.8564 41.4727L26.4307 41.3203C26.1811 41.2312 26.0017 41.1797 25.8135 41.1465L25.8125 41.1455C25.8613 40.982 25.9121 40.7773 25.9121 40.5264V40.2227Z" stroke="#D5C7AD" stroke-opacity="0.5"/>
</svg>
