<svg width="91" height="37" viewBox="0 0 91 37" fill="none" xmlns="http://www.w3.org/2000/svg">
<path d="M3.84994 11.4572H4.8584V13.8007H0V11.4572H1.07252V2.92957H0V0.586055H4.8584V2.92957H3.84994V11.4572ZM9.14292 11.3758L10.5358 11.5422V13.5641C10.3976 13.6567 10.2472 13.7132 10.0929 13.7305C9.90344 13.8118 9.77808 13.8118 9.58864 13.8968C9.39921 13.8968 9.27385 13.9818 9.14571 13.9818H8.77241C8.38875 14.0313 8.00155 13.9733 7.63582 13.8118C7.3137 13.6241 7.04733 13.3006 6.87808 12.8914L4.22881 7.71641V6.52987L6.62458 1.6728C6.78943 1.26539 7.02894 0.919614 7.32102 0.667375C7.61692 0.487789 7.94019 0.401748 8.2654 0.41602C8.90408 0.391684 9.53603 0.594615 10.0957 1.00375L9.9703 3.01089L8.70834 3.18093L6.68587 6.86254L9.14292 11.3758Z" fill="#D5C7AD"/>
<path d="M8.24316 0.916016H8.28418C8.72149 0.899352 9.16338 1.01363 9.57812 1.26074L9.49707 2.57031L8.6416 2.68555L8.3916 2.71875L8.27051 2.94043L6.24805 6.62207L6.11621 6.86133L6.24707 7.10156L8.7041 11.6152L8.82715 11.8418L9.08398 11.8721L10.0361 11.9854V13.2334L9.96387 13.2422L9.89551 13.2715C9.83904 13.2957 9.79336 13.3078 9.71289 13.3291C9.65207 13.3452 9.57489 13.3679 9.4834 13.4023C9.36185 13.4137 9.26417 13.4411 9.20117 13.46C9.15762 13.473 9.14201 13.4776 9.12695 13.4814H8.74023L8.70898 13.4863C8.42784 13.5226 8.14133 13.4824 7.86426 13.3652C7.66221 13.2395 7.47033 13.0157 7.33984 12.7002L7.33203 12.6816L7.32324 12.6631L4.72852 7.59473V6.64551L7.07324 1.89355L7.08105 1.87695L7.08789 1.86035C7.22051 1.53258 7.40627 1.26707 7.61719 1.0752C7.823 0.958553 8.03539 0.906954 8.24316 0.916016ZM4.3584 1.08594V2.42969H3.34961V11.957H4.3584V13.3008H0.5V11.957H1.57227V2.42969H0.5V1.08594H4.3584Z" stroke="#D5C7AD" stroke-opacity="0.5"/>
<path d="M19.6252 8.87141C19.6441 9.55754 19.5579 10.2416 19.3717 10.8823C19.1944 11.469 18.9376 12.0077 18.614 12.4717C18.2493 12.9834 17.7932 13.3648 17.288 13.5806C16.7019 13.8606 16.0834 14.002 15.4605 13.9983C14.8163 13.9944 14.1767 13.8534 13.5662 13.5806C13.0858 13.3958 12.6506 13.0465 12.3042 12.5678C11.9601 12.1239 11.7004 11.5778 11.5465 10.9747C11.3612 10.3055 11.276 9.59489 11.2958 8.8825C11.276 8.19662 11.3613 7.51255 11.5465 6.87166C11.7238 6.28488 11.9806 5.74616 12.3042 5.2822C12.6707 4.77832 13.1266 4.40464 13.6302 4.19546C14.2366 3.90539 14.8773 3.76265 15.5218 3.77407C16.1663 3.77762 16.806 3.91993 17.4161 4.19546C17.889 4.43767 18.3188 4.80776 18.6781 5.2822C19.0017 5.74616 19.2585 6.28488 19.4358 6.87166C19.5675 7.52364 19.6312 8.19648 19.6252 8.87141V8.87141ZM16.9119 8.87141C16.9225 8.4789 16.901 8.08602 16.8478 7.69965C16.8025 7.37628 16.7168 7.06521 16.5943 6.77925C16.4836 6.52081 16.3349 6.29455 16.1569 6.1139C15.946 5.94873 15.7055 5.86162 15.4605 5.86162C15.2155 5.86162 14.975 5.94873 14.7641 6.1139C14.5848 6.29525 14.4351 6.52283 14.3239 6.78294C14.2025 7.06958 14.1169 7.3804 14.0704 7.70335C14.0197 8.06146 13.9991 8.42595 14.0091 8.79009C13.9902 9.53791 14.0977 10.2819 14.3239 10.9673C14.529 11.3364 14.8302 11.5911 15.169 11.682C15.5078 11.7728 15.8599 11.6933 16.1569 11.4589C16.3339 11.309 16.4841 11.1097 16.5971 10.8749C16.7163 10.5964 16.8009 10.2944 16.8478 9.98033C16.9074 9.61633 16.9289 9.2432 16.9119 8.87141V8.87141Z" fill="#D5C7AD"/>
<path d="M15.5127 4.27441H15.5186C16.0867 4.27754 16.6545 4.40166 17.2002 4.64648C17.5905 4.84888 17.9562 5.16125 18.2705 5.57324C18.5555 5.98295 18.7859 6.46268 18.9482 6.99121C19.0702 7.60236 19.1306 8.23346 19.125 8.86719L19.625 8.87109L19.125 8.88477C19.1424 9.51862 19.0637 10.1494 18.8936 10.7373C18.7308 11.276 18.4967 11.7653 18.207 12.1816C17.8879 12.6295 17.5009 12.9463 17.0918 13.1211L17.082 13.125L17.0723 13.1299C16.5516 13.3786 16.0077 13.5012 15.4639 13.498C14.8917 13.4946 14.3202 13.3695 13.7705 13.124L13.7578 13.1191L13.7461 13.1143L13.6055 13.0527C13.2796 12.8959 12.97 12.6351 12.709 12.2744L12.7041 12.2676L12.6992 12.2617L12.5908 12.1133C12.345 11.7561 12.1528 11.3267 12.0312 10.8506L12.0283 10.8408C11.8567 10.221 11.7775 9.5603 11.7959 8.89648V8.86816C11.7776 8.2345 11.8551 7.6038 12.0244 7.01562L12.0254 7.0166C12.1877 6.47945 12.4205 5.99173 12.709 5.57617C13.0292 5.13599 13.4152 4.82629 13.8223 4.65723L13.834 4.65234L13.8457 4.64648C14.385 4.38849 14.9493 4.26446 15.5127 4.27441ZM15.4609 5.36133C15.0937 5.36133 14.7462 5.49273 14.4561 5.71973L14.4307 5.74023L14.4082 5.7627C14.1805 5.99318 13.9974 6.2747 13.8643 6.58594L13.8633 6.58789C13.7244 6.91591 13.6275 7.26847 13.5752 7.63184V7.63281C13.5217 8.01021 13.4997 8.39416 13.5088 8.77734C13.4884 9.58048 13.6038 10.3821 13.8486 11.124L13.8643 11.1689L13.8867 11.21C14.1431 11.6714 14.5435 12.032 15.0391 12.165C15.5438 12.3004 16.0572 12.1748 16.4668 11.8516L16.4736 11.8457L16.4805 11.8408C16.7173 11.6403 16.9082 11.382 17.0479 11.0918L17.0527 11.082L17.0566 11.0713C17.1934 10.7518 17.2899 10.4079 17.3428 10.0537L17.3418 10.0527C17.4041 9.66864 17.4276 9.27613 17.4121 8.88477C17.4234 8.46529 17.3997 8.0453 17.3428 7.63184V7.62988C17.2916 7.26495 17.1944 6.91058 17.0537 6.58203C16.9211 6.27265 16.7388 5.99227 16.5127 5.7627L16.4902 5.74023L16.4648 5.71973C16.1749 5.49285 15.8279 5.36143 15.4609 5.36133Z" stroke="#D5C7AD" stroke-opacity="0.5"/>
<path d="M25.4918 13.8143V11.7221H26.049V5.94465H24.7926V6.53237C24.7926 7.53779 24.7285 8.4582 24.6672 9.3786C24.5558 10.1614 24.3685 10.9218 24.1101 11.6408C23.8328 12.3074 23.4416 12.8783 22.9679 13.3079C22.3641 13.7824 21.7051 14.1209 21.0179 14.3096L20.3242 11.7221C20.6979 11.5479 21.0572 11.3237 21.3967 11.0531C21.6515 10.8398 21.8667 10.5529 22.0263 10.214C22.18 9.82036 22.2871 9.39773 22.3439 8.96091C22.3978 8.31791 22.4164 7.67057 22.3996 7.02399V5.91507H21.3271V3.9375H29.4059V6.02966H28.5701V11.8071H29.4059V13.8993H25.5058L25.4918 13.8143Z" fill="#D5C7AD"/>
<path d="M28.9062 4.4375V5.5293H28.0703V12.3076H28.9062V13.3994H25.9922V12.2217H26.5488V5.44434H24.293V6.53223C24.293 7.51026 24.23 8.40736 24.1689 9.32324C24.0624 10.0643 23.8855 10.7827 23.6426 11.4609C23.3923 12.0581 23.0462 12.5571 22.6406 12.9277C22.2347 13.2442 21.8059 13.4917 21.3633 13.667L20.9111 11.9795C21.1866 11.8246 21.4536 11.6471 21.708 11.4443L21.7178 11.4365C22.0348 11.171 22.2919 10.8229 22.4785 10.4268L22.4863 10.4121L22.4922 10.3955C22.6611 9.96265 22.778 9.50057 22.8398 9.02539L22.8408 9.01367L22.8418 9.00293C22.8972 8.3417 22.9166 7.67552 22.8994 7.01074V5.41504H21.8271V4.4375H28.9062Z" stroke="#D5C7AD" stroke-opacity="0.5"/>
<path d="M38.3009 6.78373H36.5988V5.94465H34.6487V7.5378H35.9107C36.3127 7.5511 36.7132 7.60672 37.1086 7.70413C37.469 7.76845 37.8138 7.94033 38.117 8.20684C38.447 8.45623 38.7167 8.82494 38.8948 9.26997C39.0728 9.715 39.1519 10.218 39.1227 10.7204C39.1264 11.2062 39.0622 11.6888 38.9333 12.1435C38.8225 12.5415 38.6294 12.89 38.3761 13.1489C38.102 13.3943 37.8052 13.5918 37.493 13.7367C37.1032 13.8783 36.6986 13.9345 36.2951 13.903H31.3086V11.8071H32.1917V5.94465H31.3086V3.9375H38.3761V6.78373H38.3009ZM34.6432 9.54494V11.8071H35.5875C35.833 11.8134 36.0747 11.7262 36.284 11.5558C36.374 11.4534 36.4438 11.3236 36.4875 11.1774C36.5312 11.0312 36.5474 10.8731 36.5347 10.7167C36.5426 10.5521 36.517 10.3878 36.4607 10.2408C36.4043 10.0939 36.3192 9.96972 36.2143 9.88131C36.0059 9.7114 35.7652 9.62419 35.5207 9.62996H34.6376L34.6432 9.54494Z" fill="#D5C7AD"/>
<path d="M37.876 4.4375V6.28418H37.0986V5.44434H34.1484V8.03809H35.9111C36.2722 8.05122 36.6328 8.10164 36.9893 8.18945L37.0049 8.19336L37.0205 8.19629C37.282 8.24295 37.5453 8.36947 37.7871 8.58203L37.8008 8.59473L37.8154 8.60547C38.0618 8.79172 38.281 9.08192 38.4307 9.45605C38.58 9.82947 38.6482 10.2587 38.623 10.6914V10.7246C38.6264 11.1642 38.5677 11.5991 38.4521 12.0068L38.4512 12.0098C38.3609 12.3339 38.2078 12.6009 38.0244 12.791C37.796 12.9928 37.5533 13.1527 37.3027 13.2715C36.9842 13.3844 36.6581 13.4296 36.334 13.4043L36.3145 13.4033H31.8086V12.3076H32.6914V5.44434H31.8086V4.4375H37.876ZM34.6377 9.52832L34.1445 9.5127L34.1387 9.59766L34.1035 10.1299H34.1436V12.3076H35.5879V12.3057C35.96 12.3119 36.311 12.1784 36.5996 11.9434L36.6318 11.917L36.6592 11.8857C36.8022 11.7231 36.905 11.5273 36.9668 11.3203C37.0273 11.1179 37.0495 10.9029 37.0342 10.6914C37.0383 10.477 37.0042 10.2609 36.9277 10.0615C36.8456 9.84749 36.7146 9.64941 36.5361 9.49902L36.5303 9.49414L36.418 9.41016C36.1532 9.22764 35.8451 9.12478 35.5205 9.12988H34.6377V9.52832Z" stroke="#D5C7AD" stroke-opacity="0.5"/>
<path d="M45.8118 10.9681H43.5386L43.352 11.8071H43.9816V13.8993H40.2598V11.8071H40.9506L43.3492 3.9375H46.3773L48.7118 11.8071H49.4055V13.8993H45.4329V11.8071H46.0653L45.8118 10.9681ZM44.6752 6.196L44.3604 7.61912L43.9816 9.12725H45.4329L45.0541 7.61912L44.6752 6.196V6.196Z" fill="#D5C7AD"/>
<path d="M46.0049 4.4375L48.2324 11.9492L48.3389 12.3076H48.9053V13.3994H45.9326V12.3076H46.7383L46.5439 11.6621L46.29 10.8232L46.1826 10.4678H43.1377L43.0508 10.8594L42.8643 11.6982L42.7285 12.3076H43.4814V13.3994H40.7598V12.3076H41.3213L41.4287 11.9531L43.7188 4.4375H46.0049ZM44.6748 6.19629L44.1875 6.08789L43.8721 7.51074L43.4971 9.00586L43.3408 9.62695H46.0742L45.918 9.00586L45.5391 7.49707L45.5371 7.49023L45.1582 6.06738L44.6748 6.19629Z" stroke="#D5C7AD" stroke-opacity="0.5"/>
<path d="M57.1076 13.3975C56.6528 13.5877 56.1869 13.7274 55.7147 13.8152C55.2137 13.914 54.7085 13.9708 54.202 13.9852C53.4951 13.9937 52.7917 13.8527 52.1183 13.5675C51.6357 13.3401 51.2024 12.9594 50.8563 12.4586C50.5621 11.9956 50.3473 11.4533 50.2267 10.8692C50.0969 10.2419 50.0332 9.59379 50.0373 8.94333C50.037 8.31871 50.1007 7.69695 50.2267 7.09513C50.3462 6.48478 50.5607 5.91438 50.8563 5.42066C51.2067 4.87272 51.6662 4.46666 52.1823 4.2489C52.8631 3.88445 53.5938 3.7132 54.3274 3.74619C54.7491 3.73223 55.1709 3.76065 55.5894 3.83121C55.9744 3.90267 56.3545 4.01516 56.726 4.16758V7.51652H54.8316V6.11558H54.3218C54.0436 6.1231 53.7673 6.17902 53.5 6.28192C53.304 6.4295 53.1325 6.62816 52.9958 6.86595C52.8484 7.10413 52.7607 7.3975 52.7451 7.70503C52.6921 8.06277 52.6706 8.42746 52.681 8.79178C52.6801 9.24425 52.7223 9.69507 52.8064 10.1336C52.8606 10.4667 53.0029 10.763 53.2075 10.969C53.3972 11.1594 53.6115 11.3022 53.8399 11.3903C54.1311 11.4609 54.4273 11.4881 54.723 11.4717H55.1018C55.2722 11.4849 55.443 11.4573 55.6061 11.3903C55.7955 11.3903 55.9849 11.3053 56.1632 11.3053C56.3415 11.3053 56.5421 11.2203 56.6674 11.2203L57.1076 13.3975Z" fill="#D5C7AD"/>
<path d="M54.3438 4.24609C54.7291 4.23334 55.1151 4.25825 55.498 4.32227V4.32324C55.7426 4.36864 55.9854 4.43282 56.2256 4.51465V7.0166H55.332V5.61523H54.3223L54.3086 5.61621C53.9718 5.6253 53.6391 5.69269 53.3203 5.81543L53.2549 5.84082L53.1992 5.88281C52.9476 6.07228 52.7364 6.31929 52.5713 6.60254H52.5703C52.3823 6.90619 52.2758 7.26519 52.25 7.63184C52.207 7.92189 52.1842 8.21599 52.1797 8.51074L52.1807 8.79102C52.1798 9.26983 52.2242 9.74737 52.3125 10.2129V10.2139C52.3807 10.6325 52.5631 11.0298 52.8525 11.3213H52.8535C53.0878 11.5565 53.3602 11.7407 53.6602 11.8564L53.6904 11.8682L53.7227 11.876C54.0516 11.9556 54.387 11.9867 54.7227 11.9707V11.9717H55.1016V11.9697C55.3054 11.9806 55.5064 11.9515 55.6992 11.8857C55.8225 11.876 55.9321 11.8504 56 11.835C56.1066 11.8107 56.1409 11.8057 56.1631 11.8057C56.2009 11.8057 56.2383 11.8033 56.2744 11.7998L56.5332 13.0801C56.233 13.1842 55.9293 13.2663 55.623 13.3232L55.6182 13.3242C55.1447 13.4176 54.6674 13.4707 54.1895 13.4844C53.5596 13.491 52.9302 13.3668 52.3232 13.1113C51.9356 12.9267 51.572 12.6119 51.2715 12.1787C51.0162 11.7737 50.8252 11.2934 50.7168 10.7686V10.7676L50.6357 10.3203C50.5672 9.86902 50.5342 9.40832 50.5371 8.94629V8.94336C50.5368 8.35271 50.597 7.76476 50.7158 7.19727L50.7178 7.19141C50.8264 6.63636 51.0189 6.12317 51.2803 5.68457C51.5847 5.21051 51.9699 4.88172 52.377 4.70996L52.3984 4.7002L52.418 4.68945C53.0236 4.36522 53.6657 4.2174 54.3047 4.24609H54.3438Z" stroke="#D5C7AD" stroke-opacity="0.5"/>
<path d="M66.3828 8.8713C66.4026 9.55718 66.3173 10.2413 66.1321 10.8821C65.9548 11.4689 65.698 12.0076 65.3743 12.4716C65.0208 13.0011 64.5608 13.3857 64.0483 13.5805C62.8643 14.1376 61.5719 14.1376 60.3878 13.5805C59.8908 13.3439 59.4391 12.9654 59.0646 12.4716C58.7187 12.031 58.4587 11.4855 58.3068 10.8821C58.1208 10.2119 58.0347 9.5001 58.0533 8.78628C58.0344 8.10135 58.1207 7.41847 58.3068 6.77914C58.4805 6.18718 58.7355 5.6432 59.059 5.1749C59.4139 4.65416 59.8727 4.27738 60.3822 4.08816C60.972 3.81483 61.5935 3.68218 62.2181 3.69634C62.8624 3.69869 63.5021 3.83976 64.1124 4.11403C64.5836 4.3486 65.0132 4.70976 65.3743 5.1749C65.698 5.64026 65.9547 6.18018 66.1321 6.76805C66.2822 7.4523 66.3664 8.15899 66.3828 8.8713V8.8713ZM63.6695 8.8713C63.6796 8.47895 63.659 8.08627 63.6082 7.69954C63.5617 7.37659 63.476 7.06577 63.3547 6.77914C63.2426 6.51868 63.0919 6.29107 62.9117 6.11009C62.7042 5.93762 62.4629 5.85019 62.2181 5.85873C61.9723 5.83851 61.7283 5.9269 61.5244 6.11009C61.3452 6.29145 61.1955 6.51902 61.0843 6.77914C60.9618 7.0651 60.8761 7.37617 60.8307 7.69954C60.7777 8.05727 60.7562 8.42196 60.7667 8.78628C60.7484 9.5344 60.8569 10.2784 61.0843 10.9635C61.2166 11.2165 61.3973 11.4184 61.6078 11.5483C61.8183 11.6782 62.051 11.7315 62.2821 11.7027C62.5269 11.7109 62.7681 11.6235 62.9758 11.4514C63.153 11.3007 63.304 11.1016 63.4187 10.8674C63.5399 10.581 63.6246 10.27 63.6695 9.94695C63.6393 9.58952 63.6393 9.22873 63.6695 8.8713V8.8713Z" fill="#D5C7AD"/>
<path d="M62.207 4.19629H62.2158C62.7853 4.19837 63.3543 4.32249 63.9014 4.56738C64.2902 4.76334 64.656 5.06776 64.9717 5.47168C65.2555 5.88255 65.4849 6.36302 65.6465 6.8916C65.7873 7.53884 65.8673 8.20778 65.8828 8.88281L66.3828 8.87109L65.8828 8.88574C65.9011 9.51919 65.8225 10.1493 65.6533 10.7373C65.49 11.2778 65.2549 11.7683 64.9639 12.1855L64.959 12.1943C64.6537 12.6516 64.2713 12.9611 63.8711 13.1133L63.8525 13.1201L63.8359 13.1279C62.7867 13.6216 61.6498 13.6216 60.6006 13.1279C60.1853 12.9297 59.7947 12.6063 59.4629 12.1689L59.458 12.1631L59.3496 12.0156C59.1038 11.662 58.9116 11.2349 58.792 10.7598L58.7891 10.748L58.7285 10.5137C58.5979 9.96177 58.5376 9.38208 58.5527 8.7998L58.5537 8.78613L58.5527 8.77246C58.5352 8.13793 58.6149 7.506 58.7861 6.91797C58.946 6.37352 59.1803 5.87948 59.4707 5.45898L59.4717 5.45605C59.7778 5.00691 60.1591 4.70426 60.5566 4.55664L60.5742 4.5498L60.5928 4.54199C61.0504 4.32989 61.5254 4.21444 62.002 4.19727L62.207 4.19629ZM62.2451 5.35938C61.8514 5.33106 61.4807 5.47757 61.1904 5.73828L61.1797 5.74805L61.1689 5.75879C60.9412 5.98926 60.7582 6.27078 60.625 6.58203C60.4847 6.90945 60.3873 7.26236 60.3359 7.62598C60.2929 7.91629 60.2691 8.21084 60.2646 8.50586L60.2666 8.80078C60.2502 9.59539 60.366 10.3876 60.6094 11.1211L60.6221 11.1592L60.6416 11.1953C60.809 11.5153 61.0468 11.7897 61.3447 11.9736C61.6367 12.1539 61.9718 12.2363 62.3125 12.2012C62.6745 12.2014 63.0145 12.0673 63.2939 11.8359L63.2949 11.8369L63.2998 11.832C63.5353 11.6317 63.7269 11.3753 63.8682 11.0869L63.874 11.0752L63.8789 11.0625C64.018 10.7338 64.1145 10.3799 64.165 10.0156L64.1729 9.95996L64.168 9.90527C64.1401 9.57586 64.1401 9.2425 64.168 8.91309L63.6699 8.87109L64.1689 8.88379C64.1797 8.46576 64.1578 8.04729 64.1035 7.63477V7.62793L64.0557 7.3584C63.9999 7.09036 63.9197 6.83019 63.8154 6.58398L63.8145 6.58203L63.7041 6.35352C63.5849 6.13178 63.4376 5.92958 63.2656 5.75684L63.249 5.74023L63.2314 5.72559L63.1191 5.63965C62.8619 5.45954 62.5616 5.35807 62.2451 5.35938Z" stroke="#D5C7AD" stroke-opacity="0.5"/>
<path d="M70.7358 15.7393H71.6189V14.0648C70.9296 14.0587 70.2467 13.8897 69.602 13.5658C69.1242 13.2931 68.6937 12.893 68.3373 12.3903C68.0419 11.9284 67.827 11.3857 67.7077 10.8009C67.5881 10.2566 67.5244 9.69333 67.5183 9.12641C67.499 8.4679 67.5854 7.81147 67.7718 7.20059C67.9487 6.61727 68.2297 6.09972 68.5908 5.69246C68.9796 5.24266 69.4323 4.90079 69.9224 4.68704C70.4871 4.40664 71.0856 4.26509 71.6886 4.26934V2.17718H70.7414V0H74.3378V4.10301C74.936 4.11321 75.5306 4.22627 76.1068 4.43938C76.5758 4.65212 77.0057 4.99342 77.3688 5.4411C77.7307 5.82954 77.9942 6.35591 78.1237 6.94923C78.3044 7.56221 78.3906 8.21708 78.3772 8.87506C78.3961 9.56119 78.3098 10.2453 78.1237 10.8859C77.9472 11.4724 77.6914 12.0111 77.3688 12.4754C77.0052 12.923 76.5754 13.2653 76.1068 13.4808C75.52 13.762 74.9004 13.9034 74.2765 13.8985V15.5729H75.2153V17.7427H70.6745V15.7393H70.7358ZM71.6189 6.44652C71.3744 6.44075 71.1337 6.52797 70.9253 6.69788C70.732 6.82338 70.5753 7.02996 70.4795 7.28561C70.3575 7.54132 70.2716 7.82441 70.226 8.12099C70.1731 8.42248 70.1516 8.73215 70.162 9.0414C70.162 10.8009 70.669 11.6289 71.6774 11.7213V6.44652H71.6189ZM74.271 11.7213C74.4921 11.74 74.7131 11.6816 74.912 11.5519C75.1109 11.4222 75.2808 11.2258 75.4048 10.982C75.6804 10.4377 75.8135 9.78833 75.7836 9.13381C75.7937 8.79662 75.7732 8.45904 75.7224 8.12839C75.6753 7.8324 75.5895 7.54966 75.4689 7.293C75.3553 7.05783 75.2052 6.85748 75.0287 6.70527C74.8001 6.52474 74.5366 6.43733 74.271 6.45392V11.7213Z" fill="#D5C7AD"/>
<path d="M71.6191 5.94629C71.2559 5.94057 70.9131 6.06981 70.6289 6.29492C70.3531 6.48216 70.1506 6.76197 70.0264 7.0752C69.8848 7.37307 69.7861 7.69779 69.7334 8.03418C69.6892 8.28617 69.6648 8.54327 69.6602 8.80078L69.6621 9.05859C69.6637 9.96349 69.7929 10.7086 70.1084 11.2559C70.4468 11.8428 70.9747 12.1585 71.6318 12.2188L72.1777 12.2695V5.94629H71.6191ZM74.2402 5.95508L73.7705 5.98438V12.1807L74.2285 12.2197C74.5687 12.2485 74.9003 12.1567 75.1855 11.9707C75.4681 11.7864 75.6931 11.5186 75.8506 11.209V11.208C76.1284 10.6594 76.2769 10.0271 76.2871 9.38574L76.2832 9.11133C76.2916 8.75653 76.2703 8.40135 76.2168 8.05273L76.2158 8.0498C76.1618 7.71005 76.0627 7.38162 75.9209 7.08008L75.9189 7.0752C75.7792 6.78596 75.5896 6.52809 75.3555 6.32617L75.3467 6.31934L75.3389 6.3125L75.2178 6.22461C74.9278 6.03243 74.5907 5.9333 74.2402 5.95508ZM75.8984 13.0264H75.8975L75.8906 13.0303C75.3696 13.28 74.8246 13.4028 74.2803 13.3984L73.7764 13.3945V16.0732H74.7158V17.2432H71.1748V16.2393H72.1191V13.5693L71.623 13.5645C71.0175 13.559 70.4133 13.4118 69.8369 13.124C69.4382 12.8938 69.068 12.553 68.7539 12.1133C68.4969 11.7091 68.3047 11.2277 68.1973 10.7012L68.1963 10.6934L68.1221 10.3076C68.0576 9.91856 68.0229 9.52102 68.0186 9.12109L68.0176 9.1123L68.0156 8.88477C68.0214 8.35606 68.1013 7.83423 68.25 7.34668V7.3457C68.4085 6.82315 68.6571 6.37156 68.9648 6.02441L68.9688 6.01953C69.3141 5.61997 69.708 5.32617 70.1221 5.14551L70.1338 5.14062L70.1445 5.13477C70.6422 4.88764 71.1637 4.76594 71.6846 4.76953L72.1885 4.77246V1.67676H71.2412V0.5H73.8379V4.59473L74.3291 4.60254C74.8628 4.61164 75.3953 4.71186 75.9141 4.90137C76.2991 5.07893 76.6643 5.36593 76.9805 5.75586L76.9912 5.76953L77.0029 5.78223C77.2952 6.09595 77.5216 6.53736 77.6348 7.05566L77.6387 7.07324L77.6445 7.09082C77.8103 7.65306 77.8894 8.25709 77.877 8.86523V8.88867C77.8944 9.52303 77.815 10.1539 77.6445 10.7422C77.4843 11.2747 77.2542 11.7583 76.9697 12.1719C76.6512 12.5606 76.2853 12.8484 75.8984 13.0264Z" stroke="#D5C7AD" stroke-opacity="0.5"/>
<path d="M82.738 15.7393H83.6211V14.0648C82.9309 14.0586 82.247 13.8897 81.6014 13.5658C81.1248 13.2922 80.6954 12.8922 80.3395 12.3903C80.0441 11.9284 79.8292 11.3857 79.7099 10.8009C79.5889 10.257 79.5252 9.69348 79.5205 9.12641C79.5004 8.46816 79.5858 7.81175 79.7712 7.20059C79.9491 6.61703 80.2311 6.0995 80.593 5.69246C80.9752 5.24604 81.4202 4.90434 81.9023 4.68704C82.467 4.40664 83.0655 4.26509 83.6685 4.26934V2.17718H82.738V0H86.3345V4.10301C86.9317 4.11315 87.5254 4.22622 88.1007 4.43938C88.5702 4.65038 89.0004 4.99189 89.3626 5.4411C89.7239 5.84894 90.0057 6.36624 90.1844 6.94923C90.3643 7.56244 90.4495 8.21732 90.4351 8.87506C90.4549 9.56094 90.3696 10.245 90.1844 10.8859C90.0071 11.4727 89.7503 12.0114 89.4267 12.4754C89.0636 12.9237 88.6337 13.2662 88.1647 13.4808C87.5781 13.7625 86.9584 13.9039 86.3345 13.8985V15.5729H87.2816V17.7427H82.738V15.7393ZM83.6852 6.44652C83.4406 6.44033 83.1998 6.52759 82.9915 6.69788C82.8003 6.8258 82.645 7.03181 82.5486 7.28561C82.4279 7.54226 82.3421 7.82501 82.2951 8.12099C82.2445 8.42293 82.2238 8.73236 82.2338 9.0414C82.2338 10.8009 82.738 11.6289 83.7465 11.7213V6.44652H83.6852ZM86.3345 11.7213C86.556 11.7399 86.7774 11.6815 86.9767 11.5519C87.1761 11.4222 87.3465 11.2258 87.4711 10.982C87.7453 10.4369 87.8783 9.78813 87.8499 9.13381C87.8605 8.79643 87.8389 8.45863 87.7859 8.12839C87.7397 7.83264 87.6548 7.54991 87.5351 7.293C87.4205 7.05774 87.2695 6.85742 87.0922 6.70527C86.8637 6.52474 86.6002 6.43733 86.3345 6.45392V11.7213V11.7213Z" fill="#D5C7AD"/>
<path d="M83.6855 5.94629C83.3136 5.93999 82.9627 6.07518 82.6748 6.31055C82.4127 6.49863 82.2176 6.76959 82.0957 7.07324C81.9546 7.37341 81.8559 7.7 81.8018 8.03809C81.7465 8.3676 81.7246 8.7047 81.7344 9.04102H81.7334C81.7334 9.95345 81.862 10.7051 82.1787 11.2559C82.5163 11.8429 83.0439 12.1585 83.7012 12.2188L84.2461 12.2695V5.94629H83.6855ZM86.3037 5.95508L85.834 5.98438V11.7217H86.334L86.293 12.2197C86.633 12.2482 86.9636 12.1563 87.249 11.9707C87.532 11.7866 87.7577 11.5195 87.916 11.21L87.918 11.207C88.2281 10.5907 88.3749 9.87019 88.3496 9.14941C88.3611 8.78111 88.3373 8.41216 88.2793 8.05078H88.2803C88.2272 7.71146 88.1288 7.38366 87.9883 7.08203L87.9844 7.07422L87.8691 6.86328C87.7451 6.65968 87.594 6.4773 87.418 6.32617L87.4023 6.3125L87.2812 6.22461C86.9913 6.03244 86.6542 5.93329 86.3037 5.95508ZM84.1211 13.5693L83.626 13.5645C83.0223 13.5591 82.4197 13.413 81.8447 13.1279C81.444 12.8966 81.0715 12.555 80.7559 12.1133C80.4989 11.7091 80.3076 11.2276 80.2002 10.7012L80.1982 10.6924L80.123 10.3076C80.0798 10.0485 80.0502 9.7855 80.0342 9.52051L80.0205 9.12207V9.11133L80.0176 8.88379C80.0226 8.3553 80.1021 7.83345 80.25 7.3457L80.249 7.34473C80.4085 6.82239 80.6585 6.37112 80.9668 6.02441L80.9727 6.01758C81.3124 5.62079 81.6995 5.32647 82.1074 5.14258L82.125 5.13477C82.6228 4.88767 83.1441 4.76586 83.665 4.76953L84.1689 4.77246V1.67676H83.2383V0.5H85.834V4.59473L86.3262 4.60254C86.8589 4.61161 87.3904 4.71178 87.9082 4.90137C88.2931 5.07694 88.6583 5.36371 88.9736 5.75488L88.9805 5.76367L88.9883 5.77246C89.2967 6.12068 89.5458 6.57297 89.7061 7.0957V7.09473C89.8701 7.6559 89.9488 8.258 89.9355 8.86426L89.9346 8.87695L89.9355 8.88965C89.9538 9.52305 89.8753 10.1533 89.7061 10.7412C89.5446 11.2757 89.312 11.7606 89.0254 12.1748C88.7078 12.5629 88.3429 12.8498 87.957 13.0264L87.9482 13.0303C87.4274 13.2803 86.883 13.4032 86.3389 13.3984L85.834 13.3945V16.0732H86.7812V17.2432H83.2383V16.2393H84.1211V13.5693Z" stroke="#D5C7AD" stroke-opacity="0.5"/>
<mask id="path-19-inside-1_76_97" fill="white">
<path d="M9.26367 30.8483V30.0609H9.62025V27.1741H9.26924V26.3867H12.3002V27.9059H11.6567V27.1667H10.5591V30.0536H11.0104V30.8409L9.26367 30.8483Z"/>
</mask>
<path d="M9.26367 30.8483V30.0609H9.62025V27.1741H9.26924V26.3867H12.3002V27.9059H11.6567V27.1667H10.5591V30.0536H11.0104V30.8409L9.26367 30.8483Z" fill="#D5C7AD"/>
<path d="M9.26367 30.8483H8.26367V31.8525L9.2679 31.8483L9.26367 30.8483ZM9.26367 30.0609V29.0609H8.26367V30.0609H9.26367ZM9.62025 30.0609V31.0609H10.6203V30.0609H9.62025ZM9.62025 27.1741H10.6203V26.1741H9.62025V27.1741ZM9.26924 27.1741H8.26924V28.1741H9.26924V27.1741ZM9.26924 26.3867V25.3867H8.26924V26.3867H9.26924ZM12.3002 26.3867H13.3002V25.3867H12.3002V26.3867ZM12.3002 27.9059V28.9059H13.3002V27.9059H12.3002ZM11.6567 27.9059H10.6567V28.9059H11.6567V27.9059ZM11.6567 27.1667H12.6567V26.1667H11.6567V27.1667ZM10.5591 27.1667V26.1667H9.55906V27.1667H10.5591ZM10.5591 30.0536H9.55906V31.0536H10.5591V30.0536ZM11.0104 30.0536H12.0104V29.0536H11.0104V30.0536ZM11.0104 30.8409L11.0146 31.8409L12.0104 31.8367V30.8409H11.0104ZM9.26367 30.8483H10.2637V30.0609H9.26367H8.26367V30.8483H9.26367ZM9.26367 30.0609V31.0609H9.62025V30.0609V29.0609H9.26367V30.0609ZM9.62025 30.0609H10.6203V27.1741H9.62025H8.62025V30.0609H9.62025ZM9.62025 27.1741V26.1741H9.26924V27.1741V28.1741H9.62025V27.1741ZM9.26924 27.1741H10.2692V26.3867H9.26924H8.26924V27.1741H9.26924ZM9.26924 26.3867V27.3867H12.3002V26.3867V25.3867H9.26924V26.3867ZM12.3002 26.3867H11.3002V27.9059H12.3002H13.3002V26.3867H12.3002ZM12.3002 27.9059V26.9059H11.6567V27.9059V28.9059H12.3002V27.9059ZM11.6567 27.9059H12.6567V27.1667H11.6567H10.6567V27.9059H11.6567ZM11.6567 27.1667V26.1667H10.5591V27.1667V28.1667H11.6567V27.1667ZM10.5591 27.1667H9.55906V30.0536H10.5591H11.5591V27.1667H10.5591ZM10.5591 30.0536V31.0536H11.0104V30.0536V29.0536H10.5591V30.0536ZM11.0104 30.0536H10.0104V30.8409H11.0104H12.0104V30.0536H11.0104ZM11.0104 30.8409L11.0061 29.8409L9.25944 29.8483L9.26367 30.8483L9.2679 31.8483L11.0146 31.8409L11.0104 30.8409Z" fill="#D5C7AD" fill-opacity="0.5" mask="url(#path-19-inside-1_76_97)"/>
<path d="M16.088 28.6031C16.0904 28.9158 16.0537 29.2268 15.9794 29.5235C15.9149 29.7966 15.8076 30.0486 15.6646 30.2628C15.5198 30.4763 15.3395 30.6421 15.138 30.747C14.905 30.8692 14.6559 30.9283 14.4054 30.9207C14.1476 30.9289 13.8911 30.8699 13.6504 30.747C13.4497 30.6419 13.2689 30.479 13.1211 30.2702C12.9744 30.0595 12.8666 29.8064 12.8064 29.5309C12.7353 29.2295 12.7005 28.9152 12.7033 28.5994C12.7047 28.2917 12.7423 27.9861 12.8147 27.6938C12.8777 27.4206 12.9841 27.1685 13.1267 26.9545C13.2704 26.7401 13.4497 26.5731 13.6504 26.4666C14.136 26.2299 14.6692 26.2299 15.1548 26.4666C15.3555 26.5747 15.5348 26.743 15.6785 26.9582C15.8183 27.1736 15.9227 27.4254 15.9849 27.6975C16.0538 27.9906 16.0885 28.296 16.088 28.6031V28.6031ZM15.0851 28.6031C15.0813 28.4172 15.0673 28.2319 15.0433 28.0486C15.027 27.8876 14.9903 27.7314 14.9347 27.5866C14.8871 27.4594 14.8162 27.3502 14.7285 27.2687C14.6283 27.1867 14.5118 27.1468 14.3942 27.1541C14.2747 27.1485 14.1565 27.1896 14.0544 27.2724C13.9626 27.3535 13.8879 27.4641 13.8371 27.594C13.7806 27.7386 13.7429 27.8948 13.7257 28.056C13.7028 28.2393 13.6916 28.4248 13.6922 28.6105C13.6916 28.8148 13.7037 29.0188 13.7284 29.2204C13.7478 29.3801 13.7884 29.5341 13.8482 29.6751C13.9007 29.7935 13.9756 29.8916 14.0655 29.9597C14.1668 30.0298 14.28 30.0642 14.3942 30.0595C14.5018 30.0661 14.6085 30.0312 14.7015 29.9591C14.7944 29.8869 14.8696 29.7806 14.918 29.6529C14.9802 29.514 15.0227 29.3612 15.0433 29.2019C15.0711 29.0069 15.0851 28.8089 15.0851 28.6105V28.6031Z" fill="#D5C7AD"/>
<path d="M15.585 28.5928C15.5815 28.4274 15.5688 28.2625 15.5508 28.0986C15.5747 28.264 15.5882 28.4329 15.5879 28.6025L16.0879 28.6035L15.5879 28.6064C15.5887 28.7068 15.5826 28.8071 15.5742 28.9062C15.5804 28.8079 15.5849 28.7091 15.585 28.6104V28.5928Z" stroke="#D5C7AD" stroke-opacity="0.5"/>
<mask id="path-23-inside-2_76_97" fill="white">
<path d="M19.7785 27.7948C19.7794 27.9739 19.7558 28.1518 19.7088 28.3197C19.6588 28.4949 19.5816 28.6541 19.4823 28.7872C19.383 28.9203 19.2637 29.0242 19.1322 29.0923C18.967 29.1765 18.7909 29.2167 18.614 29.2105H18.0568V30.0607H18.5026V30.848H16.7754V30.0607H17.132V27.1701H16.7893V26.3791H18.5499C18.7387 26.3759 18.9267 26.4121 19.1071 26.4863C19.2498 26.5468 19.381 26.6477 19.4915 26.782C19.5889 26.9055 19.6633 27.0574 19.7088 27.2256C19.7556 27.4089 19.7791 27.6013 19.7785 27.7948ZM18.0708 27.1701V28.4639H18.3689C18.4273 28.4688 18.4858 28.4572 18.5405 28.4298C18.5953 28.4024 18.645 28.3598 18.6864 28.3049C18.7673 28.1744 18.8072 28.0077 18.7979 27.8392C18.8097 27.66 18.7677 27.482 18.6809 27.3439C18.636 27.2879 18.5829 27.2449 18.5249 27.2175C18.4669 27.1902 18.4052 27.1791 18.3438 27.1849L18.0708 27.1701Z"/>
</mask>
<path d="M19.7785 27.7948C19.7794 27.9739 19.7558 28.1518 19.7088 28.3197C19.6588 28.4949 19.5816 28.6541 19.4823 28.7872C19.383 28.9203 19.2637 29.0242 19.1322 29.0923C18.967 29.1765 18.7909 29.2167 18.614 29.2105H18.0568V30.0607H18.5026V30.848H16.7754V30.0607H17.132V27.1701H16.7893V26.3791H18.5499C18.7387 26.3759 18.9267 26.4121 19.1071 26.4863C19.2498 26.5468 19.381 26.6477 19.4915 26.782C19.5889 26.9055 19.6633 27.0574 19.7088 27.2256C19.7556 27.4089 19.7791 27.6013 19.7785 27.7948ZM18.0708 27.1701V28.4639H18.3689C18.4273 28.4688 18.4858 28.4572 18.5405 28.4298C18.5953 28.4024 18.645 28.3598 18.6864 28.3049C18.7673 28.1744 18.8072 28.0077 18.7979 27.8392C18.8097 27.66 18.7677 27.482 18.6809 27.3439C18.636 27.2879 18.5829 27.2449 18.5249 27.2175C18.4669 27.1902 18.4052 27.1791 18.3438 27.1849L18.0708 27.1701Z" fill="#D5C7AD"/>
<path d="M19.7785 27.7948L18.7784 27.7915L18.7785 27.8001L19.7785 27.7948ZM19.7088 28.3197L20.6704 28.5943L20.6718 28.5892L19.7088 28.3197ZM19.1322 29.0923L19.5866 29.9831L19.5917 29.9804L19.1322 29.0923ZM18.614 29.2105L18.6488 28.2111L18.6314 28.2105H18.614V29.2105ZM18.0568 29.2105V28.2105H17.0568V29.2105H18.0568ZM18.0568 30.0607H17.0568V31.0607H18.0568V30.0607ZM18.5026 30.0607H19.5026V29.0607H18.5026V30.0607ZM18.5026 30.848V31.848H19.5026V30.848H18.5026ZM16.7754 30.848H15.7754V31.848H16.7754V30.848ZM16.7754 30.0607V29.0607H15.7754V30.0607H16.7754ZM17.132 30.0607V31.0607H18.132V30.0607H17.132ZM17.132 27.1701H18.132V26.1701H17.132V27.1701ZM16.7893 27.1701H15.7893V28.1701H16.7893V27.1701ZM16.7893 26.3791V25.3791H15.7893V26.3791H16.7893ZM18.5499 26.3791V27.3791H18.5584L18.5669 27.379L18.5499 26.3791ZM19.1071 26.4863L19.4975 25.5656L19.4877 25.5616L19.1071 26.4863ZM19.4915 26.782L20.2769 26.163L20.2704 26.1547L20.2637 26.1465L19.4915 26.782ZM19.7088 27.2256L20.6778 26.9785L20.676 26.9713L20.674 26.9642L19.7088 27.2256ZM18.0708 27.1701L18.1249 26.1716L17.0708 26.1145V27.1701H18.0708ZM18.0708 28.4639H17.0708V29.4639H18.0708V28.4639ZM18.3689 28.4639L18.453 27.4674L18.411 27.4639H18.3689V28.4639ZM18.6864 28.3049L19.4848 28.9072L19.5124 28.8705L19.5366 28.8314L18.6864 28.3049ZM18.7979 27.8392L17.8001 27.773L17.796 27.8336L17.7994 27.8942L18.7979 27.8392ZM18.6809 27.3439L19.5274 26.8116L19.4969 26.763L19.461 26.7183L18.6809 27.3439ZM18.3438 27.1849L18.2897 28.1835L18.3641 28.1875L18.4384 28.1804L18.3438 27.1849ZM19.7785 27.7948L18.7785 27.8001C18.7789 27.8889 18.7671 27.9742 18.7458 28.0503L19.7088 28.3197L20.6718 28.5892C20.7445 28.3294 20.7799 28.059 20.7784 27.7896L19.7785 27.7948ZM19.7088 28.3197L18.7472 28.0451C18.7273 28.1149 18.7009 28.1622 18.6809 28.189L19.4823 28.7872L20.2837 29.3854C20.4623 29.1461 20.5903 28.8748 20.6704 28.5943L19.7088 28.3197ZM19.4823 28.7872L18.6809 28.189C18.6713 28.202 18.6645 28.2083 18.6624 28.2101C18.6603 28.2119 18.6634 28.2089 18.6726 28.2041L19.1322 29.0923L19.5917 29.9804C19.8732 29.8348 20.1049 29.6249 20.2837 29.3854L19.4823 28.7872ZM19.1322 29.0923L18.6778 28.2015C18.6662 28.2074 18.6585 28.2096 18.6549 28.2104C18.6514 28.2112 18.6497 28.2112 18.6488 28.2111L18.614 29.2105L18.5792 30.2099C18.9339 30.2223 19.2776 30.1406 19.5866 29.9831L19.1322 29.0923ZM18.614 29.2105V28.2105H18.0568V29.2105V30.2105H18.614V29.2105ZM18.0568 29.2105H17.0568V30.0607H18.0568H19.0568V29.2105H18.0568ZM18.0568 30.0607V31.0607H18.5026V30.0607V29.0607H18.0568V30.0607ZM18.5026 30.0607H17.5026V30.848H18.5026H19.5026V30.0607H18.5026ZM18.5026 30.848V29.848H16.7754V30.848V31.848H18.5026V30.848ZM16.7754 30.848H17.7754V30.0607H16.7754H15.7754V30.848H16.7754ZM16.7754 30.0607V31.0607H17.132V30.0607V29.0607H16.7754V30.0607ZM17.132 30.0607H18.132V27.1701H17.132H16.132V30.0607H17.132ZM17.132 27.1701V26.1701H16.7893V27.1701V28.1701H17.132V27.1701ZM16.7893 27.1701H17.7893V26.3791H16.7893H15.7893V27.1701H16.7893ZM16.7893 26.3791V27.3791H18.5499V26.3791V25.3791H16.7893V26.3791ZM18.5499 26.3791L18.5669 27.379C18.615 27.3781 18.6679 27.3869 18.7264 27.411L19.1071 26.4863L19.4877 25.5616C19.1856 25.4372 18.8625 25.3736 18.5329 25.3792L18.5499 26.3791ZM19.1071 26.4863L18.7167 27.407C18.6938 27.3973 18.6987 27.3923 18.7194 27.4175L19.4915 26.782L20.2637 26.1465C20.0633 25.9031 19.8058 25.6964 19.4974 25.5656L19.1071 26.4863ZM19.4915 26.782L18.7061 27.401C18.7115 27.4078 18.7294 27.4348 18.7436 27.487L19.7088 27.2256L20.674 26.9642C20.5971 26.68 20.4663 26.4033 20.2769 26.163L19.4915 26.782ZM19.7088 27.2256L18.7398 27.4727C18.7652 27.5723 18.7788 27.6805 18.7785 27.7915L19.7785 27.7948L20.7785 27.7981C20.7794 27.5221 20.7459 27.2455 20.6778 26.9785L19.7088 27.2256ZM18.0708 27.1701H17.0708V28.4639H18.0708H19.0708V27.1701H18.0708ZM18.0708 28.4639V29.4639H18.3689V28.4639V27.4639H18.0708V28.4639ZM18.3689 28.4639L18.2847 29.4603C18.5348 29.4814 18.7766 29.4299 18.9881 29.324L18.5405 28.4298L18.093 27.5355C18.195 27.4845 18.3197 27.4562 18.453 27.4674L18.3689 28.4639ZM18.5405 28.4298L18.9881 29.324C19.1969 29.2195 19.362 29.0699 19.4848 28.9072L18.6864 28.3049L17.8881 27.7027C17.9281 27.6498 17.9937 27.5852 18.093 27.5355L18.5405 28.4298ZM18.6864 28.3049L19.5366 28.8314C19.7359 28.5096 19.8157 28.1358 19.7963 27.7841L18.7979 27.8392L17.7994 27.8942C17.7988 27.8828 17.7995 27.8697 17.8034 27.8536C17.8071 27.8379 17.8157 27.8116 17.8363 27.7784L18.6864 28.3049ZM18.7979 27.8392L19.7957 27.9054C19.82 27.538 19.7378 27.1462 19.5274 26.8116L18.6809 27.3439L17.8343 27.8761C17.814 27.8439 17.8063 27.8192 17.8032 27.806C17.7999 27.7924 17.7995 27.7819 17.8001 27.773L18.7979 27.8392ZM18.6809 27.3439L19.461 26.7183C19.3323 26.5578 19.1624 26.4126 18.9514 26.3131L18.5249 27.2175L18.0984 28.122C18.0033 28.0772 17.9396 28.018 17.9007 27.9695L18.6809 27.3439ZM18.5249 27.2175L18.9514 26.3131C18.7377 26.2123 18.4966 26.1659 18.2492 26.1894L18.3438 27.1849L18.4384 28.1804C18.3138 28.1923 18.196 28.1681 18.0984 28.122L18.5249 27.2175ZM18.3438 27.1849L18.3979 26.1864L18.1249 26.1716L18.0708 27.1701L18.0167 28.1687L18.2897 28.1835L18.3438 27.1849Z" fill="#D5C7AD" fill-opacity="0.5" mask="url(#path-23-inside-2_76_97)"/>
<path d="M23.7828 28.6035C23.7869 28.9157 23.7521 29.2267 23.6797 29.5239C23.6131 29.7966 23.505 30.0482 23.3621 30.2631C23.2194 30.4739 23.0421 30.6383 22.8439 30.7437C22.6119 30.8659 22.3637 30.925 22.1141 30.9174C21.8574 30.9258 21.602 30.868 21.3619 30.7474C21.1631 30.6433 20.9846 30.4808 20.8398 30.2721C20.6951 30.0634 20.5879 29.8139 20.5262 29.5423C20.4574 29.2404 20.4236 28.9263 20.4259 28.6109C20.424 28.3003 20.4578 27.9912 20.5262 27.6941C20.5902 27.4207 20.6975 27.1687 20.841 26.9549C20.9857 26.7396 21.1659 26.5714 21.3675 26.4632C21.6078 26.3384 21.8644 26.2781 22.1224 26.2858C22.3695 26.2839 22.6145 26.3454 22.8439 26.4669C23.045 26.5745 23.2243 26.7428 23.3677 26.9586C23.5094 27.1728 23.6149 27.4249 23.6769 27.6978C23.7467 27.9908 23.7824 28.2962 23.7828 28.6035V28.6035ZM22.7771 28.6035C22.7781 28.4155 22.7688 28.2277 22.7492 28.0416C22.7329 27.8806 22.6962 27.7243 22.6406 27.5796C22.5921 27.4532 22.5214 27.3441 22.4344 27.2617C22.3342 27.1797 22.2177 27.1398 22.1001 27.1471C21.9797 27.142 21.8608 27.1831 21.7575 27.2654C21.6671 27.3485 21.5926 27.4586 21.5402 27.5869C21.4849 27.7322 21.4473 27.8881 21.4288 28.049C21.4083 28.2326 21.398 28.4179 21.3981 28.6035C21.3961 28.8078 21.4083 29.012 21.4343 29.2134C21.4537 29.3731 21.4943 29.527 21.5541 29.668C21.6066 29.7864 21.6815 29.8845 21.7714 29.9526C21.8726 30.0231 21.9859 30.0575 22.1001 30.0525C22.2108 30.0552 22.3199 30.0168 22.4149 29.9416C22.5035 29.8683 22.5756 29.7649 22.6239 29.6422C22.6802 29.5047 22.7197 29.3562 22.7409 29.2023C22.7667 29.007 22.7788 28.8091 22.7771 28.6109V28.6035Z" fill="#D5C7AD"/>
<path d="M23.2715 28.3447C23.278 28.4307 23.2831 28.5176 23.2832 28.6045L23.7832 28.6035L23.2832 28.6104C23.2852 28.7571 23.2754 28.9031 23.2578 29.0469C23.2609 29.0107 23.2663 28.9747 23.2686 28.9385L23.2773 28.6064V28.6035C23.2778 28.5172 23.275 28.4309 23.2715 28.3447Z" stroke="#D5C7AD" stroke-opacity="0.5"/>
<mask id="path-27-inside-3_76_97" fill="white">
<path d="M24.8346 30.8483V32.0459H24.1465V30.0794L24.4836 30.0609C24.6921 29.7448 24.836 29.363 24.9014 28.952C24.9787 28.4535 25.0152 27.9454 25.0101 27.4365V27.1777H24.6089V26.3867H27.8404V27.1741H27.4894V30.0609L27.846 30.0794V32.0459H27.1691V30.8483H24.8346ZM25.8319 27.5215C25.8319 27.8098 25.8319 28.0723 25.8152 28.3125C25.805 28.5384 25.7836 28.7632 25.7511 28.9853C25.7246 29.186 25.6836 29.3828 25.6285 29.573C25.5746 29.7516 25.5024 29.9195 25.414 30.072H26.5618V27.1741H25.8319V27.5215Z"/>
</mask>
<path d="M24.8346 30.8483V32.0459H24.1465V30.0794L24.4836 30.0609C24.6921 29.7448 24.836 29.363 24.9014 28.952C24.9787 28.4535 25.0152 27.9454 25.0101 27.4365V27.1777H24.6089V26.3867H27.8404V27.1741H27.4894V30.0609L27.846 30.0794V32.0459H27.1691V30.8483H24.8346ZM25.8319 27.5215C25.8319 27.8098 25.8319 28.0723 25.8152 28.3125C25.805 28.5384 25.7836 28.7632 25.7511 28.9853C25.7246 29.186 25.6836 29.3828 25.6285 29.573C25.5746 29.7516 25.5024 29.9195 25.414 30.072H26.5618V27.1741H25.8319V27.5215Z" fill="#D5C7AD"/>
<path d="M24.8346 30.8483V29.8483H23.8346V30.8483H24.8346ZM24.8346 32.0459V33.0459H25.8346V32.0459H24.8346ZM24.1465 32.0459H23.1465V33.0459H24.1465V32.0459ZM24.1465 30.0794L24.0917 29.0809L23.1465 29.1328V30.0794H24.1465ZM24.4836 30.0609L24.5383 31.0594L25.0411 31.0319L25.3183 30.6116L24.4836 30.0609ZM24.9014 28.952L25.889 29.1093L25.8896 29.1053L24.9014 28.952ZM25.0101 27.4365H24.01L24.0101 27.4465L25.0101 27.4365ZM25.0101 27.1777H26.0101V26.1777H25.0101V27.1777ZM24.6089 27.1777H23.6089V28.1777H24.6089V27.1777ZM24.6089 26.3867V25.3867H23.6089V26.3867H24.6089ZM27.8404 26.3867H28.8404V25.3867H27.8404V26.3867ZM27.8404 27.1741V28.1741H28.8404V27.1741H27.8404ZM27.4894 27.1741V26.1741H26.4894V27.1741H27.4894ZM27.4894 30.0609H26.4894V31.0105L27.4377 31.0596L27.4894 30.0609ZM27.846 30.0794H28.846V29.1299L27.8978 29.0808L27.846 30.0794ZM27.846 32.0459V33.0459H28.846V32.0459H27.846ZM27.1691 32.0459H26.1691V33.0459H27.1691V32.0459ZM27.1691 30.8483H28.1691V29.8483H27.1691V30.8483ZM25.8152 28.3125L24.8176 28.2431L24.8167 28.2553L24.8162 28.2676L25.8152 28.3125ZM25.7511 28.9853L24.7616 28.8405L24.7606 28.8476L24.7597 28.8546L25.7511 28.9853ZM25.6285 29.573L26.5859 29.8619L26.5891 29.8512L25.6285 29.573ZM25.414 30.072L24.5489 29.5704L23.6782 31.072H25.414V30.072ZM26.5618 30.072V31.072H27.5618V30.072H26.5618ZM26.5618 27.1741H27.5618V26.1741H26.5618V27.1741ZM25.8319 27.1741V26.1741H24.8319V27.1741H25.8319ZM24.8346 30.8483H23.8346V32.0459H24.8346H25.8346V30.8483H24.8346ZM24.8346 32.0459V31.0459H24.1465V32.0459V33.0459H24.8346V32.0459ZM24.1465 32.0459H25.1465V30.0794H24.1465H23.1465V32.0459H24.1465ZM24.1465 30.0794L24.2012 31.0779L24.5383 31.0594L24.4836 30.0609L24.4288 29.0624L24.0917 29.0809L24.1465 30.0794ZM24.4836 30.0609L25.3183 30.6116C25.6126 30.1654 25.8034 29.6468 25.889 29.1093L24.9014 28.952L23.9139 28.7947C23.8686 29.0793 23.7715 29.3243 23.6488 29.5103L24.4836 30.0609ZM24.9014 28.952L25.8896 29.1053C25.9754 28.5523 26.0156 27.9896 26.01 27.4265L25.0101 27.4365L24.0101 27.4465C24.0147 27.9012 23.9821 28.3548 23.9132 28.7988L24.9014 28.952ZM25.0101 27.4365H26.0101V27.1777H25.0101H24.0101V27.4365H25.0101ZM25.0101 27.1777V26.1777H24.6089V27.1777V28.1777H25.0101V27.1777ZM24.6089 27.1777H25.6089V26.3867H24.6089H23.6089V27.1777H24.6089ZM24.6089 26.3867V27.3867H27.8404V26.3867V25.3867H24.6089V26.3867ZM27.8404 26.3867H26.8404V27.1741H27.8404H28.8404V26.3867H27.8404ZM27.8404 27.1741V26.1741H27.4894V27.1741V28.1741H27.8404V27.1741ZM27.4894 27.1741H26.4894V30.0609H27.4894H28.4894V27.1741H27.4894ZM27.4894 30.0609L27.4377 31.0596L27.7942 31.0781L27.846 30.0794L27.8978 29.0808L27.5412 29.0623L27.4894 30.0609ZM27.846 30.0794H26.846V32.0459H27.846H28.846V30.0794H27.846ZM27.846 32.0459V31.0459H27.1691V32.0459V33.0459H27.846V32.0459ZM27.1691 32.0459H28.1691V30.8483H27.1691H26.1691V32.0459H27.1691ZM27.1691 30.8483V29.8483H24.8346V30.8483V31.8483H27.1691V30.8483ZM25.8319 27.5215H24.8319C24.8319 27.8187 24.8314 28.0443 24.8176 28.2431L25.8152 28.3125L26.8128 28.3819C26.8323 28.1003 26.8319 27.801 26.8319 27.5215H25.8319ZM25.8152 28.3125L24.8162 28.2676C24.8075 28.4603 24.7893 28.6517 24.7616 28.8405L25.7511 28.9853L26.7406 29.1301C26.7779 28.8746 26.8025 28.6166 26.8142 28.3575L25.8152 28.3125ZM25.7511 28.9853L24.7597 28.8546C24.7396 29.0066 24.7088 29.1541 24.668 29.2949L25.6285 29.573L26.5891 29.8512C26.6584 29.6116 26.7096 29.3654 26.7425 29.116L25.7511 28.9853ZM25.6285 29.573L24.6712 29.2841C24.6384 29.3928 24.5963 29.4888 24.5489 29.5704L25.414 30.072L26.2791 30.5737C26.4086 30.3503 26.5109 30.1105 26.5859 29.8619L25.6285 29.573ZM25.414 30.072V31.072H26.5618V30.072V29.072H25.414V30.072ZM26.5618 30.072H27.5618V27.1741H26.5618H25.5618V30.072H26.5618ZM26.5618 27.1741V26.1741H25.8319V27.1741V28.1741H26.5618V27.1741ZM25.8319 27.1741H24.8319V27.5215H25.8319H26.8319V27.1741H25.8319Z" fill="#D5C7AD" fill-opacity="0.5" mask="url(#path-27-inside-3_76_97)"/>
<path d="M29.5763 28.5854C29.5722 28.8085 29.5919 29.0312 29.6348 29.247C29.6632 29.4034 29.7218 29.5474 29.8048 29.6647C29.8811 29.7693 29.9774 29.8447 30.0833 29.8828C30.2192 29.9258 30.3587 29.9457 30.4984 29.9419H30.6488L30.8494 29.9161L31.0667 29.8754C31.1344 29.8627 31.2014 29.8442 31.2673 29.82L31.4038 30.6738C31.319 30.7161 31.2325 30.7518 31.1447 30.781C31.0529 30.8141 30.9599 30.8412 30.8661 30.8623C30.7686 30.8845 30.6683 30.8993 30.5681 30.9104C30.4678 30.9215 30.3703 30.9104 30.2895 30.9104C30.0044 30.9238 29.7202 30.861 29.4537 30.7256C29.2506 30.6162 29.0714 30.4408 28.9328 30.2155C28.8051 29.998 28.7156 29.7454 28.6709 29.4762C28.6201 29.1903 28.5948 28.8975 28.5957 28.6038C28.5958 28.3212 28.6211 28.0395 28.6709 27.7648C28.7169 27.4801 28.8138 27.2143 28.9534 26.9898C29.0931 26.7653 29.2713 26.5886 29.4732 26.4747C29.7531 26.3228 30.0542 26.2523 30.3563 26.2677C30.5214 26.2661 30.6863 26.2822 30.8494 26.3158C30.9972 26.3475 31.1433 26.392 31.2868 26.4488V27.883H30.6405V27.2473C30.5963 27.2344 30.5517 27.2245 30.5068 27.2177H30.3647C30.2383 27.2133 30.1127 27.2461 29.997 27.3138C29.9007 27.3746 29.8189 27.4692 29.7602 27.5873C29.6944 27.7196 29.6489 27.8678 29.6265 28.0235C29.5948 28.2079 29.578 28.3962 29.5763 28.5854V28.5854Z" fill="#D5C7AD"/>
<path d="M29.1934 29.5361C29.2399 29.6845 29.3068 29.8263 29.3965 29.9531L29.4014 29.96C29.5275 30.1325 29.7008 30.2768 29.9141 30.3535L29.9229 30.3564L29.9326 30.3594C29.9969 30.3797 30.0622 30.3953 30.1279 30.4082C29.9804 30.3966 29.832 30.3553 29.6865 30.2822C29.5748 30.2209 29.4604 30.1156 29.3633 29.96C29.2909 29.8363 29.2323 29.6932 29.1934 29.5361Z" stroke="#D5C7AD" stroke-opacity="0.5"/>
<mask id="path-31-inside-4_76_97" fill="white">
<path d="M33.3509 30.061H33.6824V30.8483H32.0527V30.061H32.4093V27.1741H32.0527V26.3867H33.6824V27.1741H33.3509V30.061ZM35.1338 30.0203L35.599 30.0794V30.7596C35.5472 30.7862 35.4942 30.8084 35.4402 30.8261C35.3817 30.8261 35.3288 30.8631 35.2731 30.8742C35.2174 30.8853 35.17 30.8963 35.1227 30.9037H35.0029C34.8736 30.9168 34.7436 30.8941 34.6212 30.8372C34.5121 30.7715 34.4208 30.6632 34.3594 30.5267L33.4874 28.7598V28.3791L34.2953 26.7342C34.3521 26.5952 34.437 26.48 34.5404 26.4015C34.6377 26.3395 34.7446 26.3091 34.8524 26.3128C35.0689 26.3107 35.282 26.3833 35.4709 26.5235L35.4235 27.1999L34.9973 27.248L34.3259 28.4641L35.1338 30.0203Z"/>
</mask>
<path d="M33.3509 30.061H33.6824V30.8483H32.0527V30.061H32.4093V27.1741H32.0527V26.3867H33.6824V27.1741H33.3509V30.061ZM35.1338 30.0203L35.599 30.0794V30.7596C35.5472 30.7862 35.4942 30.8084 35.4402 30.8261C35.3817 30.8261 35.3288 30.8631 35.2731 30.8742C35.2174 30.8853 35.17 30.8963 35.1227 30.9037H35.0029C34.8736 30.9168 34.7436 30.8941 34.6212 30.8372C34.5121 30.7715 34.4208 30.6632 34.3594 30.5267L33.4874 28.7598V28.3791L34.2953 26.7342C34.3521 26.5952 34.437 26.48 34.5404 26.4015C34.6377 26.3395 34.7446 26.3091 34.8524 26.3128C35.0689 26.3107 35.282 26.3833 35.4709 26.5235L35.4235 27.1999L34.9973 27.248L34.3259 28.4641L35.1338 30.0203Z" fill="#D5C7AD"/>
<path d="M33.3509 30.061H32.3509V31.061H33.3509V30.061ZM33.6824 30.061H34.6824V29.061H33.6824V30.061ZM33.6824 30.8483V31.8483H34.6824V30.8483H33.6824ZM32.0527 30.8483H31.0527V31.8483H32.0527V30.8483ZM32.0527 30.061V29.061H31.0527V30.061H32.0527ZM32.4093 30.061V31.061H33.4093V30.061H32.4093ZM32.4093 27.1741H33.4093V26.1741H32.4093V27.1741ZM32.0527 27.1741H31.0527V28.1741H32.0527V27.1741ZM32.0527 26.3867V25.3867H31.0527V26.3867H32.0527ZM33.6824 26.3867H34.6824V25.3867H33.6824V26.3867ZM33.6824 27.1741V28.1741H34.6824V27.1741H33.6824ZM33.3509 27.1741V26.1741H32.3509V27.1741H33.3509ZM35.1338 30.0203L34.2463 30.481L34.4878 30.9462L35.0077 31.0123L35.1338 30.0203ZM35.599 30.0794H36.599V29.1985L35.7251 29.0874L35.599 30.0794ZM35.599 30.7596L36.0554 31.6494L36.599 31.3705V30.7596H35.599ZM35.4402 30.8261V31.8261H35.6004L35.7526 31.7761L35.4402 30.8261ZM35.1227 30.9037V31.9037H35.2002L35.2769 31.8918L35.1227 30.9037ZM35.0029 30.9037V29.9037H34.9526L34.9026 29.9088L35.0029 30.9037ZM34.6212 30.8372L34.1055 31.6939L34.1512 31.7214L34.1995 31.7439L34.6212 30.8372ZM34.3594 30.5267L35.2713 30.1164L35.264 30.1002L35.2561 30.0842L34.3594 30.5267ZM33.4874 28.7598H32.4874V28.9931L32.5907 29.2024L33.4874 28.7598ZM33.4874 28.3791L32.5898 27.9382L32.4874 28.1468V28.3791H33.4874ZM34.2953 26.7342L35.1929 27.175L35.208 27.1443L35.2209 27.1126L34.2953 26.7342ZM34.5404 26.4015L34.0027 25.5584L33.9684 25.5803L33.936 25.6049L34.5404 26.4015ZM34.8524 26.3128L34.8182 27.3122L34.8402 27.313L34.8622 27.3128L34.8524 26.3128ZM35.4709 26.5235L36.4684 26.5933L36.5067 26.0469L36.0669 25.7205L35.4709 26.5235ZM35.4235 27.1999L35.5356 28.1936L36.3629 28.1004L36.4211 27.2698L35.4235 27.1999ZM34.9973 27.248L34.8853 26.2543L34.3717 26.3122L34.1219 26.7647L34.9973 27.248ZM34.3259 28.4641L33.4505 27.9808L33.1917 28.4496L33.4384 28.9249L34.3259 28.4641ZM33.3509 30.061V31.061H33.6824V30.061V29.061H33.3509V30.061ZM33.6824 30.061H32.6824V30.8483H33.6824H34.6824V30.061H33.6824ZM33.6824 30.8483V29.8483H32.0527V30.8483V31.8483H33.6824V30.8483ZM32.0527 30.8483H33.0527V30.061H32.0527H31.0527V30.8483H32.0527ZM32.0527 30.061V31.061H32.4093V30.061V29.061H32.0527V30.061ZM32.4093 30.061H33.4093V27.1741H32.4093H31.4093V30.061H32.4093ZM32.4093 27.1741V26.1741H32.0527V27.1741V28.1741H32.4093V27.1741ZM32.0527 27.1741H33.0527V26.3867H32.0527H31.0527V27.1741H32.0527ZM32.0527 26.3867V27.3867H33.6824V26.3867V25.3867H32.0527V26.3867ZM33.6824 26.3867H32.6824V27.1741H33.6824H34.6824V26.3867H33.6824ZM33.6824 27.1741V26.1741H33.3509V27.1741V28.1741H33.6824V27.1741ZM33.3509 27.1741H32.3509V30.061H33.3509H34.3509V27.1741H33.3509ZM35.1338 30.0203L35.0077 31.0123L35.4729 31.0715L35.599 30.0794L35.7251 29.0874L35.2599 29.0283L35.1338 30.0203ZM35.599 30.0794H34.599V30.7596H35.599H36.599V30.0794H35.599ZM35.599 30.7596L35.1427 29.8698C35.136 29.8732 35.1311 29.8751 35.1279 29.8761L35.4402 30.8261L35.7526 31.7761C35.8573 31.7416 35.9584 31.6991 36.0554 31.6494L35.599 30.7596ZM35.4402 30.8261V29.8261C35.3201 29.8261 35.2195 29.8451 35.1467 29.864C35.0766 29.8821 35.0205 29.9034 34.9953 29.9132C34.9836 29.9177 34.969 29.9235 34.9675 29.9241C34.9624 29.9261 34.9651 29.925 34.9704 29.923C34.9798 29.9196 35.0202 29.9049 35.0779 29.8934L35.2731 30.8742L35.4683 31.8549C35.5123 31.8462 35.5505 31.836 35.5817 31.8266C35.6127 31.8173 35.6391 31.8081 35.6586 31.8009C35.6776 31.7939 35.694 31.7875 35.7026 31.7841C35.7049 31.7832 35.7071 31.7823 35.7088 31.7816C35.7106 31.7809 35.7119 31.7804 35.7131 31.7799C35.7155 31.779 35.7161 31.7787 35.716 31.7788C35.7159 31.7788 35.7091 31.7815 35.6985 31.7851C35.6877 31.7888 35.6702 31.7944 35.6478 31.8002C35.6032 31.8117 35.5311 31.8261 35.4402 31.8261V30.8261ZM35.2731 30.8742L35.0779 29.8934C35.0595 29.8971 35.0425 29.9006 35.0286 29.9035C35.0131 29.9067 35.0039 29.9087 34.9934 29.9108C34.9735 29.9149 34.9683 29.9157 34.9684 29.9157L35.1227 30.9037L35.2769 31.8918C35.3504 31.8803 35.4575 31.8571 35.4683 31.8549L35.2731 30.8742ZM35.1227 30.9037V29.9037H35.0029V30.9037V31.9037H35.1227V30.9037ZM35.0029 30.9037L34.9026 29.9088C34.9591 29.9031 35.009 29.9147 35.0429 29.9305L34.6212 30.8372L34.1995 31.7439C34.4783 31.8736 34.788 31.9305 35.1032 31.8987L35.0029 30.9037ZM34.6212 30.8372L35.137 29.9805C35.2313 30.0372 35.2642 30.1006 35.2713 30.1164L34.3594 30.5267L33.4474 30.937C33.5773 31.2258 33.793 31.5058 34.1055 31.6939L34.6212 30.8372ZM34.3594 30.5267L35.2561 30.0842L34.3842 28.3173L33.4874 28.7598L32.5907 29.2024L33.4626 30.9692L34.3594 30.5267ZM33.4874 28.7598H34.4874V28.3791H33.4874H32.4874V28.7598H33.4874ZM33.4874 28.3791L34.385 28.8199L35.1929 27.175L34.2953 26.7342L33.3977 26.2933L32.5898 27.9382L33.4874 28.3791ZM34.2953 26.7342L35.2209 27.1126C35.2208 27.113 35.205 27.1525 35.1449 27.1981L34.5404 26.4015L33.936 25.6049C33.6689 25.8075 33.4834 26.0775 33.3696 26.3558L34.2953 26.7342ZM34.5404 26.4015L35.0781 27.2447C35.0172 27.2835 34.9266 27.3159 34.8182 27.3122L34.8524 26.3128L34.8867 25.3134C34.5627 25.3023 34.2581 25.3955 34.0027 25.5584L34.5404 26.4015ZM34.8524 26.3128L34.8622 27.3128C34.8587 27.3128 34.8555 27.3125 34.8529 27.3121C34.8504 27.3117 34.8492 27.3113 34.8495 27.3114C34.8499 27.3115 34.8588 27.3145 34.8749 27.3265L35.4709 26.5235L36.0669 25.7205C35.7191 25.4623 35.2964 25.3084 34.8427 25.3128L34.8524 26.3128ZM35.4709 26.5235L34.4733 26.4537L34.426 27.1301L35.4235 27.1999L36.4211 27.2698L36.4684 26.5933L35.4709 26.5235ZM35.4235 27.1999L35.3115 26.2062L34.8853 26.2543L34.9973 27.248L35.1093 28.2417L35.5356 28.1936L35.4235 27.1999ZM34.9973 27.248L34.1219 26.7647L33.4505 27.9808L34.3259 28.4641L35.2014 28.9474L35.8728 27.7313L34.9973 27.248ZM34.3259 28.4641L33.4384 28.9249L34.2463 30.481L35.1338 30.0203L36.0213 29.5595L35.2135 28.0034L34.3259 28.4641Z" fill="#D5C7AD" fill-opacity="0.5" mask="url(#path-31-inside-4_76_97)"/>
<mask id="path-33-inside-5_76_97" fill="white">
<path d="M38.4217 26.3867H40.0402V27.1667H39.6781V30.0572H40.0402V30.8446H38.444V30.0572H38.7643V28.3088L38.1264 29.0814L37.4912 29.8576V30.0572H37.8116V30.8446H36.1903V30.0572H36.5608V27.1667H36.1875V26.3867H37.806V27.1667H37.4857V28.8855L38.7616 27.3515V27.1667H38.4217V26.3867Z"/>
</mask>
<path d="M38.4217 26.3867H40.0402V27.1667H39.6781V30.0572H40.0402V30.8446H38.444V30.0572H38.7643V28.3088L38.1264 29.0814L37.4912 29.8576V30.0572H37.8116V30.8446H36.1903V30.0572H36.5608V27.1667H36.1875V26.3867H37.806V27.1667H37.4857V28.8855L38.7616 27.3515V27.1667H38.4217V26.3867Z" fill="#D5C7AD"/>
<path d="M38.4217 26.3867V25.3867H37.4217V26.3867H38.4217ZM40.0402 26.3867H41.0402V25.3867H40.0402V26.3867ZM40.0402 27.1667V28.1667H41.0402V27.1667H40.0402ZM39.6781 27.1667V26.1667H38.6781V27.1667H39.6781ZM39.6781 30.0572H38.6781V31.0572H39.6781V30.0572ZM40.0402 30.0572H41.0402V29.0572H40.0402V30.0572ZM40.0402 30.8446V31.8446H41.0402V30.8446H40.0402ZM38.444 30.8446H37.444V31.8446H38.444V30.8446ZM38.444 30.0572V29.0572H37.444V30.0572H38.444ZM38.7643 30.0572V31.0572H39.7643V30.0572H38.7643ZM38.7643 28.3088H39.7643V25.5273L37.9933 27.6721L38.7643 28.3088ZM38.1264 29.0814L37.3553 28.4447L37.3525 28.4481L38.1264 29.0814ZM37.4912 29.8576L36.7173 29.2244L36.4912 29.5007V29.8576H37.4912ZM37.4912 30.0572H36.4912V31.0572H37.4912V30.0572ZM37.8116 30.0572H38.8116V29.0572H37.8116V30.0572ZM37.8116 30.8446V31.8446H38.8116V30.8446H37.8116ZM36.1903 30.8446H35.1903V31.8446H36.1903V30.8446ZM36.1903 30.0572V29.0572H35.1903V30.0572H36.1903ZM36.5608 30.0572V31.0572H37.5608V30.0572H36.5608ZM36.5608 27.1667H37.5608V26.1667H36.5608V27.1667ZM36.1875 27.1667H35.1875V28.1667H36.1875V27.1667ZM36.1875 26.3867V25.3867H35.1875V26.3867H36.1875ZM37.806 26.3867H38.806V25.3867H37.806V26.3867ZM37.806 27.1667V28.1667H38.806V27.1667H37.806ZM37.4857 27.1667V26.1667H36.4857V27.1667H37.4857ZM37.4857 28.8855H36.4857V31.6516L38.2545 29.5249L37.4857 28.8855ZM38.7616 27.3515L39.5304 27.9909L39.7616 27.713V27.3515H38.7616ZM38.7616 27.1667H39.7616V26.1667H38.7616V27.1667ZM38.4217 27.1667H37.4217V28.1667H38.4217V27.1667ZM38.4217 26.3867V27.3867H40.0402V26.3867V25.3867H38.4217V26.3867ZM40.0402 26.3867H39.0402V27.1667H40.0402H41.0402V26.3867H40.0402ZM40.0402 27.1667V26.1667H39.6781V27.1667V28.1667H40.0402V27.1667ZM39.6781 27.1667H38.6781V30.0572H39.6781H40.6781V27.1667H39.6781ZM39.6781 30.0572V31.0572H40.0402V30.0572V29.0572H39.6781V30.0572ZM40.0402 30.0572H39.0402V30.8446H40.0402H41.0402V30.0572H40.0402ZM40.0402 30.8446V29.8446H38.444V30.8446V31.8446H40.0402V30.8446ZM38.444 30.8446H39.444V30.0572H38.444H37.444V30.8446H38.444ZM38.444 30.0572V31.0572H38.7643V30.0572V29.0572H38.444V30.0572ZM38.7643 30.0572H39.7643V28.3088H38.7643H37.7643V30.0572H38.7643ZM38.7643 28.3088L37.9933 27.6721L37.3553 28.4447L38.1264 29.0814L38.8975 29.7181L39.5354 28.9456L38.7643 28.3088ZM38.1264 29.0814L37.3525 28.4481L36.7173 29.2244L37.4912 29.8576L38.2652 30.4909L38.9003 29.7147L38.1264 29.0814ZM37.4912 29.8576H36.4912V30.0572H37.4912H38.4912V29.8576H37.4912ZM37.4912 30.0572V31.0572H37.8116V30.0572V29.0572H37.4912V30.0572ZM37.8116 30.0572H36.8116V30.8446H37.8116H38.8116V30.0572H37.8116ZM37.8116 30.8446V29.8446H36.1903V30.8446V31.8446H37.8116V30.8446ZM36.1903 30.8446H37.1903V30.0572H36.1903H35.1903V30.8446H36.1903ZM36.1903 30.0572V31.0572H36.5608V30.0572V29.0572H36.1903V30.0572ZM36.5608 30.0572H37.5608V27.1667H36.5608H35.5608V30.0572H36.5608ZM36.5608 27.1667V26.1667H36.1875V27.1667V28.1667H36.5608V27.1667ZM36.1875 27.1667H37.1875V26.3867H36.1875H35.1875V27.1667H36.1875ZM36.1875 26.3867V27.3867H37.806V26.3867V25.3867H36.1875V26.3867ZM37.806 26.3867H36.806V27.1667H37.806H38.806V26.3867H37.806ZM37.806 27.1667V26.1667H37.4857V27.1667V28.1667H37.806V27.1667ZM37.4857 27.1667H36.4857V28.8855H37.4857H38.4857V27.1667H37.4857ZM37.4857 28.8855L38.2545 29.5249L39.5304 27.9909L38.7616 27.3515L37.9927 26.712L36.7168 28.246L37.4857 28.8855ZM38.7616 27.3515H39.7616V27.1667H38.7616H37.7616V27.3515H38.7616ZM38.7616 27.1667V26.1667H38.4217V27.1667V28.1667H38.7616V27.1667ZM38.4217 27.1667H39.4217V26.3867H38.4217H37.4217V27.1667H38.4217Z" fill="#D5C7AD" fill-opacity="0.5" mask="url(#path-33-inside-5_76_97)"/>
<mask id="path-35-inside-6_76_97" fill="white">
<path d="M40.709 30.8483V30.0609H41.06V27.1741H40.7118V26.3867H43.7371V27.917H43.0964V27.1777H41.9988V28.198L43.0323 28.1462V28.9668L41.9988 28.9298V30.0646H43.1465V29.2588H43.7928V30.8483H40.709Z"/>
</mask>
<path d="M40.709 30.8483V30.0609H41.06V27.1741H40.7118V26.3867H43.7371V27.917H43.0964V27.1777H41.9988V28.198L43.0323 28.1462V28.9668L41.9988 28.9298V30.0646H43.1465V29.2588H43.7928V30.8483H40.709Z" fill="#D5C7AD"/>
<path d="M40.709 30.8483H39.709V31.8483H40.709V30.8483ZM40.709 30.0609V29.0609H39.709V30.0609H40.709ZM41.06 30.0609V31.0609H42.06V30.0609H41.06ZM41.06 27.1741H42.06V26.1741H41.06V27.1741ZM40.7118 27.1741H39.7118V28.1741H40.7118V27.1741ZM40.7118 26.3867V25.3867H39.7118V26.3867H40.7118ZM43.7371 26.3867H44.7371V25.3867H43.7371V26.3867ZM43.7371 27.917V28.917H44.7371V27.917H43.7371ZM43.0964 27.917H42.0964V28.917H43.0964V27.917ZM43.0964 27.1777H44.0964V26.1777H43.0964V27.1777ZM41.9988 27.1777V26.1777H40.9988V27.1777H41.9988ZM41.9988 28.198H40.9988V29.2493L42.0488 29.1967L41.9988 28.198ZM43.0323 28.1462H44.0323V27.0949L42.9823 27.1475L43.0323 28.1462ZM43.0323 28.9668L42.9966 29.9662L44.0323 30.0032V28.9668H43.0323ZM41.9988 28.9298L42.0345 27.9305L40.9988 27.8934V28.9298H41.9988ZM41.9988 30.0646H40.9988V31.0646H41.9988V30.0646ZM43.1465 30.0646V31.0646H44.1465V30.0646H43.1465ZM43.1465 29.2588V28.2588H42.1465V29.2588H43.1465ZM43.7928 29.2588H44.7928V28.2588H43.7928V29.2588ZM43.7928 30.8483V31.8483H44.7928V30.8483H43.7928ZM40.709 30.8483H41.709V30.0609H40.709H39.709V30.8483H40.709ZM40.709 30.0609V31.0609H41.06V30.0609V29.0609H40.709V30.0609ZM41.06 30.0609H42.06V27.1741H41.06H40.06V30.0609H41.06ZM41.06 27.1741V26.1741H40.7118V27.1741V28.1741H41.06V27.1741ZM40.7118 27.1741H41.7118V26.3867H40.7118H39.7118V27.1741H40.7118ZM40.7118 26.3867V27.3867H43.7371V26.3867V25.3867H40.7118V26.3867ZM43.7371 26.3867H42.7371V27.917H43.7371H44.7371V26.3867H43.7371ZM43.7371 27.917V26.917H43.0964V27.917V28.917H43.7371V27.917ZM43.0964 27.917H44.0964V27.1777H43.0964H42.0964V27.917H43.0964ZM43.0964 27.1777V26.1777H41.9988V27.1777V28.1777H43.0964V27.1777ZM41.9988 27.1777H40.9988V28.198H41.9988H42.9988V27.1777H41.9988ZM41.9988 28.198L42.0488 29.1967L43.0823 29.145L43.0323 28.1462L42.9823 27.1475L41.9488 27.1992L41.9988 28.198ZM43.0323 28.1462H42.0323V28.9668H43.0323H44.0323V28.1462H43.0323ZM43.0323 28.9668L43.0681 27.9674L42.0345 27.9305L41.9988 28.9298L41.9631 29.9292L42.9966 29.9662L43.0323 28.9668ZM41.9988 28.9298H40.9988V30.0646H41.9988H42.9988V28.9298H41.9988ZM41.9988 30.0646V31.0646H43.1465V30.0646V29.0646H41.9988V30.0646ZM43.1465 30.0646H44.1465V29.2588H43.1465H42.1465V30.0646H43.1465ZM43.1465 29.2588V30.2588H43.7928V29.2588V28.2588H43.1465V29.2588ZM43.7928 29.2588H42.7928V30.8483H43.7928H44.7928V29.2588H43.7928ZM43.7928 30.8483V29.8483H40.709V30.8483V31.8483H43.7928V30.8483Z" fill="#D5C7AD" fill-opacity="0.5" mask="url(#path-35-inside-6_76_97)"/>
<mask id="path-37-inside-7_76_97" fill="white">
<path d="M49.2199 27.7949C49.2208 27.974 49.1972 28.1519 49.1502 28.3198C49.102 28.4876 49.0291 28.6409 48.9357 28.7708C48.8335 28.9125 48.7089 29.0224 48.5708 29.0923C48.4066 29.1769 48.2314 29.2171 48.0554 29.2106H47.4983V30.0608H47.9412V30.8481H46.2168V30.0608H46.5567V27.1702H46.2168V26.3792H47.9774C48.1662 26.3753 48.3543 26.4115 48.5346 26.4864C48.6784 26.5461 48.8106 26.647 48.9218 26.7821C49.0191 26.9056 49.0935 27.0575 49.1391 27.2257C49.1896 27.4082 49.2169 27.6005 49.2199 27.7949ZM47.5038 27.1702V28.464H47.8019C47.8603 28.4689 47.9188 28.4573 47.9736 28.4299C48.0284 28.4025 48.0781 28.3599 48.1195 28.305C48.1937 28.1641 48.2335 27.9964 48.2335 27.8245C48.2335 27.6526 48.1937 27.4849 48.1195 27.344C48.0746 27.288 48.0215 27.245 47.9635 27.2176C47.9055 27.1903 47.8438 27.1792 47.7824 27.185L47.5038 27.1702Z"/>
</mask>
<path d="M49.2199 27.7949C49.2208 27.974 49.1972 28.1519 49.1502 28.3198C49.102 28.4876 49.0291 28.6409 48.9357 28.7708C48.8335 28.9125 48.7089 29.0224 48.5708 29.0923C48.4066 29.1769 48.2314 29.2171 48.0554 29.2106H47.4983V30.0608H47.9412V30.8481H46.2168V30.0608H46.5567V27.1702H46.2168V26.3792H47.9774C48.1662 26.3753 48.3543 26.4115 48.5346 26.4864C48.6784 26.5461 48.8106 26.647 48.9218 26.7821C49.0191 26.9056 49.0935 27.0575 49.1391 27.2257C49.1896 27.4082 49.2169 27.6005 49.2199 27.7949ZM47.5038 27.1702V28.464H47.8019C47.8603 28.4689 47.9188 28.4573 47.9736 28.4299C48.0284 28.4025 48.0781 28.3599 48.1195 28.305C48.1937 28.1641 48.2335 27.9964 48.2335 27.8245C48.2335 27.6526 48.1937 27.4849 48.1195 27.344C48.0746 27.288 48.0215 27.245 47.9635 27.2176C47.9055 27.1903 47.8438 27.1792 47.7824 27.185L47.5038 27.1702Z" fill="#D5C7AD"/>
<path d="M49.2199 27.7949L50.2199 27.7897L50.2198 27.7798L49.2199 27.7949ZM49.1502 28.3198L50.1114 28.5958L50.1132 28.5893L49.1502 28.3198ZM48.9357 28.7708L49.747 29.3555L49.7476 29.3546L48.9357 28.7708ZM48.5708 29.0923L48.1188 28.2003L48.1129 28.2033L48.5708 29.0923ZM48.0554 29.2106L48.0921 28.2113L48.0738 28.2106H48.0554V29.2106ZM47.4983 29.2106V28.2106H46.4983V29.2106H47.4983ZM47.4983 30.0608H46.4983V31.0608H47.4983V30.0608ZM47.9412 30.0608H48.9412V29.0608H47.9412V30.0608ZM47.9412 30.8481V31.8481H48.9412V30.8481H47.9412ZM46.2168 30.8481H45.2168V31.8481H46.2168V30.8481ZM46.2168 30.0608V29.0608H45.2168V30.0608H46.2168ZM46.5567 30.0608V31.0608H47.5567V30.0608H46.5567ZM46.5567 27.1702H47.5567V26.1702H46.5567V27.1702ZM46.2168 27.1702H45.2168V28.1702H46.2168V27.1702ZM46.2168 26.3792V25.3792H45.2168V26.3792H46.2168ZM47.9774 26.3792V27.3792H47.9877L47.9981 27.379L47.9774 26.3792ZM48.5346 26.4864L48.1508 27.4098L48.1512 27.41L48.5346 26.4864ZM48.9218 26.7821L49.7072 26.1631L49.7006 26.1547L49.6938 26.1465L48.9218 26.7821ZM49.1391 27.2257L48.1738 27.4871L48.1754 27.4926L49.1391 27.2257ZM47.5038 27.1702L47.5568 26.1716L46.5038 26.1157V27.1702H47.5038ZM47.5038 28.464H46.5038V29.464H47.5038V28.464ZM47.8019 28.464L47.886 27.4675L47.844 27.464H47.8019V28.464ZM48.1195 28.305L48.9178 28.9072L48.9666 28.8426L49.0043 28.7709L48.1195 28.305ZM48.1195 27.344L49.0043 26.8781L48.9596 26.7932L48.8996 26.7183L48.1195 27.344ZM47.7824 27.185L47.7294 28.1836L47.8033 28.1875L47.877 28.1805L47.7824 27.185ZM49.2199 27.7949L48.2199 27.8002C48.2203 27.889 48.2085 27.9743 48.1872 28.0503L49.1502 28.3198L50.1132 28.5893C50.1859 28.3295 50.2213 28.0591 50.2199 27.7897L49.2199 27.7949ZM49.1502 28.3198L48.1891 28.0438C48.1697 28.1112 48.1443 28.1584 48.1238 28.1869L48.9357 28.7708L49.7476 29.3546C49.9139 29.1233 50.0344 28.8639 50.1114 28.5958L49.1502 28.3198ZM48.9357 28.7708L48.1245 28.186C48.1144 28.2 48.1074 28.2066 48.1056 28.2082C48.1038 28.2098 48.1078 28.2059 48.1188 28.2003L48.5708 29.0923L49.0228 29.9844C49.3209 29.8333 49.5635 29.6101 49.747 29.3555L48.9357 28.7708ZM48.5708 29.0923L48.1129 28.2033C48.1025 28.2087 48.0961 28.2104 48.0938 28.211C48.0917 28.2114 48.0914 28.2113 48.0921 28.2113L48.0554 29.2106L48.0187 30.21C48.3747 30.223 48.7195 30.1406 49.0286 29.9814L48.5708 29.0923ZM48.0554 29.2106V28.2106H47.4983V29.2106V30.2106H48.0554V29.2106ZM47.4983 29.2106H46.4983V30.0608H47.4983H48.4983V29.2106H47.4983ZM47.4983 30.0608V31.0608H47.9412V30.0608V29.0608H47.4983V30.0608ZM47.9412 30.0608H46.9412V30.8481H47.9412H48.9412V30.0608H47.9412ZM47.9412 30.8481V29.8481H46.2168V30.8481V31.8481H47.9412V30.8481ZM46.2168 30.8481H47.2168V30.0608H46.2168H45.2168V30.8481H46.2168ZM46.2168 30.0608V31.0608H46.5567V30.0608V29.0608H46.2168V30.0608ZM46.5567 30.0608H47.5567V27.1702H46.5567H45.5567V30.0608H46.5567ZM46.5567 27.1702V26.1702H46.2168V27.1702V28.1702H46.5567V27.1702ZM46.2168 27.1702H47.2168V26.3792H46.2168H45.2168V27.1702H46.2168ZM46.2168 26.3792V27.3792H47.9774V26.3792V25.3792H46.2168V26.3792ZM47.9774 26.3792L47.9981 27.379C48.0436 27.378 48.0942 27.3863 48.1508 27.4098L48.5346 26.4864L48.9184 25.563C48.6144 25.4367 48.2889 25.3725 47.9568 25.3794L47.9774 26.3792ZM48.5346 26.4864L48.1512 27.41C48.1261 27.3996 48.1296 27.3932 48.1497 27.4177L48.9218 26.7821L49.6938 26.1465C49.4916 25.9009 49.2308 25.6926 48.9179 25.5628L48.5346 26.4864ZM48.9218 26.7821L48.1364 27.4011C48.1417 27.4079 48.1597 27.4349 48.1738 27.4871L49.1391 27.2257L50.1043 26.9643C50.0274 26.6801 49.8966 26.4034 49.7072 26.1631L48.9218 26.7821ZM49.1391 27.2257L48.1754 27.4926C48.2026 27.5909 48.2183 27.6985 48.22 27.81L49.2199 27.7949L50.2198 27.7798C50.2156 27.5026 50.1767 27.2255 50.1028 26.9587L49.1391 27.2257ZM47.5038 27.1702H46.5038V28.464H47.5038H48.5038V27.1702H47.5038ZM47.5038 28.464V29.464H47.8019V28.464V27.464H47.5038V28.464ZM47.8019 28.464L47.7178 29.4604C47.9678 29.4815 48.2096 29.43 48.4212 29.3241L47.9736 28.4299L47.526 27.5356C47.628 27.4846 47.7528 27.4563 47.886 27.4675L47.8019 28.464ZM47.9736 28.4299L48.4212 29.3241C48.6299 29.2196 48.7951 29.07 48.9178 28.9072L48.1195 28.305L47.3212 27.7028C47.3611 27.6498 47.4268 27.5853 47.526 27.5356L47.9736 28.4299ZM48.1195 28.305L49.0043 28.7709C49.1601 28.4751 49.2335 28.1455 49.2335 27.8245H48.2335H47.2335C47.2335 27.8338 47.2323 27.8412 47.2313 27.8456C47.2302 27.8501 47.2302 27.8477 47.2346 27.8391L48.1195 28.305ZM48.2335 27.8245H49.2335C49.2335 27.5035 49.1601 27.1739 49.0043 26.8781L48.1195 27.344L47.2346 27.8098C47.2302 27.8013 47.2302 27.7989 47.2313 27.8034C47.2323 27.8077 47.2335 27.8151 47.2335 27.8245H48.2335ZM48.1195 27.344L48.8996 26.7183C48.771 26.5579 48.6011 26.4127 48.39 26.3131L47.9635 27.2176L47.537 28.1221C47.4419 28.0773 47.3783 28.0181 47.3393 27.9696L48.1195 27.344ZM47.9635 27.2176L48.39 26.3131C48.1763 26.2124 47.9352 26.166 47.6878 26.1895L47.7824 27.185L47.877 28.1805C47.7524 28.1924 47.6346 28.1682 47.537 28.1221L47.9635 27.2176ZM47.7824 27.185L47.8354 26.1864L47.5568 26.1716L47.5038 27.1702L47.4508 28.1688L47.7294 28.1836L47.7824 27.185Z" fill="#D5C7AD" fill-opacity="0.5" mask="url(#path-37-inside-7_76_97)"/>
<mask id="path-39-inside-8_76_97" fill="white">
<path d="M49.8047 30.8483V30.0609H50.1446V27.1741H49.8103V26.3867H52.8384V27.917H52.1949V27.1777H51.0973V28.198L52.1308 28.1462V28.9668L51.0973 28.9298V30.0646H52.2422V29.2588H52.8913V30.8483H49.8047Z"/>
</mask>
<path d="M49.8047 30.8483V30.0609H50.1446V27.1741H49.8103V26.3867H52.8384V27.917H52.1949V27.1777H51.0973V28.198L52.1308 28.1462V28.9668L51.0973 28.9298V30.0646H52.2422V29.2588H52.8913V30.8483H49.8047Z" fill="#D5C7AD"/>
<path d="M49.8047 30.8483H48.8047V31.8483H49.8047V30.8483ZM49.8047 30.0609V29.0609H48.8047V30.0609H49.8047ZM50.1446 30.0609V31.0609H51.1446V30.0609H50.1446ZM50.1446 27.1741H51.1446V26.1741H50.1446V27.1741ZM49.8103 27.1741H48.8103V28.1741H49.8103V27.1741ZM49.8103 26.3867V25.3867H48.8103V26.3867H49.8103ZM52.8384 26.3867H53.8384V25.3867H52.8384V26.3867ZM52.8384 27.917V28.917H53.8384V27.917H52.8384ZM52.1949 27.917H51.1949V28.917H52.1949V27.917ZM52.1949 27.1777H53.1949V26.1777H52.1949V27.1777ZM51.0973 27.1777V26.1777H50.0973V27.1777H51.0973ZM51.0973 28.198H50.0973V29.2493L51.1473 29.1967L51.0973 28.198ZM52.1308 28.1462H53.1308V27.0949L52.0808 27.1475L52.1308 28.1462ZM52.1308 28.9668L52.0951 29.9662L53.1308 30.0032V28.9668H52.1308ZM51.0973 28.9298L51.133 27.9305L50.0973 27.8934V28.9298H51.0973ZM51.0973 30.0646H50.0973V31.0646H51.0973V30.0646ZM52.2422 30.0646V31.0646H53.2422V30.0646H52.2422ZM52.2422 29.2588V28.2588H51.2422V29.2588H52.2422ZM52.8913 29.2588H53.8913V28.2588H52.8913V29.2588ZM52.8913 30.8483V31.8483H53.8913V30.8483H52.8913ZM49.8047 30.8483H50.8047V30.0609H49.8047H48.8047V30.8483H49.8047ZM49.8047 30.0609V31.0609H50.1446V30.0609V29.0609H49.8047V30.0609ZM50.1446 30.0609H51.1446V27.1741H50.1446H49.1446V30.0609H50.1446ZM50.1446 27.1741V26.1741H49.8103V27.1741V28.1741H50.1446V27.1741ZM49.8103 27.1741H50.8103V26.3867H49.8103H48.8103V27.1741H49.8103ZM49.8103 26.3867V27.3867H52.8384V26.3867V25.3867H49.8103V26.3867ZM52.8384 26.3867H51.8384V27.917H52.8384H53.8384V26.3867H52.8384ZM52.8384 27.917V26.917H52.1949V27.917V28.917H52.8384V27.917ZM52.1949 27.917H53.1949V27.1777H52.1949H51.1949V27.917H52.1949ZM52.1949 27.1777V26.1777H51.0973V27.1777V28.1777H52.1949V27.1777ZM51.0973 27.1777H50.0973V28.198H51.0973H52.0973V27.1777H51.0973ZM51.0973 28.198L51.1473 29.1967L52.1808 29.145L52.1308 28.1462L52.0808 27.1475L51.0473 27.1992L51.0973 28.198ZM52.1308 28.1462H51.1308V28.9668H52.1308H53.1308V28.1462H52.1308ZM52.1308 28.9668L52.1666 27.9674L51.133 27.9305L51.0973 28.9298L51.0615 29.9292L52.0951 29.9662L52.1308 28.9668ZM51.0973 28.9298H50.0973V30.0646H51.0973H52.0973V28.9298H51.0973ZM51.0973 30.0646V31.0646H52.2422V30.0646V29.0646H51.0973V30.0646ZM52.2422 30.0646H53.2422V29.2588H52.2422H51.2422V30.0646H52.2422ZM52.2422 29.2588V30.2588H52.8913V29.2588V28.2588H52.2422V29.2588ZM52.8913 29.2588H51.8913V30.8483H52.8913H53.8913V29.2588H52.8913ZM52.8913 30.8483V29.8483H49.8047V30.8483V31.8483H52.8913V30.8483Z" fill="#D5C7AD" fill-opacity="0.5" mask="url(#path-39-inside-8_76_97)"/>
<path d="M54.549 28.5861C54.5455 28.8089 54.5642 29.0314 54.6047 29.2477C54.6342 29.4036 54.6926 29.5471 54.7746 29.6654C54.8514 29.7693 54.9475 29.8446 55.0532 29.8835C55.1891 29.9262 55.3286 29.946 55.4683 29.9426H55.6187L55.8193 29.9168L56.0394 29.8761C56.107 29.8634 56.174 29.8449 56.2399 29.8207L56.3764 30.6745C56.2917 30.7168 56.2052 30.7526 56.1174 30.7817C56.0226 30.815 55.9251 30.8409 55.8388 30.8631C55.7524 30.8852 55.6382 30.9 55.5379 30.9111C55.4376 30.9222 55.3401 30.9111 55.2593 30.9111C54.9743 30.924 54.6901 30.8612 54.4236 30.7263C54.2209 30.6178 54.0425 30.4422 53.9054 30.2162C53.7767 29.9991 53.6863 29.7465 53.6408 29.4769C53.5923 29.1906 53.568 28.898 53.5684 28.6046C53.5689 28.3222 53.5932 28.0407 53.6408 27.7655C53.6935 27.4958 53.7884 27.2439 53.9194 27.0262C54.0626 26.7906 54.2472 26.6053 54.457 26.4865C54.7368 26.3343 55.038 26.2637 55.3401 26.2795C55.5043 26.2779 55.6682 26.2939 55.8304 26.3276C55.9791 26.3593 56.1262 26.4038 56.2706 26.4606V27.8948H55.6215V27.248C55.5774 27.2345 55.5327 27.2246 55.4878 27.2184H55.354C55.2276 27.2131 55.1018 27.2459 54.9863 27.3145C54.8893 27.3753 54.8065 27.4698 54.7468 27.588C54.6773 27.718 54.628 27.865 54.6019 28.0205C54.5691 28.206 54.5513 28.3956 54.549 28.5861Z" fill="#D5C7AD"/>
<path d="M54.1631 29.5342C54.2096 29.6819 54.2754 29.8233 54.3633 29.9502L54.3682 29.9561L54.3721 29.9629C54.498 30.1333 54.6699 30.2751 54.8799 30.3525L54.9033 30.3604C54.9669 30.3803 55.0317 30.3954 55.0967 30.4082C54.9491 30.3963 54.8008 30.3551 54.6553 30.2822C54.5452 30.2221 54.4317 30.1174 54.3359 29.9609C54.2623 29.8368 54.2027 29.6926 54.1631 29.5342Z" stroke="#D5C7AD" stroke-opacity="0.5"/>
<mask id="path-43-inside-9_76_97" fill="white">
<path d="M57.6372 30.8479V30.0605H58.0384V27.1699H57.5314V27.9314H56.8906V26.3789H60.1054V27.9314H59.4647V27.1699H58.9632V30.0605H59.3588V30.8479H57.6372Z"/>
</mask>
<path d="M57.6372 30.8479V30.0605H58.0384V27.1699H57.5314V27.9314H56.8906V26.3789H60.1054V27.9314H59.4647V27.1699H58.9632V30.0605H59.3588V30.8479H57.6372Z" fill="#D5C7AD"/>
<path d="M57.6372 30.8479H56.6372V31.8479H57.6372V30.8479ZM57.6372 30.0605V29.0605H56.6372V30.0605H57.6372ZM58.0384 30.0605V31.0605H59.0384V30.0605H58.0384ZM58.0384 27.1699H59.0384V26.1699H58.0384V27.1699ZM57.5314 27.1699V26.1699H56.5314V27.1699H57.5314ZM57.5314 27.9314V28.9314H58.5314V27.9314H57.5314ZM56.8906 27.9314H55.8906V28.9314H56.8906V27.9314ZM56.8906 26.3789V25.3789H55.8906V26.3789H56.8906ZM60.1054 26.3789H61.1054V25.3789H60.1054V26.3789ZM60.1054 27.9314V28.9314H61.1054V27.9314H60.1054ZM59.4647 27.9314H58.4647V28.9314H59.4647V27.9314ZM59.4647 27.1699H60.4647V26.1699H59.4647V27.1699ZM58.9632 27.1699V26.1699H57.9632V27.1699H58.9632ZM58.9632 30.0605H57.9632V31.0605H58.9632V30.0605ZM59.3588 30.0605H60.3588V29.0605H59.3588V30.0605ZM59.3588 30.8479V31.8479H60.3588V30.8479H59.3588ZM57.6372 30.8479H58.6372V30.0605H57.6372H56.6372V30.8479H57.6372ZM57.6372 30.0605V31.0605H58.0384V30.0605V29.0605H57.6372V30.0605ZM58.0384 30.0605H59.0384V27.1699H58.0384H57.0384V30.0605H58.0384ZM58.0384 27.1699V26.1699H57.5314V27.1699V28.1699H58.0384V27.1699ZM57.5314 27.1699H56.5314V27.9314H57.5314H58.5314V27.1699H57.5314ZM57.5314 27.9314V26.9314H56.8906V27.9314V28.9314H57.5314V27.9314ZM56.8906 27.9314H57.8906V26.3789H56.8906H55.8906V27.9314H56.8906ZM56.8906 26.3789V27.3789H60.1054V26.3789V25.3789H56.8906V26.3789ZM60.1054 26.3789H59.1054V27.9314H60.1054H61.1054V26.3789H60.1054ZM60.1054 27.9314V26.9314H59.4647V27.9314V28.9314H60.1054V27.9314ZM59.4647 27.9314H60.4647V27.1699H59.4647H58.4647V27.9314H59.4647ZM59.4647 27.1699V26.1699H58.9632V27.1699V28.1699H59.4647V27.1699ZM58.9632 27.1699H57.9632V30.0605H58.9632H59.9632V27.1699H58.9632ZM58.9632 30.0605V31.0605H59.3588V30.0605V29.0605H58.9632V30.0605ZM59.3588 30.0605H58.3588V30.8479H59.3588H60.3588V30.0605H59.3588ZM59.3588 30.8479V29.8479H57.6372V30.8479V31.8479H59.3588V30.8479Z" fill="#D5C7AD" fill-opacity="0.5" mask="url(#path-43-inside-9_76_97)"/>
<path d="M64.0727 28.6025C64.075 28.9151 64.0383 29.2262 63.964 29.5229C63.8995 29.796 63.7923 30.0479 63.6492 30.2622C63.5031 30.4736 63.3232 30.639 63.1227 30.7464C62.8897 30.8686 62.6406 30.9277 62.3901 30.9201C62.1343 30.9292 61.8796 30.8714 61.6407 30.7501C61.4399 30.6449 61.2591 30.4821 61.1114 30.2732C60.9646 30.0626 60.8569 29.8095 60.7966 29.534C60.7255 29.2326 60.6907 28.9182 60.6935 28.6025C60.6913 28.2916 60.7261 27.9822 60.7966 27.6858C60.8596 27.4126 60.966 27.1605 61.1086 26.9465C61.2536 26.7298 61.4349 26.5614 61.6379 26.4549C62.1235 26.2182 62.6566 26.2182 63.1422 26.4549C63.3426 26.5641 63.5216 26.7322 63.6659 26.9465C63.8058 27.1619 63.9102 27.4137 63.9724 27.6858C64.0411 27.9827 64.075 28.2919 64.0727 28.6025V28.6025ZM63.067 28.6025C63.068 28.4145 63.0587 28.2268 63.0391 28.0406C63.0228 27.8796 62.9861 27.7234 62.9305 27.5786C62.8829 27.4514 62.812 27.3421 62.7243 27.2607C62.6241 27.1787 62.5076 27.1388 62.3901 27.1461C62.2705 27.1404 62.1523 27.1816 62.0502 27.2644C61.9584 27.3455 61.8837 27.4561 61.8329 27.586C61.7754 27.7303 61.7368 27.8865 61.7187 28.048C61.6982 28.2316 61.6879 28.4169 61.688 28.6025C61.686 28.8068 61.6982 29.011 61.7243 29.2124C61.7437 29.3721 61.7842 29.526 61.844 29.667C61.8965 29.7854 61.9714 29.8836 62.0613 29.9517C62.1625 30.0221 62.2758 30.0565 62.3901 30.0515C62.5005 30.0553 62.6095 30.0182 62.7048 29.9443C62.7934 29.871 62.8655 29.7676 62.9138 29.6449C62.9734 29.5041 63.0131 29.35 63.0308 29.1902C63.0533 28.9983 63.0626 28.804 63.0586 28.6099L63.067 28.6025Z" fill="#D5C7AD"/>
<path d="M63.5605 28.3008C63.5683 28.3995 63.573 28.4989 63.5723 28.5986L64.0723 28.6025L63.5723 28.6064C63.5734 28.761 63.5625 28.9146 63.542 29.0654C63.5479 28.9897 63.5524 28.9139 63.5547 28.8379L63.5654 28.8291L63.5674 28.6055C63.5679 28.5039 63.5655 28.4021 63.5605 28.3008Z" stroke="#D5C7AD" stroke-opacity="0.5"/>
<mask id="path-47-inside-10_76_97" fill="white">
<path d="M67.7648 27.7948C67.7657 27.9739 67.7421 28.1518 67.6951 28.3197C67.647 28.4875 67.574 28.6408 67.4806 28.7707C67.3785 28.9124 67.2538 29.0223 67.1157 29.0923C66.9516 29.1768 66.7763 29.217 66.6003 29.2105H66.0432V30.0607H66.4861V30.848H64.7617V30.0607H65.1016V27.1701H64.7617V26.3791H66.5223C66.7111 26.3759 66.8991 26.4121 67.0795 26.4863C67.2222 26.5468 67.3534 26.6477 67.4639 26.782C67.5613 26.9055 67.6357 27.0574 67.6812 27.2256C67.7327 27.4078 67.761 27.6002 67.7648 27.7948V27.7948ZM66.0487 27.1701V28.4639H66.3468C66.4052 28.4688 66.4638 28.4572 66.5185 28.4298C66.5733 28.4024 66.623 28.3598 66.6644 28.3049C66.7386 28.164 66.7784 27.9963 66.7784 27.8244C66.7784 27.6525 66.7386 27.4848 66.6644 27.3439C66.6195 27.2879 66.5664 27.2449 66.5084 27.2175C66.4504 27.1902 66.3887 27.1791 66.3273 27.1849L66.0487 27.1701Z"/>
</mask>
<path d="M67.7648 27.7948C67.7657 27.9739 67.7421 28.1518 67.6951 28.3197C67.647 28.4875 67.574 28.6408 67.4806 28.7707C67.3785 28.9124 67.2538 29.0223 67.1157 29.0923C66.9516 29.1768 66.7763 29.217 66.6003 29.2105H66.0432V30.0607H66.4861V30.848H64.7617V30.0607H65.1016V27.1701H64.7617V26.3791H66.5223C66.7111 26.3759 66.8991 26.4121 67.0795 26.4863C67.2222 26.5468 67.3534 26.6477 67.4639 26.782C67.5613 26.9055 67.6357 27.0574 67.6812 27.2256C67.7327 27.4078 67.761 27.6002 67.7648 27.7948V27.7948ZM66.0487 27.1701V28.4639H66.3468C66.4052 28.4688 66.4638 28.4572 66.5185 28.4298C66.5733 28.4024 66.623 28.3598 66.6644 28.3049C66.7386 28.164 66.7784 27.9963 66.7784 27.8244C66.7784 27.6525 66.7386 27.4848 66.6644 27.3439C66.6195 27.2879 66.5664 27.2449 66.5084 27.2175C66.4504 27.1902 66.3887 27.1791 66.3273 27.1849L66.0487 27.1701Z" fill="#D5C7AD"/>
<path d="M67.6951 28.3197L68.6563 28.5957L68.6582 28.5892L67.6951 28.3197ZM67.4806 28.7707L68.2919 29.3554L68.2925 29.3545L67.4806 28.7707ZM67.1157 29.0923L66.6637 28.2002L66.6579 28.2032L67.1157 29.0923ZM66.6003 29.2105L66.637 28.2112L66.6187 28.2105H66.6003V29.2105ZM66.0432 29.2105V28.2105H65.0432V29.2105H66.0432ZM66.0432 30.0607H65.0432V31.0607H66.0432V30.0607ZM66.4861 30.0607H67.4861V29.0607H66.4861V30.0607ZM66.4861 30.848V31.848H67.4861V30.848H66.4861ZM64.7617 30.848H63.7617V31.848H64.7617V30.848ZM64.7617 30.0607V29.0607H63.7617V30.0607H64.7617ZM65.1016 30.0607V31.0607H66.1016V30.0607H65.1016ZM65.1016 27.1701H66.1016V26.1701H65.1016V27.1701ZM64.7617 27.1701H63.7617V28.1701H64.7617V27.1701ZM64.7617 26.3791V25.3791H63.7617V26.3791H64.7617ZM66.5223 26.3791V27.3791H66.5308L66.5393 27.379L66.5223 26.3791ZM67.0795 26.4863L67.4699 25.5656L67.4601 25.5616L67.0795 26.4863ZM67.4639 26.782L68.2493 26.163L68.2428 26.1547L68.2361 26.1465L67.4639 26.782ZM67.6812 27.2256L66.7159 27.487L66.7189 27.4975L67.6812 27.2256ZM66.0487 27.1701L66.1018 26.1715L65.0487 26.1156V27.1701H66.0487ZM66.0487 28.4639H65.0487V29.4639H66.0487V28.4639ZM66.3468 28.4639L66.431 27.4674L66.389 27.4639H66.3468V28.4639ZM66.6644 28.3049L67.4627 28.9072L67.5115 28.8425L67.5493 28.7708L66.6644 28.3049ZM66.6644 27.3439L67.5493 26.878L67.5046 26.7931L67.4445 26.7183L66.6644 27.3439ZM66.3273 27.1849L66.2743 28.1835L66.3482 28.1874L66.4219 28.1804L66.3273 27.1849ZM67.7648 27.7948L66.7648 27.8001C66.7653 27.8889 66.7534 27.9742 66.7321 28.0503L67.6951 28.3197L68.6582 28.5892C68.7308 28.3294 68.7662 28.059 68.7648 27.7896L67.7648 27.7948ZM67.6951 28.3197L66.734 28.0437C66.7146 28.1111 66.6893 28.1583 66.6688 28.1868L67.4806 28.7707L68.2925 29.3545C68.4588 29.1232 68.5793 28.8639 68.6563 28.5957L67.6951 28.3197ZM67.4806 28.7707L66.6694 28.1859C66.6593 28.1999 66.6523 28.2065 66.6505 28.2081C66.6487 28.2097 66.6527 28.2058 66.6637 28.2002L67.1157 29.0923L67.5677 29.9843C67.8658 29.8332 68.1084 29.61 68.2919 29.3554L67.4806 28.7707ZM67.1157 29.0923L66.6579 28.2032C66.6474 28.2086 66.641 28.2104 66.6388 28.2109C66.6367 28.2113 66.6364 28.2112 66.637 28.2112L66.6003 29.2105L66.5637 30.2099C66.9196 30.2229 67.2644 30.1405 67.5735 29.9813L67.1157 29.0923ZM66.6003 29.2105V28.2105H66.0432V29.2105V30.2105H66.6003V29.2105ZM66.0432 29.2105H65.0432V30.0607H66.0432H67.0432V29.2105H66.0432ZM66.0432 30.0607V31.0607H66.4861V30.0607V29.0607H66.0432V30.0607ZM66.4861 30.0607H65.4861V30.848H66.4861H67.4861V30.0607H66.4861ZM66.4861 30.848V29.848H64.7617V30.848V31.848H66.4861V30.848ZM64.7617 30.848H65.7617V30.0607H64.7617H63.7617V30.848H64.7617ZM64.7617 30.0607V31.0607H65.1016V30.0607V29.0607H64.7617V30.0607ZM65.1016 30.0607H66.1016V27.1701H65.1016H64.1016V30.0607H65.1016ZM65.1016 27.1701V26.1701H64.7617V27.1701V28.1701H65.1016V27.1701ZM64.7617 27.1701H65.7617V26.3791H64.7617H63.7617V27.1701H64.7617ZM64.7617 26.3791V27.3791H66.5223V26.3791V25.3791H64.7617V26.3791ZM66.5223 26.3791L66.5393 27.379C66.5874 27.3781 66.6403 27.3869 66.6988 27.411L67.0795 26.4863L67.4601 25.5616C67.158 25.4372 66.8349 25.3736 66.5053 25.3792L66.5223 26.3791ZM67.0795 26.4863L66.6891 27.407C66.6662 27.3973 66.6711 27.3923 66.6918 27.4175L67.4639 26.782L68.2361 26.1465C68.0357 25.9031 67.7783 25.6964 67.4698 25.5656L67.0795 26.4863ZM67.4639 26.782L66.6786 27.401C66.6839 27.4078 66.7019 27.4348 66.716 27.487L67.6812 27.2256L68.6465 26.9642C68.5695 26.68 68.4387 26.4033 68.2493 26.163L67.4639 26.782ZM67.6812 27.2256L66.7189 27.4975C66.7465 27.5954 66.7628 27.7029 66.765 27.8145L67.7648 27.7948L68.7646 27.7751C68.7591 27.4976 68.7189 27.2203 68.6435 26.9537L67.6812 27.2256ZM66.0487 27.1701H65.0487V28.4639H66.0487H67.0487V27.1701H66.0487ZM66.0487 28.4639V29.4639H66.3468V28.4639V27.4639H66.0487V28.4639ZM66.3468 28.4639L66.2627 29.4603C66.5128 29.4814 66.7546 29.4299 66.9661 29.324L66.5185 28.4298L66.071 27.5355C66.173 27.4845 66.2977 27.4562 66.431 27.4674L66.3468 28.4639ZM66.5185 28.4298L66.9661 29.324C67.1748 29.2196 67.34 29.0699 67.4627 28.9072L66.6644 28.3049L65.8661 27.7027C65.906 27.6497 65.9717 27.5852 66.071 27.5355L66.5185 28.4298ZM66.6644 28.3049L67.5493 28.7708C67.705 28.475 67.7784 28.1454 67.7784 27.8244H66.7784H65.7784C65.7784 27.8337 65.7772 27.8412 65.7762 27.8455C65.7751 27.85 65.7751 27.8476 65.7796 27.8391L66.6644 28.3049ZM66.7784 27.8244H67.7784C67.7784 27.5034 67.705 27.1738 67.5493 26.878L66.6644 27.3439L65.7796 27.8097C65.7751 27.8012 65.7751 27.7988 65.7762 27.8033C65.7772 27.8076 65.7784 27.815 65.7784 27.8244H66.7784ZM66.6644 27.3439L67.4445 26.7183C67.3159 26.5578 67.146 26.4126 66.9349 26.3131L66.5084 27.2175L66.0819 28.122C65.9869 28.0772 65.9232 28.018 65.8843 27.9695L66.6644 27.3439ZM66.5084 27.2175L66.9349 26.3131C66.7213 26.2123 66.4801 26.1659 66.2328 26.1894L66.3273 27.1849L66.4219 28.1804C66.2973 28.1923 66.1795 28.1681 66.0819 28.122L66.5084 27.2175ZM66.3273 27.1849L66.3803 26.1863L66.1018 26.1715L66.0487 27.1701L65.9957 28.1687L66.2743 28.1835L66.3273 27.1849Z" fill="#D5C7AD" fill-opacity="0.5" mask="url(#path-47-inside-10_76_97)"/>
<mask id="path-49-inside-11_76_97" fill="white">
<path d="M70.3577 30.0609L70.2518 29.6063H69.1375L69.0261 30.0609H69.3242V30.8483H67.8867V30.0609H68.1486L69.1737 26.3867H70.3271L71.2937 30.0609H71.5723V30.8483H70.0819V30.0609H70.3577ZM70.0791 28.8633C70.0234 28.6046 69.9649 28.3532 69.9064 28.124C69.8479 27.8949 69.7894 27.625 69.7309 27.3847H69.7114C69.7114 27.4624 69.6724 27.5622 69.6445 27.6842C69.6167 27.8061 69.5833 27.9392 69.547 28.0797L69.4356 28.4641C69.4022 28.6083 69.3687 28.7376 69.3381 28.8559L70.0791 28.8633Z"/>
</mask>
<path d="M70.3577 30.0609L70.2518 29.6063H69.1375L69.0261 30.0609H69.3242V30.8483H67.8867V30.0609H68.1486L69.1737 26.3867H70.3271L71.2937 30.0609H71.5723V30.8483H70.0819V30.0609H70.3577ZM70.0791 28.8633C70.0234 28.6046 69.9649 28.3532 69.9064 28.124C69.8479 27.8949 69.7894 27.625 69.7309 27.3847H69.7114C69.7114 27.4624 69.6724 27.5622 69.6445 27.6842C69.6167 27.8061 69.5833 27.9392 69.547 28.0797L69.4356 28.4641C69.4022 28.6083 69.3687 28.7376 69.3381 28.8559L70.0791 28.8633Z" fill="#D5C7AD"/>
<path d="M70.3577 30.0609V31.0609H71.6173L71.3316 29.8342L70.3577 30.0609ZM70.2518 29.6063L71.2258 29.3795L71.0458 28.6063H70.2518V29.6063ZM69.1375 29.6063V28.6063H68.353L68.1663 29.3682L69.1375 29.6063ZM69.0261 30.0609L68.0548 29.8229L67.7514 31.0609H69.0261V30.0609ZM69.3242 30.0609H70.3242V29.0609H69.3242V30.0609ZM69.3242 30.8483V31.8483H70.3242V30.8483H69.3242ZM67.8867 30.8483H66.8867V31.8483H67.8867V30.8483ZM67.8867 30.0609V29.0609H66.8867V30.0609H67.8867ZM68.1486 30.0609V31.0609H68.9078L69.1118 30.3297L68.1486 30.0609ZM69.1737 26.3867V25.3867H68.4146L68.2105 26.118L69.1737 26.3867ZM70.3271 26.3867L71.2941 26.1323L71.098 25.3867H70.3271V26.3867ZM71.2937 30.0609L70.3266 30.3154L70.5228 31.0609H71.2937V30.0609ZM71.5723 30.0609H72.5723V29.0609H71.5723V30.0609ZM71.5723 30.8483V31.8483H72.5723V30.8483H71.5723ZM70.0819 30.8483H69.0819V31.8483H70.0819V30.8483ZM70.0819 30.0609V29.0609H69.0819V30.0609H70.0819ZM70.0791 28.8633L70.0691 29.8633L71.32 29.8757L71.0567 28.6528L70.0791 28.8633ZM69.7309 27.3847L70.7025 27.1482L70.5166 26.3847H69.7309V27.3847ZM69.7114 27.3847V26.3847H68.7114V27.3847H69.7114ZM69.547 28.0797L70.5075 28.3581L70.5117 28.3438L70.5154 28.3293L69.547 28.0797ZM69.4356 28.4641L68.4751 28.1857L68.4676 28.2118L68.4615 28.2382L69.4356 28.4641ZM69.3381 28.8559L68.3701 28.6051L68.0493 29.8431L69.3281 29.8559L69.3381 28.8559ZM70.3577 30.0609L71.3316 29.8342L71.2258 29.3795L70.2518 29.6063L69.2779 29.8331L69.3838 30.2877L70.3577 30.0609ZM70.2518 29.6063V28.6063H69.1375V29.6063V30.6063H70.2518V29.6063ZM69.1375 29.6063L68.1663 29.3682L68.0548 29.8229L69.0261 30.0609L69.9974 30.299L70.1088 29.8443L69.1375 29.6063ZM69.0261 30.0609V31.0609H69.3242V30.0609V29.0609H69.0261V30.0609ZM69.3242 30.0609H68.3242V30.8483H69.3242H70.3242V30.0609H69.3242ZM69.3242 30.8483V29.8483H67.8867V30.8483V31.8483H69.3242V30.8483ZM67.8867 30.8483H68.8867V30.0609H67.8867H66.8867V30.8483H67.8867ZM67.8867 30.0609V31.0609H68.1486V30.0609V29.0609H67.8867V30.0609ZM68.1486 30.0609L69.1118 30.3297L70.137 26.6555L69.1737 26.3867L68.2105 26.118L67.1854 29.7922L68.1486 30.0609ZM69.1737 26.3867V27.3867H70.3271V26.3867V25.3867H69.1737V26.3867ZM70.3271 26.3867L69.36 26.6412L70.3266 30.3154L71.2937 30.0609L72.2608 29.8065L71.2941 26.1323L70.3271 26.3867ZM71.2937 30.0609V31.0609H71.5723V30.0609V29.0609H71.2937V30.0609ZM71.5723 30.0609H70.5723V30.8483H71.5723H72.5723V30.0609H71.5723ZM71.5723 30.8483V29.8483H70.0819V30.8483V31.8483H71.5723V30.8483ZM70.0819 30.8483H71.0819V30.0609H70.0819H69.0819V30.8483H70.0819ZM70.0819 30.0609V31.0609H70.3577V30.0609V29.0609H70.0819V30.0609ZM70.0791 28.8633L71.0567 28.6528C70.9988 28.3841 70.9375 28.1202 70.8753 27.8767L69.9064 28.124L68.9375 28.3714C68.9923 28.5862 69.048 28.8251 69.1015 29.0738L70.0791 28.8633ZM69.9064 28.124L70.8753 27.8767C70.8151 27.6407 70.7731 27.4381 70.7025 27.1482L69.7309 27.3847L68.7593 27.6213C68.8057 27.8119 68.8807 28.149 68.9375 28.3714L69.9064 28.124ZM69.7309 27.3847V26.3847H69.7114V27.3847V28.3847H69.7309V27.3847ZM69.7114 27.3847H68.7114C68.7114 27.3236 68.7188 27.2802 68.7215 27.2657C68.7242 27.2508 68.726 27.2459 68.7218 27.2615C68.72 27.2684 68.7177 27.2769 68.7142 27.2895C68.7111 27.3006 68.7065 27.3172 68.7021 27.3333C68.693 27.3667 68.6811 27.4112 68.6696 27.4615L69.6445 27.6842L70.6194 27.9068C70.6287 27.8663 70.6302 27.8678 70.655 27.7741C70.6641 27.7398 70.6774 27.6878 70.6883 27.6286C70.6991 27.5697 70.7114 27.4848 70.7114 27.3847H69.7114ZM69.6445 27.6842L68.6696 27.4615C68.6449 27.5697 68.6143 27.692 68.5787 27.83L69.547 28.0797L70.5154 28.3293C70.5522 28.1865 70.5884 28.0426 70.6194 27.9068L69.6445 27.6842ZM69.547 28.0797L68.5866 27.8013L68.4751 28.1857L69.4356 28.4641L70.3961 28.7425L70.5075 28.3581L69.547 28.0797ZM69.4356 28.4641L68.4615 28.2382C68.4313 28.3685 68.4008 28.4866 68.3701 28.6051L69.3381 28.8559L70.3061 29.1067C70.3367 28.9887 70.3731 28.8481 70.4098 28.69L69.4356 28.4641ZM69.3381 28.8559L69.3281 29.8559L70.0691 29.8633L70.0791 28.8633L70.0891 27.8634L69.3481 27.856L69.3381 28.8559Z" fill="#D5C7AD" fill-opacity="0.5" mask="url(#path-49-inside-11_76_97)"/>
<mask id="path-51-inside-12_76_97" fill="white">
<path d="M74.2681 30.8483V30.0609H74.5745V28.9225H73.424V30.0609H73.7304V30.8483H72.123V30.0609H72.4824V27.1741H72.123V26.3867H73.7304V27.1741H73.424V28.1832H74.5745V27.1741H74.2681V26.3867H75.8671V27.1741H75.5161V30.0609H75.8671V30.8483H74.2681Z"/>
</mask>
<path d="M74.2681 30.8483V30.0609H74.5745V28.9225H73.424V30.0609H73.7304V30.8483H72.123V30.0609H72.4824V27.1741H72.123V26.3867H73.7304V27.1741H73.424V28.1832H74.5745V27.1741H74.2681V26.3867H75.8671V27.1741H75.5161V30.0609H75.8671V30.8483H74.2681Z" fill="#D5C7AD"/>
<path d="M74.2681 30.8483H73.2681V31.8483H74.2681V30.8483ZM74.2681 30.0609V29.0609H73.2681V30.0609H74.2681ZM74.5745 30.0609V31.0609H75.5745V30.0609H74.5745ZM74.5745 28.9225H75.5745V27.9225H74.5745V28.9225ZM73.424 28.9225V27.9225H72.424V28.9225H73.424ZM73.424 30.0609H72.424V31.0609H73.424V30.0609ZM73.7304 30.0609H74.7304V29.0609H73.7304V30.0609ZM73.7304 30.8483V31.8483H74.7304V30.8483H73.7304ZM72.123 30.8483H71.123V31.8483H72.123V30.8483ZM72.123 30.0609V29.0609H71.123V30.0609H72.123ZM72.4824 30.0609V31.0609H73.4824V30.0609H72.4824ZM72.4824 27.1741H73.4824V26.1741H72.4824V27.1741ZM72.123 27.1741H71.123V28.1741H72.123V27.1741ZM72.123 26.3867V25.3867H71.123V26.3867H72.123ZM73.7304 26.3867H74.7304V25.3867H73.7304V26.3867ZM73.7304 27.1741V28.1741H74.7304V27.1741H73.7304ZM73.424 27.1741V26.1741H72.424V27.1741H73.424ZM73.424 28.1832H72.424V29.1832H73.424V28.1832ZM74.5745 28.1832V29.1832H75.5745V28.1832H74.5745ZM74.5745 27.1741H75.5745V26.1741H74.5745V27.1741ZM74.2681 27.1741H73.2681V28.1741H74.2681V27.1741ZM74.2681 26.3867V25.3867H73.2681V26.3867H74.2681ZM75.8671 26.3867H76.8671V25.3867H75.8671V26.3867ZM75.8671 27.1741V28.1741H76.8671V27.1741H75.8671ZM75.5161 27.1741V26.1741H74.5161V27.1741H75.5161ZM75.5161 30.0609H74.5161V31.0609H75.5161V30.0609ZM75.8671 30.0609H76.8671V29.0609H75.8671V30.0609ZM75.8671 30.8483V31.8483H76.8671V30.8483H75.8671ZM74.2681 30.8483H75.2681V30.0609H74.2681H73.2681V30.8483H74.2681ZM74.2681 30.0609V31.0609H74.5745V30.0609V29.0609H74.2681V30.0609ZM74.5745 30.0609H75.5745V28.9225H74.5745H73.5745V30.0609H74.5745ZM74.5745 28.9225V27.9225H73.424V28.9225V29.9225H74.5745V28.9225ZM73.424 28.9225H72.424V30.0609H73.424H74.424V28.9225H73.424ZM73.424 30.0609V31.0609H73.7304V30.0609V29.0609H73.424V30.0609ZM73.7304 30.0609H72.7304V30.8483H73.7304H74.7304V30.0609H73.7304ZM73.7304 30.8483V29.8483H72.123V30.8483V31.8483H73.7304V30.8483ZM72.123 30.8483H73.123V30.0609H72.123H71.123V30.8483H72.123ZM72.123 30.0609V31.0609H72.4824V30.0609V29.0609H72.123V30.0609ZM72.4824 30.0609H73.4824V27.1741H72.4824H71.4824V30.0609H72.4824ZM72.4824 27.1741V26.1741H72.123V27.1741V28.1741H72.4824V27.1741ZM72.123 27.1741H73.123V26.3867H72.123H71.123V27.1741H72.123ZM72.123 26.3867V27.3867H73.7304V26.3867V25.3867H72.123V26.3867ZM73.7304 26.3867H72.7304V27.1741H73.7304H74.7304V26.3867H73.7304ZM73.7304 27.1741V26.1741H73.424V27.1741V28.1741H73.7304V27.1741ZM73.424 27.1741H72.424V28.1832H73.424H74.424V27.1741H73.424ZM73.424 28.1832V29.1832H74.5745V28.1832V27.1832H73.424V28.1832ZM74.5745 28.1832H75.5745V27.1741H74.5745H73.5745V28.1832H74.5745ZM74.5745 27.1741V26.1741H74.2681V27.1741V28.1741H74.5745V27.1741ZM74.2681 27.1741H75.2681V26.3867H74.2681H73.2681V27.1741H74.2681ZM74.2681 26.3867V27.3867H75.8671V26.3867V25.3867H74.2681V26.3867ZM75.8671 26.3867H74.8671V27.1741H75.8671H76.8671V26.3867H75.8671ZM75.8671 27.1741V26.1741H75.5161V27.1741V28.1741H75.8671V27.1741ZM75.5161 27.1741H74.5161V30.0609H75.5161H76.5161V27.1741H75.5161ZM75.5161 30.0609V31.0609H75.8671V30.0609V29.0609H75.5161V30.0609ZM75.8671 30.0609H74.8671V30.8483H75.8671H76.8671V30.0609H75.8671ZM75.8671 30.8483V29.8483H74.2681V30.8483V31.8483H75.8671V30.8483Z" fill="#D5C7AD" fill-opacity="0.5" mask="url(#path-51-inside-12_76_97)"/>
<path d="M78.1916 27.1699H77.835V28.0608H78.4367C78.5996 28.0606 78.762 28.0829 78.9214 28.1273C79.0701 28.1693 79.2117 28.247 79.3393 28.3565C79.4625 28.467 79.5638 28.6154 79.6346 28.789C79.7149 28.9928 79.7542 29.2207 79.7488 29.4506C79.753 29.6642 79.7245 29.8767 79.6652 30.0753C79.6136 30.2426 79.5324 30.3909 79.4285 30.5078C79.3192 30.6273 79.1919 30.7143 79.0552 30.7628C78.8967 30.8229 78.7324 30.8516 78.5677 30.8479H76.5396V30.0605H76.8878V27.1699H76.5312V26.3789H78.1832L78.1916 27.1699ZM77.835 28.8333V30.0568H78.3141C78.373 30.0595 78.4317 30.0466 78.4868 30.0186C78.5418 29.9907 78.592 29.9484 78.6345 29.8942C78.677 29.8325 78.7097 29.7602 78.7308 29.6815C78.7518 29.6028 78.7608 29.5192 78.7571 29.4358C78.7613 29.3537 78.7523 29.2714 78.7307 29.1943C78.709 29.1172 78.6753 29.0471 78.6317 28.9886C78.5403 28.8823 78.4216 28.8267 78.3002 28.8333H77.835ZM79.9522 30.8479V30.0605H80.3032V27.1699H79.9522V26.3863H81.5902V27.1699H81.2448V30.0605H81.5902V30.8479H79.9522Z" fill="#D5C7AD"/>
<path d="M79.2236 29.7646C79.2139 29.8203 79.203 29.875 79.1875 29.9277C79.1547 30.034 79.1063 30.1165 79.0557 30.1738C79.0499 30.18 79.0429 30.1847 79.0371 30.1904L79.0459 30.1777C79.1236 30.065 79.1793 29.9396 79.2139 29.8105C79.2179 29.7954 79.2202 29.7799 79.2236 29.7646Z" stroke="#D5C7AD" stroke-opacity="0.5"/>
<path d="M3.29883 21.1797H87.0811" stroke="#D5C7AD" stroke-opacity="0.5" stroke-miterlimit="10"/>
<path d="M3.29883 36.125H87.0811" stroke="#D5C7AD" stroke-opacity="0.5" stroke-miterlimit="10"/>
<path d="M5.75308 30.1495C6.33618 30.1495 6.80889 29.5223 6.80889 28.7486C6.80889 27.9749 6.33618 27.3477 5.75308 27.3477C5.16997 27.3477 4.69727 27.9749 4.69727 28.7486C4.69727 29.5223 5.16997 30.1495 5.75308 30.1495Z" fill="#D5C7AD"/>
<path d="M5.75293 27.8477C5.85285 27.8477 5.98101 27.9 6.10059 28.0586C6.22036 28.2175 6.30859 28.4605 6.30859 28.749C6.3085 29.0374 6.2203 29.2796 6.10059 29.4385C5.98099 29.5972 5.85286 29.6494 5.75293 29.6494C5.65309 29.6494 5.52572 29.5968 5.40625 29.4385C5.28653 29.2796 5.19735 29.0374 5.19727 28.749C5.19727 28.4605 5.28647 28.2175 5.40625 28.0586C5.5257 27.9003 5.6531 27.8477 5.75293 27.8477Z" stroke="#D5C7AD" stroke-opacity="0.5"/>
<path d="M84.966 30.1495C85.5491 30.1495 86.0218 29.5223 86.0218 28.7486C86.0218 27.9749 85.5491 27.3477 84.966 27.3477C84.3829 27.3477 83.9102 27.9749 83.9102 28.7486C83.9102 29.5223 84.3829 30.1495 84.966 30.1495Z" fill="#D5C7AD"/>
<path d="M84.9658 27.8477C85.0657 27.8477 85.1939 27.9 85.3135 28.0586C85.4333 28.2175 85.5215 28.4605 85.5215 28.749C85.5214 29.0374 85.4332 29.2796 85.3135 29.4385C85.1939 29.5972 85.0657 29.6494 84.9658 29.6494C84.866 29.6494 84.7386 29.5968 84.6191 29.4385C84.4994 29.2796 84.4102 29.0374 84.4102 28.749C84.4102 28.4605 84.4994 28.2175 84.6191 28.0586C84.7386 27.9003 84.866 27.8477 84.9658 27.8477Z" stroke="#D5C7AD" stroke-opacity="0.5"/>
</svg>
