<svg width="72" height="48" viewBox="0 0 72 48" fill="none" xmlns="http://www.w3.org/2000/svg">
<path d="M20.9419 27.122C19.9449 27.1042 18.956 27.3601 18.0372 27.8736C17.1185 28.387 16.2897 29.147 15.603 30.1056C14.1894 32.0319 13.3984 34.6137 13.3984 37.3017C13.3984 39.9896 14.1894 42.5714 15.603 44.4978C16.2899 45.4561 17.1186 46.2159 18.0374 46.7293C18.9561 47.2427 19.945 47.4988 20.9419 47.4814C22.7108 47.49 24.4238 46.6595 25.7714 45.1399C25.8185 45.0878 25.8564 45.0227 25.8824 44.949C25.9084 44.8753 25.9218 44.795 25.9217 44.7137V43.7283C25.9222 43.6184 25.898 43.5108 25.8521 43.4191C25.8063 43.3275 25.7409 43.2561 25.6643 43.2139C25.5878 43.1717 25.5035 43.1608 25.4222 43.1824C25.3409 43.204 25.2663 43.2573 25.2079 43.3353C24.6713 44.072 24.0267 44.6552 23.3138 45.0491C22.6009 45.4429 21.8347 45.6392 21.0624 45.6257C20.2902 45.6122 19.5281 45.3893 18.8233 44.9707C18.1184 44.552 17.4856 43.9465 16.9638 43.1914C16.3917 42.4131 15.9424 41.4914 15.6421 40.4801C15.3418 39.4688 15.1965 38.3883 15.2148 37.3017C15.1874 35.1073 15.8162 32.9877 16.9638 31.4064C17.4862 30.6524 18.1194 30.048 18.8244 29.6303C19.5293 29.2126 20.2913 28.9904 21.0633 28.9774C21.8354 28.9645 22.6014 29.161 23.3141 29.5549C24.0268 29.9488 24.6713 30.5318 25.2079 31.268C25.2663 31.3461 25.3409 31.3993 25.4222 31.421C25.5035 31.4426 25.5878 31.4316 25.6643 31.3895C25.7409 31.3473 25.8063 31.2758 25.8521 31.1842C25.898 31.0926 25.9222 30.9849 25.9217 30.875V29.8897C25.9218 29.8084 25.9084 29.728 25.8824 29.6543C25.8564 29.5807 25.8185 29.5155 25.7714 29.4635C24.4247 27.9417 22.7111 27.1109 20.9419 27.122V27.122Z" fill="#D5C7AD"/>
<path d="M20.9453 27.6221C22.5477 27.6122 24.1299 28.363 25.3965 29.7939V29.7949L25.4004 29.7988C25.4007 29.7993 25.4015 29.8003 25.4023 29.8018C25.4045 29.8055 25.4081 29.8118 25.4111 29.8203C25.4174 29.8381 25.4219 29.862 25.4219 29.8887V30.7256C24.8858 30.0519 24.2553 29.5039 23.5557 29.1172C22.7708 28.6835 21.9189 28.463 21.0547 28.4775C20.1905 28.4921 19.3442 28.7411 18.5693 29.2002C17.7985 29.6569 17.1168 30.3106 16.5596 31.1123C15.3437 32.7877 14.6893 35.0101 14.7148 37.293C14.6957 38.4289 14.8479 39.5605 15.1631 40.6221C15.4783 41.6834 15.9514 42.6585 16.5605 43.4873V43.4863C17.1169 44.2885 17.7981 44.9429 18.5684 45.4004C19.3431 45.8605 20.1893 46.1109 21.0537 46.126C21.9183 46.1411 22.7705 45.9201 23.5557 45.4863C24.2556 45.0996 24.8858 44.5511 25.4219 43.877V44.7139L25.4111 44.7832L25.4004 44.8047L25.3975 44.8086C24.1297 46.2381 22.5473 46.9892 20.9443 46.9814H20.9336C20.03 46.9972 19.1273 46.7658 18.2812 46.293C17.434 45.8195 16.6589 45.1119 16.0098 44.2061L16.0059 44.2021L15.7607 43.8516C14.5702 42.0623 13.8985 39.7349 13.8984 37.3018C13.8984 34.7064 14.663 32.2313 16.0059 30.4014L16.0098 30.3965C16.6587 29.4906 17.4341 28.783 18.2812 28.3096C19.1271 27.8369 20.0293 27.6061 20.9326 27.6221L20.9414 27.1221L20.9453 27.6221Z" stroke="#D5C7AD" stroke-opacity="0.5"/>
<path d="M35.7194 45.1374H33.5989V32.1512C33.5989 32.0044 33.5549 31.8636 33.4766 31.7598C33.3983 31.656 33.2922 31.5977 33.1815 31.5977H32.476C32.3653 31.5977 32.2591 31.656 32.1809 31.7598C32.1026 31.8636 32.0586 32.0044 32.0586 32.1512V46.239C32.0586 46.3858 32.1026 46.5266 32.1809 46.6304C32.2591 46.7342 32.3653 46.7925 32.476 46.7925H35.7194C35.8301 46.7925 35.9363 46.7342 36.0145 46.6304C36.0928 46.5266 36.1368 46.3858 36.1368 46.239V45.6854C36.1357 45.5396 36.0912 45.4002 36.0131 45.2976C35.9349 45.1949 35.8294 45.1374 35.7194 45.1374V45.1374Z" fill="#D5C7AD"/>
<path d="M33.0908 32.0977C33.0945 32.1119 33.0986 32.1297 33.0986 32.1514V45.6377H35.6299L35.6367 45.6895V46.2393C35.6367 46.261 35.6326 46.2788 35.6289 46.293H32.5664C32.5627 46.2788 32.5586 46.261 32.5586 46.2393V32.1514C32.5586 32.1297 32.5627 32.1118 32.5664 32.0977H33.0908Z" stroke="#D5C7AD" stroke-opacity="0.5"/>
<path d="M47.715 31.5977H47.0137C46.903 31.5977 46.7969 31.656 46.7186 31.7598C46.6403 31.8636 46.5963 32.0044 46.5963 32.1512V42.6243C46.613 43.3296 46.423 44.016 46.0662 44.5396C45.9011 44.7852 45.6975 44.9798 45.4696 45.1099C45.2417 45.2399 44.9951 45.3022 44.7471 45.2924C44.4996 45.2872 44.2555 45.2136 44.0306 45.0763C43.8056 44.9391 43.6047 44.7412 43.4406 44.4953C43.2512 44.2532 43.1009 43.9624 42.999 43.6407C42.8971 43.319 42.8457 42.9732 42.8479 42.6243V32.1512C42.8479 32.0044 42.8039 31.8636 42.7256 31.7598C42.6473 31.656 42.5412 31.5977 42.4305 31.5977H42.0464C41.9357 31.5977 41.8295 31.656 41.7513 31.7598C41.673 31.8636 41.629 32.0044 41.629 32.1512V42.6243C41.6256 43.19 41.7077 43.7508 41.8704 44.2737C42.0332 44.7966 42.2733 45.271 42.5766 45.6688C42.8758 46.0738 43.233 46.3956 43.6272 46.6153C44.0214 46.835 44.4448 46.9481 44.8724 46.9481C45.3 46.9481 45.7233 46.835 46.1175 46.6153C46.5117 46.3956 46.8689 46.0738 47.1682 45.6688C47.4749 45.2732 47.7183 44.7998 47.884 44.2767C48.0496 43.7536 48.1341 43.1916 48.1324 42.6243V32.1512C48.1324 32.0044 48.0884 31.8636 48.0102 31.7598C47.9319 31.656 47.8257 31.5977 47.715 31.5977Z" fill="#D5C7AD"/>
<path d="M42.3398 32.0977C42.3435 32.1119 42.3477 32.1297 42.3477 32.1514V42.6211C42.3451 43.0205 42.4042 43.4188 42.5225 43.792C42.6406 44.1649 42.8173 44.5103 43.0469 44.8037V44.8027C43.2429 45.0882 43.4865 45.3296 43.7705 45.5029C44.0632 45.6814 44.3893 45.7822 44.7275 45.791V45.792C45.0745 45.8057 45.4135 45.7176 45.7178 45.5439C46.0206 45.3711 46.279 45.1196 46.4814 44.8184L46.4805 44.8174C46.8993 44.2012 47.1122 43.4161 47.0957 42.624H47.0967V32.1514C47.0967 32.1297 47.1008 32.1119 47.1045 32.0977H47.624C47.6277 32.1119 47.6328 32.1297 47.6328 32.1514V42.626C47.6344 43.1433 47.5567 43.6539 47.4072 44.126C47.2577 44.598 47.0405 45.0177 46.7734 45.3623H46.7725L46.7656 45.3721C46.5039 45.7262 46.199 45.9976 45.874 46.1787C45.55 46.3592 45.2097 46.4482 44.8721 46.4482C44.5347 46.4482 44.1949 46.3591 43.8711 46.1787C43.5461 45.9976 43.2403 45.7264 42.9785 45.3721L42.9746 45.3652L42.877 45.2324C42.6565 44.9128 42.4763 44.5384 42.3477 44.125C42.2007 43.6528 42.1258 43.1429 42.1289 42.627V32.1514C42.1289 32.1297 42.1331 32.1118 42.1367 32.0977H42.3398Z" stroke="#D5C7AD" stroke-opacity="0.5"/>
<path d="M57.6048 39.9495C57.3795 39.5164 57.0966 39.1412 56.77 38.8424C57.0313 38.5778 57.2595 38.2602 57.4462 37.9014C57.7601 37.2913 57.9421 36.579 57.9725 35.8415C58.0029 35.1041 57.8806 34.3697 57.6187 33.7179C57.3568 33.0661 56.9654 32.5218 56.4869 32.1439C56.0084 31.7661 55.461 31.5691 54.9041 31.5743H54.1987C54.088 31.5743 53.9818 31.6326 53.9035 31.7364C53.8252 31.8403 53.7812 31.9811 53.7812 32.1279V46.2378C53.7812 46.3846 53.8252 46.5254 53.9035 46.6292C53.9818 46.733 54.088 46.7913 54.1987 46.7913H54.9041C55.5049 46.7939 56.0946 46.5777 56.6091 46.1663C57.1236 45.7549 57.543 45.1641 57.8216 44.4582C58.1002 43.7524 58.2273 42.9587 58.1891 42.1636C58.1509 41.3686 57.9488 40.6027 57.6048 39.9495V39.9495ZM55.3424 38.001V33.2903C55.7473 33.4109 56.1093 33.7107 56.3687 34.1402C56.6281 34.5698 56.7697 35.1036 56.77 35.654C56.7751 35.971 56.7303 36.2859 56.6383 36.5785C56.5463 36.8712 56.4091 37.1351 56.2357 37.3533C55.9926 37.6814 55.6818 37.9067 55.3424 38.001V38.001ZM55.3424 45.0532V39.8554C55.6927 39.9584 56.016 40.1835 56.2788 40.5075C56.5416 40.8315 56.7345 41.2427 56.8374 41.6985C56.9404 42.1544 56.9497 42.6384 56.8645 43.1007C56.7792 43.5629 56.6025 43.9866 56.3526 44.328C56.079 44.6999 55.7268 44.9528 55.3424 45.0532Z" fill="#D5C7AD"/>
<path d="M54.9092 32.0742C55.3408 32.0703 55.7789 32.222 56.1768 32.5361C56.577 32.8522 56.9199 33.321 57.1543 33.9043C57.3884 34.4871 57.5003 35.1509 57.4727 35.8213C57.445 36.4908 57.2805 37.1307 57.0029 37.6709C56.8373 37.9892 56.6373 38.2652 56.4141 38.4912L56.0488 38.8604L56.4326 39.2109C56.7119 39.4665 56.96 39.7941 57.1611 40.1807L57.6045 39.9492L57.1621 40.1826C57.4694 40.7662 57.6544 41.4597 57.6895 42.1875C57.7244 42.9152 57.6077 43.6378 57.3564 44.2744C57.105 44.9115 56.7334 45.4263 56.2969 45.7754C55.8625 46.1228 55.3815 46.2931 54.9062 46.291H54.2891C54.2854 46.2769 54.2812 46.2588 54.2812 46.2373V32.1279C54.2812 32.1062 54.2854 32.0884 54.2891 32.0742H54.9092ZM54.8428 45.7002L55.4688 45.5371C55.9815 45.4032 56.425 45.0725 56.7549 44.624L56.7559 44.623C57.0549 44.2145 57.2591 43.7193 57.3564 43.1914C57.4539 42.663 57.4431 42.1101 57.3252 41.5879C57.2073 41.0663 56.9837 40.5829 56.667 40.1924C56.3498 39.8014 55.9443 39.5115 55.4834 39.376L54.8428 39.1875V45.7002ZM54.8428 38.001H55.3428L55.4766 38.4824C55.9397 38.3537 56.3394 38.0539 56.6377 37.6514L56.6357 37.6504C56.846 37.3823 57.0084 37.0683 57.1152 36.7285C57.2239 36.383 57.2755 36.0143 57.2695 35.6455C57.2678 35.0161 57.1065 34.3945 56.7969 33.8818C56.486 33.367 56.0311 32.9742 55.4854 32.8115L54.8428 32.6201V38.001Z" stroke="#D5C7AD" stroke-opacity="0.5"/>
<path d="M4.86325 8.69635C4.09991 8.43069 3.37201 8.0106 2.70518 7.45087C2.43857 7.23465 2.21832 6.93121 2.06556 6.56966C1.91279 6.20811 1.83263 5.80058 1.83277 5.38614C1.81114 4.46204 2.06108 3.56293 2.52986 2.87858C2.74602 2.5545 3.0132 2.29729 3.31252 2.12513C3.61185 1.95296 3.93602 1.87003 4.26216 1.8822C4.60357 1.87398 4.94252 1.96032 5.25734 2.1357C5.57215 2.31108 5.85591 2.57164 6.09047 2.90072C6.33692 3.22106 6.53143 3.60479 6.66207 4.02837C6.7927 4.45195 6.85671 4.90645 6.85017 5.364C6.85017 5.51081 6.89415 5.65161 6.97243 5.75542C7.05071 5.85923 7.15689 5.91755 7.26759 5.91755H7.80189C7.9126 5.91755 8.01877 5.85923 8.09705 5.75542C8.17533 5.65161 8.21931 5.51081 8.21931 5.364C8.22786 4.66447 8.13027 3.9698 7.93236 3.32127C7.73445 2.67274 7.44024 2.08358 7.06723 1.58882C6.70571 1.08688 6.27002 0.689197 5.78738 0.420611C5.30475 0.152026 4.78553 0.0183105 4.26216 0.0278173C3.7402 0.0198362 3.22257 0.154293 2.74145 0.422832C2.26033 0.691371 1.826 1.08825 1.46544 1.58882C1.08881 2.08085 0.791395 2.66913 0.591213 3.31804C0.391031 3.96695 0.292245 4.66299 0.300836 5.364C0.288657 6.72356 0.68169 8.03453 1.39448 9.01187C2.10293 9.96478 2.99073 10.649 3.96579 10.9936C5.91932 11.7409 6.88774 12.9254 6.88774 14.6193C6.91476 15.6327 6.65069 16.6219 6.1489 17.387C5.92064 17.7457 5.63434 18.0315 5.3113 18.2231C4.98826 18.4148 4.63679 18.5074 4.28303 18.4941C3.90868 18.5052 3.53671 18.4124 3.19096 18.2218C2.84521 18.0312 2.5333 17.7468 2.27524 17.387C2.00385 17.0321 1.78986 16.6076 1.64632 16.1393C1.50279 15.6711 1.43272 15.1689 1.4404 14.6636C1.4404 14.5168 1.39642 14.376 1.31814 14.2722C1.23985 14.1684 1.13368 14.11 1.02297 14.11H0.417714C0.307007 14.11 0.200834 14.1684 0.122553 14.2722C0.0442712 14.376 0.000293 14.5168 0.000293 14.6636C-0.00638134 15.4158 0.101034 16.1621 0.316157 16.8582C0.53128 17.5543 0.84972 18.1859 1.25256 18.7155C1.64057 19.2563 2.10841 19.6852 2.62692 19.9757C3.14543 20.2662 3.70349 20.4119 4.26634 20.4039C4.82866 20.4128 5.3863 20.2675 5.90423 19.9769C6.42216 19.6864 6.88918 19.2569 7.27594 18.7155C7.67943 18.1877 7.99834 17.5572 8.21352 16.8618C8.42871 16.1665 8.53575 15.4207 8.52821 14.6691C8.51986 11.6578 7.28846 9.66506 4.86325 8.69635Z" fill="#D5C7AD"/>
<path d="M4.27148 0.527344C4.70159 0.519576 5.13409 0.629399 5.54395 0.857422C5.95502 1.08618 6.3374 1.43146 6.66113 1.88086L6.66797 1.88965C7.00255 2.33344 7.27164 2.86906 7.4541 3.4668C7.63646 4.06436 7.72761 4.7079 7.71973 5.35742V5.36426C7.7197 5.38606 7.71465 5.40375 7.71094 5.41797H7.3584L7.35059 5.36426C7.35711 4.85838 7.28555 4.35392 7.13965 3.88086C6.995 3.41192 6.77792 2.97918 6.49707 2.61035H6.49805C6.22578 2.22836 5.88792 1.91486 5.50098 1.69922C5.12163 1.48789 4.70543 1.37802 4.28027 1.38281H4.12207C3.75223 1.39593 3.39223 1.50238 3.06348 1.69141C2.69092 1.90569 2.37006 2.21812 2.11719 2.5957C1.6493 3.27876 1.38162 4.13372 1.33789 5.01758L1.33301 5.38574C1.33285 5.86329 1.42522 6.33806 1.60547 6.76465C1.7843 7.1877 2.04829 7.55877 2.38379 7.83301V7.83398C3.08734 8.4245 3.86073 8.87271 4.67773 9.16016V9.16113C5.80295 9.6106 6.62675 10.2856 7.17578 11.1787C7.72784 12.0768 8.02433 13.2317 8.02832 14.6709V14.6738C8.03536 15.3752 7.93566 16.0697 7.73633 16.7139C7.53689 17.3583 7.24336 17.9353 6.87891 18.4121L6.87402 18.418L6.86914 18.4248C6.51993 18.9136 6.10567 19.2905 5.65918 19.541C5.214 19.7907 4.7432 19.9118 4.27441 19.9043L4.2666 19.9033L4.25879 19.9043C3.78904 19.911 3.31716 19.7889 2.87109 19.5391C2.42391 19.2885 2.00955 18.9121 1.65918 18.4238L1.65039 18.4131L1.51758 18.2285C1.21487 17.7884 0.968471 17.2755 0.793945 16.7109C0.594532 16.0657 0.493768 15.3703 0.5 14.668V14.6641C0.5 14.6426 0.504197 14.6245 0.507812 14.6104H0.932617L0.94043 14.6641C0.932849 15.2172 1.00942 15.7689 1.16797 16.2861C1.3256 16.8003 1.56304 17.2741 1.86914 17.6777V17.6787C2.16514 18.0913 2.53105 18.4285 2.94922 18.6592C3.35898 18.8851 3.80744 19.0007 4.26465 18.9932V18.9941C4.7203 19.0112 5.1661 18.8908 5.56641 18.6533C5.96365 18.4176 6.3021 18.0738 6.56641 17.6602L6.56738 17.6611C7.06058 16.909 7.34106 15.9788 7.38379 15.0186L7.3877 14.6064C7.38523 13.6618 7.11043 12.8323 6.54785 12.1367C5.98936 11.4463 5.17415 10.9202 4.14453 10.5264L4.13281 10.5225L3.80957 10.3926C3.06501 10.0574 2.37328 9.48982 1.79785 8.7168H1.79883C1.15715 7.8369 0.78944 6.6342 0.800781 5.36816V5.35742C0.792856 4.70697 0.885078 4.06321 1.06934 3.46582C1.25375 2.86803 1.52493 2.33332 1.8623 1.89258L1.86719 1.88672L1.87109 1.88086C2.194 1.4326 2.57546 1.08816 2.98535 0.859375C3.39409 0.631276 3.8258 0.520783 4.25488 0.527344L4.2627 0.52832L4.27148 0.527344Z" stroke="#D5C7AD" stroke-opacity="0.5"/>
<path d="M18.3382 18.0124H16.2177V5.0262C16.2177 4.87939 16.1738 4.7386 16.0955 4.63479C16.0172 4.53098 15.911 4.47266 15.8003 4.47266H15.0991C14.9884 4.47266 14.8822 4.53098 14.8039 4.63479C14.7256 4.7386 14.6816 4.87939 14.6816 5.0262V19.114C14.6816 19.2608 14.7256 19.4016 14.8039 19.5054C14.8822 19.6092 14.9884 19.6675 15.0991 19.6675H18.3382C18.449 19.6675 18.5551 19.6092 18.6334 19.5054C18.7117 19.4016 18.7557 19.2608 18.7557 19.114V18.5604C18.7546 18.4146 18.7101 18.2752 18.6319 18.1726C18.5538 18.07 18.4482 18.0124 18.3382 18.0124Z" fill="#D5C7AD"/>
<path d="M15.71 4.97266C15.7136 4.98685 15.7178 5.00473 15.7178 5.02637V18.5127H18.248L18.2559 18.5645V19.1143C18.2558 19.136 18.2517 19.1538 18.248 19.168H15.1895C15.1858 19.1538 15.1817 19.136 15.1816 19.1143V5.02637C15.1816 5.00473 15.1858 4.98685 15.1895 4.97266H15.71Z" stroke="#D5C7AD" stroke-opacity="0.5"/>
<path d="M26.1053 4.47266H25.3998C25.1693 4.47266 24.9824 4.72049 24.9824 5.0262V19.114C24.9824 19.4197 25.1693 19.6675 25.3998 19.6675H26.1053C26.3358 19.6675 26.5227 19.4197 26.5227 19.114V5.0262C26.5227 4.72049 26.3358 4.47266 26.1053 4.47266Z" fill="#D5C7AD"/>
<path d="M26.0146 4.97266C26.0183 4.98671 26.0225 5.00445 26.0225 5.02637V19.1143C26.0224 19.1363 26.0183 19.1539 26.0146 19.168H25.4902C25.4866 19.1539 25.4824 19.1362 25.4824 19.1143V5.02637C25.4824 5.00448 25.4866 4.9867 25.4902 4.97266H26.0146Z" stroke="#D5C7AD" stroke-opacity="0.5"/>
<path d="M37.0461 3.80475C36.9467 3.80283 36.85 3.84806 36.7735 3.93229C36.697 4.01652 36.6456 4.13422 36.6287 4.26419L36.1487 7.85117L35.6812 4.26419C35.6643 4.13422 35.6129 4.01652 35.5364 3.93229C35.4599 3.84806 35.3632 3.80283 35.2638 3.80475C35.1643 3.80283 35.0676 3.84806 34.9911 3.93229C34.9146 4.01652 34.8632 4.13422 34.8463 4.26419L32.8928 19.0217C32.8824 19.1019 32.8854 19.1841 32.9016 19.2625C32.9179 19.341 32.947 19.4137 32.9868 19.4755C33.0267 19.5374 33.0763 19.5868 33.1322 19.6203C33.1881 19.6538 33.2489 19.6706 33.3102 19.6694H33.7276C33.8271 19.6713 33.9238 19.6261 34.0003 19.5418C34.0768 19.4576 34.1282 19.3399 34.1451 19.2099L35.1177 11.9087L35.5601 15.5012C35.577 15.6311 35.6284 15.7488 35.7049 15.8331C35.7814 15.9173 35.8781 15.9625 35.9775 15.9606C36.077 15.9625 36.1737 15.9173 36.2502 15.8331C36.3267 15.7488 36.3781 15.6311 36.395 15.5012L36.875 11.9142L37.8309 19.2099C37.8478 19.3399 37.8991 19.4576 37.9756 19.5418C38.0522 19.6261 38.1489 19.6713 38.2483 19.6694H39.0164C39.0777 19.6706 39.1385 19.6538 39.1944 19.6203C39.2503 19.5868 39.2999 19.5374 39.3398 19.4755C39.3796 19.4137 39.4087 19.341 39.425 19.2625C39.4412 19.1841 39.4442 19.1019 39.4338 19.0217L37.4594 4.26419C37.4426 4.13517 37.3919 4.01821 37.3162 3.9341C37.2406 3.84998 37.1449 3.80415 37.0461 3.80475Z" fill="#D5C7AD"/>
<path d="M35.6533 7.91602L36.6445 7.91797L37.0439 4.92871L38.9375 19.085V19.0859C38.9408 19.1113 38.9404 19.1378 38.9355 19.1611C38.935 19.164 38.9333 19.1664 38.9326 19.1689H38.333C38.3312 19.1618 38.3283 19.1543 38.3271 19.1455L38.3262 19.1445L37.3711 11.8496L36.3799 11.8477L35.9805 14.8252L35.6143 11.8477L34.6221 11.8428L33.6494 19.1436V19.1455C33.6483 19.1542 33.6453 19.1618 33.6436 19.1689H33.3945C33.3939 19.1664 33.3922 19.164 33.3916 19.1611C33.3868 19.138 33.3855 19.1121 33.3887 19.0869L35.2627 4.92383L35.6533 7.91602Z" stroke="#D5C7AD" stroke-opacity="0.5"/>
<path d="M60.2928 4.47266H59.5873C59.3568 4.47266 59.1699 4.72049 59.1699 5.0262V19.114C59.1699 19.4197 59.3568 19.6675 59.5873 19.6675H60.2928C60.5233 19.6675 60.7102 19.4197 60.7102 19.114V5.0262C60.7102 4.72049 60.5233 4.47266 60.2928 4.47266Z" fill="#D5C7AD"/>
<path d="M60.2021 4.97266C60.2058 4.98671 60.21 5.00445 60.21 5.02637V19.1143C60.2099 19.1363 60.2058 19.1539 60.2021 19.168H59.6777C59.6741 19.1539 59.6699 19.1362 59.6699 19.1143V5.02637C59.6699 5.00448 59.6741 4.9867 59.6777 4.97266H60.2021Z" stroke="#D5C7AD" stroke-opacity="0.5"/>
<path d="M71.1789 4.47266H67.6225C67.5118 4.47266 67.4056 4.53098 67.3273 4.63479C67.2491 4.7386 67.2051 4.87939 67.2051 5.0262V5.57975C67.2051 5.72656 67.2491 5.86735 67.3273 5.97116C67.4056 6.07498 67.5118 6.13329 67.6225 6.13329H68.6368V19.114C68.6368 19.2608 68.6808 19.4016 68.7591 19.5054C68.8374 19.6092 68.9435 19.6675 69.0542 19.6675H69.7597C69.8704 19.6675 69.9766 19.6092 70.0549 19.5054C70.1331 19.4016 70.1771 19.2608 70.1771 19.114V6.12222H71.1789C71.2896 6.12222 71.3958 6.0639 71.4741 5.96009C71.5524 5.85628 71.5963 5.71549 71.5963 5.56868V5.01513C71.5942 4.87025 71.5492 4.73228 71.4712 4.63085C71.3931 4.52943 71.2882 4.47263 71.1789 4.47266Z" fill="#D5C7AD"/>
<path d="M71.0889 4.97266L71.0967 5.02246V5.56836C71.0967 5.58988 71.0925 5.60791 71.0889 5.62207H69.6768V19.1143C69.6767 19.136 69.6727 19.1538 69.6689 19.168H69.1445C69.1408 19.1538 69.1367 19.136 69.1367 19.1143V5.63281H67.7129C67.7093 5.61876 67.7051 5.60134 67.7051 5.58008V5.02637C67.7051 5.00473 67.7092 4.98685 67.7129 4.97266H71.0889Z" stroke="#D5C7AD" stroke-opacity="0.5"/>
<path d="M53.2679 0H47.1694C47.0587 0 46.9525 0.0583199 46.8742 0.16213C46.7959 0.26594 46.752 0.406737 46.752 0.553546V19.7505C46.752 19.8973 46.7959 20.0381 46.8742 20.1419C46.9525 20.2458 47.0587 20.3041 47.1694 20.3041H48.0042C48.1149 20.3041 48.2211 20.2458 48.2994 20.1419C48.3777 20.0381 48.4216 19.8973 48.4216 19.7505V7.68322H53.2512C53.3619 7.68322 53.4681 7.6249 53.5464 7.52109C53.6246 7.41728 53.6686 7.27649 53.6686 7.12968V6.91379C53.6686 6.76698 53.6246 6.62619 53.5464 6.52238C53.4681 6.41857 53.3619 6.36025 53.2512 6.36025H48.4216V1.32298H53.2512C53.3619 1.32298 53.4681 1.26466 53.5464 1.16085C53.6246 1.05704 53.6686 0.916239 53.6686 0.769429V0.553546C53.6687 0.410494 53.627 0.272951 53.5523 0.169755C53.4776 0.0665585 53.3757 0.00572206 53.2679 0V0Z" fill="#D5C7AD"/>
<path d="M53.1611 0.5C53.1648 0.514216 53.169 0.532353 53.1689 0.553711V0.769531C53.1689 0.791336 53.1639 0.80901 53.1602 0.823242H47.9219V6.86035H53.1611C53.1648 6.87452 53.1689 6.89251 53.1689 6.91406V7.12988C53.1689 7.15169 53.1639 7.16937 53.1602 7.18359H47.9219V19.751C47.9218 19.7722 47.9176 19.7897 47.9141 19.8037H47.2598C47.2562 19.7897 47.252 19.7722 47.252 19.751V0.553711C47.252 0.53207 47.2561 0.514192 47.2598 0.5H53.1611Z" stroke="#D5C7AD" stroke-opacity="0.5"/>
</svg>
