<svg width="72" height="55" viewBox="0 0 72 55" fill="none" xmlns="http://www.w3.org/2000/svg">
<path d="M65.6471 0H5.94927C4.37142 0 2.8582 0.831685 1.7425 2.31209C0.626796 3.7925 0 5.80037 0 7.89398L0 46.6344C0 48.728 0.626796 50.7359 1.7425 52.2163C2.8582 53.6967 4.37142 54.5284 5.94927 54.5284H65.6471C67.2249 54.5284 68.7381 53.6967 69.8539 52.2163C70.9696 50.7359 71.5963 48.728 71.5963 46.6344V7.89398C71.5963 5.80037 70.9696 3.7925 69.8539 2.31209C68.7381 0.831685 67.2249 0 65.6471 0V0ZM69.9552 46.6344C69.9541 48.15 69.4998 49.6031 68.6922 50.6748C67.8845 51.7466 66.7893 52.3493 65.6471 52.3507H36.9593V2.17765H65.6471C66.7893 2.17909 67.8845 2.78181 68.6922 3.85352C69.4998 4.92522 69.9541 6.37836 69.9552 7.89398V46.6344Z" fill="#D5C7AD"/>
<path d="M5.94922 0.5H65.6475C67.0396 0.500133 68.4143 1.2336 69.4541 2.61328C70.496 3.99581 71.0966 5.89396 71.0967 7.89355V46.6348C71.0966 48.6344 70.496 50.5325 69.4541 51.915C68.4143 53.2947 67.0396 54.0282 65.6475 54.0283H5.94922C4.557 54.0283 3.1815 53.2949 2.1416 51.915C1.09979 50.5325 0.500077 48.6342 0.5 46.6348V7.89355C0.500085 5.89408 1.09978 3.99579 2.1416 2.61328C3.11651 1.3197 4.38642 0.594403 5.68848 0.508789L5.94922 0.5ZM36.459 52.8506H65.6475C66.975 52.8489 68.2084 52.1477 69.0918 50.9756C69.973 49.8062 70.4539 48.244 70.4551 46.6348V7.89355C70.4539 6.28432 69.973 4.72207 69.0918 3.55273C68.2636 2.45387 67.128 1.76925 65.8955 1.68652L65.6475 1.67773H36.459V52.8506Z" stroke="#D5C7AD" stroke-opacity="0.5"/>
<mask id="path-3-inside-1_76_152" fill="white">
<path d="M5.26082 40.6021H4.85053V39.2955H3.6935V40.6021H3.2832V37.6133H3.6935V38.8382H4.86694V37.6133H5.27723L5.26082 40.6021Z"/>
</mask>
<path d="M5.26082 40.6021H4.85053V39.2955H3.6935V40.6021H3.2832V37.6133H3.6935V38.8382H4.86694V37.6133H5.27723L5.26082 40.6021Z" fill="#2D2D2D"/>
<path d="M5.26082 40.6021V41.6021H6.25535L6.26081 40.6076L5.26082 40.6021ZM4.85053 40.6021H3.85053V41.6021H4.85053V40.6021ZM4.85053 39.2955H5.85053V38.2955H4.85053V39.2955ZM3.6935 39.2955V38.2955H2.6935V39.2955H3.6935ZM3.6935 40.6021V41.6021H4.6935V40.6021H3.6935ZM3.2832 40.6021H2.2832V41.6021H3.2832V40.6021ZM3.2832 37.6133V36.6133H2.2832V37.6133H3.2832ZM3.6935 37.6133H4.6935V36.6133H3.6935V37.6133ZM3.6935 38.8382H2.6935V39.8382H3.6935V38.8382ZM4.86694 38.8382V39.8382H5.86694V38.8382H4.86694ZM4.86694 37.6133V36.6133H3.86694V37.6133H4.86694ZM5.27723 37.6133L6.27722 37.6188L6.28274 36.6133H5.27723V37.6133ZM5.26082 40.6021V39.6021H4.85053V40.6021V41.6021H5.26082V40.6021ZM4.85053 40.6021H5.85053V39.2955H4.85053H3.85053V40.6021H4.85053ZM4.85053 39.2955V38.2955H3.6935V39.2955V40.2955H4.85053V39.2955ZM3.6935 39.2955H2.6935V40.6021H3.6935H4.6935V39.2955H3.6935ZM3.6935 40.6021V39.6021H3.2832V40.6021V41.6021H3.6935V40.6021ZM3.2832 40.6021H4.2832V37.6133H3.2832H2.2832V40.6021H3.2832ZM3.2832 37.6133V38.6133H3.6935V37.6133V36.6133H3.2832V37.6133ZM3.6935 37.6133H2.6935V38.8382H3.6935H4.6935V37.6133H3.6935ZM3.6935 38.8382V39.8382H4.86694V38.8382V37.8382H3.6935V38.8382ZM4.86694 38.8382H5.86694V37.6133H4.86694H3.86694V38.8382H4.86694ZM4.86694 37.6133V38.6133H5.27723V37.6133V36.6133H4.86694V37.6133ZM5.27723 37.6133L4.27725 37.6078L4.26084 40.5966L5.26082 40.6021L6.26081 40.6076L6.27722 37.6188L5.27723 37.6133Z" fill="#D5C7AD" fill-opacity="0.5" mask="url(#path-3-inside-1_76_152)"/>
<mask id="path-5-inside-2_76_152" fill="white">
<path d="M7.28274 40.6021H5.74414V37.6133H7.28685V38.076H6.15443V38.8491H7.26223V39.3119H6.15443V40.1394H7.30326L7.28274 40.6021Z"/>
</mask>
<path d="M7.28274 40.6021H5.74414V37.6133H7.28685V38.076H6.15443V38.8491H7.26223V39.3119H6.15443V40.1394H7.30326L7.28274 40.6021Z" fill="#2D2D2D"/>
<path d="M7.28274 40.6021V41.6021H8.23939L8.28176 40.6464L7.28274 40.6021ZM5.74414 40.6021H4.74414V41.6021H5.74414V40.6021ZM5.74414 37.6133V36.6133H4.74414V37.6133H5.74414ZM7.28685 37.6133H8.28685V36.6133H7.28685V37.6133ZM7.28685 38.076V39.076H8.28685V38.076H7.28685ZM6.15443 38.076V37.076H5.15443V38.076H6.15443ZM6.15443 38.8491H5.15443V39.8491H6.15443V38.8491ZM7.26223 38.8491H8.26223V37.8491H7.26223V38.8491ZM7.26223 39.3119V40.3119H8.26223V39.3119H7.26223ZM6.15443 39.3119V38.3119H5.15443V39.3119H6.15443ZM6.15443 40.1394H5.15443V41.1394H6.15443V40.1394ZM7.30326 40.1394L8.30228 40.1836L8.34857 39.1394H7.30326V40.1394ZM7.28274 40.6021V39.6021H5.74414V40.6021V41.6021H7.28274V40.6021ZM5.74414 40.6021H6.74414V37.6133H5.74414H4.74414V40.6021H5.74414ZM5.74414 37.6133V38.6133H7.28685V37.6133V36.6133H5.74414V37.6133ZM7.28685 37.6133H6.28685V38.076H7.28685H8.28685V37.6133H7.28685ZM7.28685 38.076V37.076H6.15443V38.076V39.076H7.28685V38.076ZM6.15443 38.076H5.15443V38.8491H6.15443H7.15443V38.076H6.15443ZM6.15443 38.8491V39.8491H7.26223V38.8491V37.8491H6.15443V38.8491ZM7.26223 38.8491H6.26223V39.3119H7.26223H8.26223V38.8491H7.26223ZM7.26223 39.3119V38.3119H6.15443V39.3119V40.3119H7.26223V39.3119ZM6.15443 39.3119H5.15443V40.1394H6.15443H7.15443V39.3119H6.15443ZM6.15443 40.1394V41.1394H7.30326V40.1394V39.1394H6.15443V40.1394ZM7.30326 40.1394L6.30424 40.0951L6.28373 40.5578L7.28274 40.6021L8.28176 40.6464L8.30228 40.1836L7.30326 40.1394Z" fill="#D5C7AD" fill-opacity="0.5" mask="url(#path-5-inside-2_76_152)"/>
<mask id="path-7-inside-3_76_152" fill="white">
<path d="M7.54688 41.1504V40.1868C7.62129 40.1835 7.69362 40.1534 7.75613 40.0997C7.82075 40.0201 7.8676 39.9184 7.89152 39.8057C7.94286 39.5936 7.9759 39.3744 7.98999 39.1524L8.12129 37.6172H9.65169V40.1433H9.84863V41.1559H9.43833V40.6115H7.94076V41.1559L7.54688 41.1504ZM8.36746 39.1851C8.35811 39.5394 8.25329 39.8774 8.07205 40.1378H9.24549V38.0745H8.46593L8.36746 39.1851Z"/>
</mask>
<path d="M7.54688 41.1504V40.1868C7.62129 40.1835 7.69362 40.1534 7.75613 40.0997C7.82075 40.0201 7.8676 39.9184 7.89152 39.8057C7.94286 39.5936 7.9759 39.3744 7.98999 39.1524L8.12129 37.6172H9.65169V40.1433H9.84863V41.1559H9.43833V40.6115H7.94076V41.1559L7.54688 41.1504ZM8.36746 39.1851C8.35811 39.5394 8.25329 39.8774 8.07205 40.1378H9.24549V38.0745H8.46593L8.36746 39.1851Z" fill="#2D2D2D"/>
<path d="M7.54688 41.1504H6.54688V42.1367L7.53305 42.1503L7.54688 41.1504ZM7.54688 40.1868L7.50251 39.1878L6.54688 39.2302V40.1868H7.54688ZM7.75613 40.0997L8.40774 40.8583L8.47593 40.7997L8.53258 40.7299L7.75613 40.0997ZM7.89152 39.8057L6.91958 39.5705L6.91627 39.5842L6.91334 39.598L7.89152 39.8057ZM7.98999 39.1524L6.99363 39.0672L6.9927 39.0781L6.992 39.0891L7.98999 39.1524ZM8.12129 37.6172V36.6172H7.20316L7.12492 37.532L8.12129 37.6172ZM9.65169 37.6172H10.6517V36.6172H9.65169V37.6172ZM9.65169 40.1433H8.65169V41.1433H9.65169V40.1433ZM9.84863 40.1433H10.8486V39.1433H9.84863V40.1433ZM9.84863 41.1559V42.1559H10.8486V41.1559H9.84863ZM9.43833 41.1559H8.43833V42.1559H9.43833V41.1559ZM9.43833 40.6115H10.4383V39.6115H9.43833V40.6115ZM7.94076 40.6115V39.6115H6.94076V40.6115H7.94076ZM7.94076 41.1559L7.92693 42.1558L8.94076 42.1698V41.1559H7.94076ZM8.36746 39.1851L7.37137 39.0968L7.36863 39.1277L7.36781 39.1587L8.36746 39.1851ZM8.07205 40.1378L7.25125 39.5666L6.1578 41.1378H8.07205V40.1378ZM9.24549 40.1378V41.1378H10.2455V40.1378H9.24549ZM9.24549 38.0745H10.2455V37.0745H9.24549V38.0745ZM8.46593 38.0745V37.0745H7.55068L7.46984 37.9862L8.46593 38.0745ZM7.54688 41.1504H8.54688V40.1868H7.54688H6.54688V41.1504H7.54688ZM7.54688 40.1868L7.59124 41.1858C7.91318 41.1715 8.19453 41.0414 8.40774 40.8583L7.75613 40.0997L7.10451 39.3412C7.19272 39.2654 7.3294 39.1955 7.50251 39.1878L7.54688 40.1868ZM7.75613 40.0997L8.53258 40.7299C8.70861 40.513 8.81699 40.2617 8.8697 40.0135L7.89152 39.8057L6.91334 39.598C6.91821 39.5751 6.9329 39.5272 6.97967 39.4695L7.75613 40.0997ZM7.89152 39.8057L8.86346 40.041C8.92872 39.7713 8.97028 39.4946 8.98798 39.2158L7.98999 39.1524L6.992 39.0891C6.98151 39.2543 6.95701 39.4159 6.91958 39.5705L7.89152 39.8057ZM7.98999 39.1524L8.98636 39.2376L9.11765 37.7024L8.12129 37.6172L7.12492 37.532L6.99363 39.0672L7.98999 39.1524ZM8.12129 37.6172V38.6172H9.65169V37.6172V36.6172H8.12129V37.6172ZM9.65169 37.6172H8.65169V40.1433H9.65169H10.6517V37.6172H9.65169ZM9.65169 40.1433V41.1433H9.84863V40.1433V39.1433H9.65169V40.1433ZM9.84863 40.1433H8.84863V41.1559H9.84863H10.8486V40.1433H9.84863ZM9.84863 41.1559V40.1559H9.43833V41.1559V42.1559H9.84863V41.1559ZM9.43833 41.1559H10.4383V40.6115H9.43833H8.43833V41.1559H9.43833ZM9.43833 40.6115V39.6115H7.94076V40.6115V41.6115H9.43833V40.6115ZM7.94076 40.6115H6.94076V41.1559H7.94076H8.94076V40.6115H7.94076ZM7.94076 41.1559L7.95458 40.156L7.5607 40.1505L7.54688 41.1504L7.53305 42.1503L7.92693 42.1558L7.94076 41.1559ZM8.36746 39.1851L7.36781 39.1587C7.36299 39.3414 7.30819 39.4848 7.25125 39.5666L8.07205 40.1378L8.89285 40.709C9.19839 40.27 9.35322 39.7373 9.36711 39.2115L8.36746 39.1851ZM8.07205 40.1378V41.1378H9.24549V40.1378V39.1378H8.07205V40.1378ZM9.24549 40.1378H10.2455V38.0745H9.24549H8.24549V40.1378H9.24549ZM9.24549 38.0745V37.0745H8.46593V38.0745V39.0745H9.24549V38.0745ZM8.46593 38.0745L7.46984 37.9862L7.37137 39.0968L8.36746 39.1851L9.36356 39.2734L9.46203 38.1628L8.46593 38.0745Z" fill="#D5C7AD" fill-opacity="0.5" mask="url(#path-7-inside-3_76_152)"/>
<mask id="path-9-inside-4_76_152" fill="white">
<path d="M11.3006 40.5997H10.1641V37.6108H11.2719C11.3574 37.6042 11.4431 37.6201 11.5241 37.6574C11.6051 37.6948 11.6797 37.753 11.7437 37.8286C11.7996 37.8982 11.8439 37.9826 11.8736 38.0764C11.9033 38.1703 11.9177 38.2713 11.916 38.373C11.9186 38.5368 11.878 38.6967 11.8011 38.8249C11.7317 38.9429 11.6327 39.024 11.5221 39.0535C11.6455 39.0802 11.756 39.1701 11.8299 39.304C11.9129 39.4413 11.9578 39.6124 11.957 39.7885C11.9603 39.8961 11.9466 40.0035 11.9169 40.1037C11.8873 40.204 11.8423 40.295 11.7847 40.371C11.7196 40.4501 11.6433 40.5111 11.5601 40.5504C11.4769 40.5896 11.3887 40.6064 11.3006 40.5997V40.5997ZM11.1898 38.8467C11.2755 38.8529 11.3597 38.8137 11.4237 38.7378C11.4518 38.7021 11.4741 38.6589 11.4889 38.6111C11.5038 38.5632 11.5109 38.5118 11.5098 38.4601C11.5112 38.4076 11.5042 38.3552 11.4894 38.3064C11.4746 38.2577 11.4522 38.2136 11.4237 38.177C11.3597 38.1011 11.2755 38.0619 11.1898 38.0681H10.5579V38.8412L11.1898 38.8467ZM11.1898 40.1369C11.2819 40.1446 11.3728 40.1057 11.4442 40.028C11.5019 39.9471 11.5341 39.84 11.5341 39.7286C11.5341 39.6172 11.5019 39.5101 11.4442 39.4292C11.4099 39.3878 11.3698 39.3559 11.3261 39.3353C11.2824 39.3147 11.2361 39.3059 11.1898 39.3094H10.5579V40.1369H11.1898Z"/>
</mask>
<path d="M11.3006 40.5997H10.1641V37.6108H11.2719C11.3574 37.6042 11.4431 37.6201 11.5241 37.6574C11.6051 37.6948 11.6797 37.753 11.7437 37.8286C11.7996 37.8982 11.8439 37.9826 11.8736 38.0764C11.9033 38.1703 11.9177 38.2713 11.916 38.373C11.9186 38.5368 11.878 38.6967 11.8011 38.8249C11.7317 38.9429 11.6327 39.024 11.5221 39.0535C11.6455 39.0802 11.756 39.1701 11.8299 39.304C11.9129 39.4413 11.9578 39.6124 11.957 39.7885C11.9603 39.8961 11.9466 40.0035 11.9169 40.1037C11.8873 40.204 11.8423 40.295 11.7847 40.371C11.7196 40.4501 11.6433 40.5111 11.5601 40.5504C11.4769 40.5896 11.3887 40.6064 11.3006 40.5997V40.5997ZM11.1898 38.8467C11.2755 38.8529 11.3597 38.8137 11.4237 38.7378C11.4518 38.7021 11.4741 38.6589 11.4889 38.6111C11.5038 38.5632 11.5109 38.5118 11.5098 38.4601C11.5112 38.4076 11.5042 38.3552 11.4894 38.3064C11.4746 38.2577 11.4522 38.2136 11.4237 38.177C11.3597 38.1011 11.2755 38.0619 11.1898 38.0681H10.5579V38.8412L11.1898 38.8467ZM11.1898 40.1369C11.2819 40.1446 11.3728 40.1057 11.4442 40.028C11.5019 39.9471 11.5341 39.84 11.5341 39.7286C11.5341 39.6172 11.5019 39.5101 11.4442 39.4292C11.4099 39.3878 11.3698 39.3559 11.3261 39.3353C11.2824 39.3147 11.2361 39.3059 11.1898 39.3094H10.5579V40.1369H11.1898Z" fill="#2D2D2D"/>
<path d="M10.1641 40.5997H9.16406V41.5997H10.1641V40.5997ZM10.1641 37.6108V36.6108H9.16406V37.6108H10.1641ZM11.2719 37.6108V38.6108H11.3104L11.3489 38.6079L11.2719 37.6108ZM11.7437 37.8286L12.5231 37.2021L12.5152 37.1923L12.5071 37.1827L11.7437 37.8286ZM11.916 38.373L10.9162 38.3562L10.9159 38.3725L10.9161 38.3889L11.916 38.373ZM11.8011 38.8249L10.9433 38.3108L10.9391 38.318L11.8011 38.8249ZM11.5221 39.0535L11.2644 38.0873L11.3112 40.031L11.5221 39.0535ZM11.8299 39.304L10.9542 39.7868L10.9638 39.8042L10.974 39.8212L11.8299 39.304ZM11.957 39.7885L10.9571 39.7843L10.957 39.8013L10.9575 39.8183L11.957 39.7885ZM11.7847 40.371L12.5569 41.0065L12.5698 40.9908L12.582 40.9746L11.7847 40.371ZM11.1898 38.8467L11.2625 37.8493L11.2305 37.847L11.1984 37.8467L11.1898 38.8467ZM11.4237 38.7378L12.1884 39.3821L12.1988 39.3698L12.2088 39.3571L11.4237 38.7378ZM11.5098 38.4601L10.5102 38.434L10.5096 38.4572L10.51 38.4805L11.5098 38.4601ZM11.4237 38.177L12.2123 37.5622L12.2007 37.5472L12.1884 37.5327L11.4237 38.177ZM11.1898 38.0681V39.0681H11.2262L11.2625 39.0655L11.1898 38.0681ZM10.5579 38.0681V37.0681H9.55794V38.0681H10.5579ZM10.5579 38.8412H9.55794V39.8326L10.5493 39.8412L10.5579 38.8412ZM11.1898 40.1369L11.2728 39.1404L11.2313 39.1369H11.1898V40.1369ZM11.4442 40.028L12.1804 40.7048L12.2223 40.6592L12.2582 40.6088L11.4442 40.028ZM11.5341 39.7286L10.5341 39.7286L11.5341 39.7286ZM11.4442 39.4292L12.2582 38.8484L12.2373 38.8191L12.2144 38.7914L11.4442 39.4292ZM11.1898 39.3094V40.3094H11.2272L11.2645 40.3066L11.1898 39.3094ZM10.5579 39.3094V38.3094H9.55794V39.3094H10.5579ZM10.5579 40.1369H9.55794V41.1369H10.5579V40.1369ZM11.3006 40.5997V39.5997H10.1641V40.5997V41.5997H11.3006V40.5997ZM10.1641 40.5997H11.1641V37.6108H10.1641H9.16406V40.5997H10.1641ZM10.1641 37.6108V38.6108H11.2719V37.6108V36.6108H10.1641V37.6108ZM11.2719 37.6108L11.3489 38.6079C11.2575 38.6149 11.1729 38.5967 11.1051 38.5654L11.5241 37.6574L11.9432 36.7495C11.7134 36.6434 11.4574 36.5935 11.1948 36.6138L11.2719 37.6108ZM11.5241 37.6574L11.1051 38.5654C11.0394 38.5351 11 38.4978 10.9803 38.4745L11.7437 37.8286L12.5071 37.1827C12.3594 37.0081 12.1707 36.8545 11.9432 36.7495L11.5241 37.6574ZM11.7437 37.8286L10.9643 38.4551C10.9351 38.4188 10.9241 38.3904 10.9202 38.3782L11.8736 38.0764L12.827 37.7747C12.7637 37.5748 12.6642 37.3776 12.5231 37.2021L11.7437 37.8286ZM11.8736 38.0764L10.9202 38.3782C10.918 38.3713 10.9171 38.3664 10.9167 38.3634C10.9162 38.3604 10.9161 38.3581 10.9162 38.3562L11.916 38.373L12.9159 38.3899C12.9194 38.1838 12.8904 37.975 12.827 37.7747L11.8736 38.0764ZM11.916 38.373L10.9161 38.3889C10.9161 38.3837 10.9165 38.3764 10.9192 38.3659C10.9218 38.3556 10.928 38.3364 10.9434 38.3109L11.8011 38.8249L12.6589 39.3389C12.8407 39.0356 12.9212 38.6889 12.9159 38.3572L11.916 38.373ZM11.8011 38.8249L10.9391 38.318C10.975 38.2569 11.0724 38.1385 11.2644 38.0873L11.5221 39.0535L11.7799 40.0197C12.1931 39.9095 12.4884 39.6289 12.6631 39.3318L11.8011 38.8249ZM11.5221 39.0535L11.3112 40.031C11.0927 39.9839 10.9878 39.8479 10.9542 39.7868L11.8299 39.304L12.7056 38.8211C12.5243 38.4923 12.1983 38.1764 11.733 38.076L11.5221 39.0535ZM11.8299 39.304L10.974 39.8212C10.9622 39.8017 10.9585 39.7891 10.9576 39.7856C10.9567 39.7819 10.9571 39.7819 10.9571 39.7843L11.957 39.7885L12.957 39.7927C12.9585 39.4513 12.8729 39.0964 12.6857 38.7867L11.8299 39.304ZM11.957 39.7885L10.9575 39.8183C10.9575 39.8202 10.9574 39.8217 10.9573 39.8227C10.9572 39.8236 10.9572 39.8228 10.958 39.8201L11.9169 40.1037L12.8759 40.3874C12.9365 40.1824 12.9629 39.9691 12.9566 39.7587L11.957 39.7885ZM11.9169 40.1037L10.958 39.8201C10.9592 39.816 10.9655 39.7964 10.9874 39.7674L11.7847 40.371L12.582 40.9746C12.719 40.7937 12.8153 40.592 12.8759 40.3874L11.9169 40.1037ZM11.7847 40.371L11.0126 39.7356C11.0305 39.7138 11.0682 39.6768 11.133 39.6461L11.5601 40.5504L11.9871 41.4546C12.2183 41.3454 12.4088 41.1864 12.5569 41.0065L11.7847 40.371ZM11.5601 40.5504L11.133 39.6461C11.2001 39.6145 11.2848 39.5955 11.3768 39.6026L11.3006 40.5997L11.2243 41.5968C11.4926 41.6173 11.7537 41.5648 11.9871 41.4546L11.5601 40.5504ZM11.1898 38.8467L11.1171 39.844C11.5753 39.8774 11.9547 39.6595 12.1884 39.3821L11.4237 38.7378L10.6589 38.0934C10.7646 37.968 10.9757 37.8284 11.2625 37.8493L11.1898 38.8467ZM11.4237 38.7378L12.2088 39.3571C12.3202 39.2158 12.3964 39.0606 12.444 38.9074L11.4889 38.6111L10.5338 38.3147C10.5517 38.2571 10.5835 38.1883 10.6385 38.1185L11.4237 38.7378ZM11.4889 38.6111L12.444 38.9074C12.4917 38.7538 12.5128 38.5952 12.5096 38.4398L11.5098 38.4601L10.51 38.4805C10.509 38.4284 10.5158 38.3727 10.5338 38.3147L11.4889 38.6111ZM11.5098 38.4601L12.5095 38.4863C12.5136 38.3297 12.4932 38.17 12.4461 38.0153L11.4894 38.3064L10.5327 38.5976C10.5153 38.5404 10.5088 38.4854 10.5102 38.434L11.5098 38.4601ZM11.4894 38.3064L12.4461 38.0153C12.3991 37.861 12.3234 37.7047 12.2123 37.5622L11.4237 38.177L10.635 38.7919C10.5809 38.7225 10.55 38.6544 10.5327 38.5976L11.4894 38.3064ZM11.4237 38.177L12.1884 37.5327C11.9547 37.2553 11.5753 37.0374 11.1171 37.0708L11.1898 38.0681L11.2625 39.0655C10.9757 39.0864 10.7646 38.9468 10.6589 38.8214L11.4237 38.177ZM11.1898 38.0681V37.0681H10.5579V38.0681V39.0681H11.1898V38.0681ZM10.5579 38.0681H9.55794V38.8412H10.5579H11.5579V38.0681H10.5579ZM10.5579 38.8412L10.5493 39.8412L11.1812 39.8466L11.1898 38.8467L11.1984 37.8467L10.5666 37.8413L10.5579 38.8412ZM11.1898 40.1369L11.1068 41.1335C11.5529 41.1706 11.9335 40.9734 12.1804 40.7048L11.4442 40.028L10.708 39.3513C10.8122 39.2379 11.011 39.1186 11.2728 39.1404L11.1898 40.1369ZM11.4442 40.028L12.2582 40.6088C12.4513 40.3382 12.5341 40.022 12.5341 39.7286L11.5341 39.7286L10.5341 39.7286C10.5341 39.658 10.5525 39.5561 10.6301 39.4472L11.4442 40.028ZM11.5341 39.7286L12.5341 39.7286C12.5341 39.4353 12.4513 39.119 12.2582 38.8484L11.4442 39.4292L10.6301 40.01C10.5525 39.9011 10.5341 39.7992 10.5341 39.7286L11.5341 39.7286ZM11.4442 39.4292L12.2144 38.7914C12.0971 38.6497 11.9431 38.5205 11.7521 38.4306L11.3261 39.3353L10.9001 40.24C10.7964 40.1912 10.7227 40.1259 10.674 40.067L11.4442 39.4292ZM11.3261 39.3353L11.7521 38.4306C11.5588 38.3396 11.3405 38.2953 11.1151 38.3122L11.1898 39.3094L11.2645 40.3066C11.1316 40.3166 11.006 40.2899 10.9001 40.24L11.3261 39.3353ZM11.1898 39.3094V38.3094H10.5579V39.3094V40.3094H11.1898V39.3094ZM10.5579 39.3094H9.55794V40.1369H10.5579H11.5579V39.3094H10.5579ZM10.5579 40.1369V41.1369H11.1898V40.1369V39.1369H10.5579V40.1369Z" fill="#D5C7AD" fill-opacity="0.5" mask="url(#path-9-inside-4_76_152)"/>
<mask id="path-11-inside-5_76_152" fill="white">
<path d="M12.7208 40.6021H12.3516V37.6133H12.7619V39.6875L13.9148 37.6133H14.3251V40.6021H13.9148V38.468L12.7208 40.6021Z"/>
</mask>
<path d="M12.7208 40.6021H12.3516V37.6133H12.7619V39.6875L13.9148 37.6133H14.3251V40.6021H13.9148V38.468L12.7208 40.6021Z" fill="#2D2D2D"/>
<path d="M12.7208 40.6021V41.6021H13.3072L13.5935 41.0904L12.7208 40.6021ZM12.3516 40.6021H11.3516V41.6021H12.3516V40.6021ZM12.3516 37.6133V36.6133H11.3516V37.6133H12.3516ZM12.7619 37.6133H13.7619V36.6133H12.7619V37.6133ZM12.7619 39.6875H11.7619V43.5449L13.6359 40.1733L12.7619 39.6875ZM13.9148 37.6133V36.6133H13.3265L13.0407 37.1274L13.9148 37.6133ZM14.3251 37.6133H15.3251V36.6133H14.3251V37.6133ZM14.3251 40.6021V41.6021H15.3251V40.6021H14.3251ZM13.9148 40.6021H12.9148V41.6021H13.9148V40.6021ZM13.9148 38.468H14.9148V34.6325L13.0421 37.9798L13.9148 38.468ZM12.7208 40.6021V39.6021H12.3516V40.6021V41.6021H12.7208V40.6021ZM12.3516 40.6021H13.3516V37.6133H12.3516H11.3516V40.6021H12.3516ZM12.3516 37.6133V38.6133H12.7619V37.6133V36.6133H12.3516V37.6133ZM12.7619 37.6133H11.7619V39.6875H12.7619H13.7619V37.6133H12.7619ZM12.7619 39.6875L13.6359 40.1733L14.7888 38.0991L13.9148 37.6133L13.0407 37.1274L11.8878 39.2017L12.7619 39.6875ZM13.9148 37.6133V38.6133H14.3251V37.6133V36.6133H13.9148V37.6133ZM14.3251 37.6133H13.3251V40.6021H14.3251H15.3251V37.6133H14.3251ZM14.3251 40.6021V39.6021H13.9148V40.6021V41.6021H14.3251V40.6021ZM13.9148 40.6021H14.9148V38.468H13.9148H12.9148V40.6021H13.9148ZM13.9148 38.468L13.0421 37.9798L11.8481 40.1139L12.7208 40.6021L13.5935 41.0904L14.7875 38.9563L13.9148 38.468Z" fill="#D5C7AD" fill-opacity="0.5" mask="url(#path-11-inside-5_76_152)"/>
<mask id="path-13-inside-6_76_152" fill="white">
<path d="M15.0547 40.6021H14.5664L15.5511 39.0233L14.6362 37.6133H15.1244L15.9204 38.9035V37.6133H16.3307V38.9035L17.1266 37.6133H17.6026L16.6876 39.0233L17.6723 40.6021H17.1841L16.4127 39.3445L16.302 39.5187V40.6076H15.8917V39.5187L15.7809 39.3445L15.0547 40.6021Z"/>
</mask>
<path d="M15.0547 40.6021H14.5664L15.5511 39.0233L14.6362 37.6133H15.1244L15.9204 38.9035V37.6133H16.3307V38.9035L17.1266 37.6133H17.6026L16.6876 39.0233L17.6723 40.6021H17.1841L16.4127 39.3445L16.302 39.5187V40.6076H15.8917V39.5187L15.7809 39.3445L15.0547 40.6021Z" fill="#2D2D2D"/>
<path d="M15.0547 40.6021V41.6021H15.6319L15.9206 41.1022L15.0547 40.6021ZM14.5664 40.6021L13.7179 40.0729L12.7641 41.6021H14.5664V40.6021ZM15.5511 39.0233L16.3996 39.5525L16.7363 39.0127L16.39 38.479L15.5511 39.0233ZM14.6362 37.6133V36.6133H12.7952L13.7973 38.1576L14.6362 37.6133ZM15.1244 37.6133L15.9755 37.0882L15.6825 36.6133H15.1244V37.6133ZM15.9204 38.9035L15.0693 39.4286L16.9204 42.4292V38.9035H15.9204ZM15.9204 37.6133V36.6133H14.9204V37.6133H15.9204ZM16.3307 37.6133H17.3307V36.6133H16.3307V37.6133ZM16.3307 38.9035H15.3307V42.4292L17.1818 39.4286L16.3307 38.9035ZM17.1266 37.6133V36.6133H16.5686L16.2756 37.0882L17.1266 37.6133ZM17.6026 37.6133L18.4415 38.1576L19.4436 36.6133H17.6026V37.6133ZM16.6876 39.0233L15.8488 38.479L15.5024 39.0127L15.8391 39.5525L16.6876 39.0233ZM17.6723 40.6021V41.6021H19.4746L18.5208 40.0729L17.6723 40.6021ZM17.1841 40.6021L16.3317 41.125L16.6243 41.6021H17.1841V40.6021ZM16.4127 39.3445L17.2652 38.8217L16.428 37.4568L15.5689 38.8079L16.4127 39.3445ZM16.302 39.5187L15.4581 38.9821L15.302 39.2277V39.5187H16.302ZM16.302 40.6076V41.6076H17.302V40.6076H16.302ZM15.8917 40.6076H14.8917V41.6076H15.8917V40.6076ZM15.8917 39.5187H16.8917V39.2277L16.7355 38.9821L15.8917 39.5187ZM15.7809 39.3445L16.6247 38.8079L15.7397 37.4161L14.9149 38.8444L15.7809 39.3445ZM15.0547 40.6021V39.6021H14.5664V40.6021V41.6021H15.0547V40.6021ZM14.5664 40.6021L15.4149 41.1313L16.3996 39.5525L15.5511 39.0233L14.7026 38.4941L13.7179 40.0729L14.5664 40.6021ZM15.5511 39.0233L16.39 38.479L15.475 37.0689L14.6362 37.6133L13.7973 38.1576L14.7122 39.5676L15.5511 39.0233ZM14.6362 37.6133V38.6133H15.1244V37.6133V36.6133H14.6362V37.6133ZM15.1244 37.6133L14.2733 38.1383L15.0693 39.4286L15.9204 38.9035L16.7715 38.3785L15.9755 37.0882L15.1244 37.6133ZM15.9204 38.9035H16.9204V37.6133H15.9204H14.9204V38.9035H15.9204ZM15.9204 37.6133V38.6133H16.3307V37.6133V36.6133H15.9204V37.6133ZM16.3307 37.6133H15.3307V38.9035H16.3307H17.3307V37.6133H16.3307ZM16.3307 38.9035L17.1818 39.4286L17.9777 38.1383L17.1266 37.6133L16.2756 37.0882L15.4796 38.3785L16.3307 38.9035ZM17.1266 37.6133V38.6133H17.6026V37.6133V36.6133H17.1266V37.6133ZM17.6026 37.6133L16.7637 37.0689L15.8488 38.479L16.6876 39.0233L17.5265 39.5676L18.4415 38.1576L17.6026 37.6133ZM16.6876 39.0233L15.8391 39.5525L16.8238 41.1313L17.6723 40.6021L18.5208 40.0729L17.5361 38.4941L16.6876 39.0233ZM17.6723 40.6021V39.6021H17.1841V40.6021V41.6021H17.6723V40.6021ZM17.1841 40.6021L18.0365 40.0793L17.2652 38.8217L16.4127 39.3445L15.5603 39.8674L16.3317 41.125L17.1841 40.6021ZM16.4127 39.3445L15.5689 38.8079L15.4581 38.9821L16.302 39.5187L17.1458 40.0553L17.2566 39.8811L16.4127 39.3445ZM16.302 39.5187H15.302V40.6076H16.302H17.302V39.5187H16.302ZM16.302 40.6076V39.6076H15.8917V40.6076V41.6076H16.302V40.6076ZM15.8917 40.6076H16.8917V39.5187H15.8917H14.8917V40.6076H15.8917ZM15.8917 39.5187L16.7355 38.9821L16.6247 38.8079L15.7809 39.3445L14.937 39.8811L15.0478 40.0553L15.8917 39.5187ZM15.7809 39.3445L14.9149 38.8444L14.1887 40.102L15.0547 40.6021L15.9206 41.1022L16.6469 39.8446L15.7809 39.3445Z" fill="#D5C7AD" fill-opacity="0.5" mask="url(#path-13-inside-6_76_152)"/>
<mask id="path-15-inside-7_76_152" fill="white">
<path d="M18.3171 40.6021H17.9355V37.6133H18.3458V39.6875L19.4988 37.6133H19.9091V40.6021H19.4988V38.468L18.3171 40.6021Z"/>
</mask>
<path d="M18.3171 40.6021H17.9355V37.6133H18.3458V39.6875L19.4988 37.6133H19.9091V40.6021H19.4988V38.468L18.3171 40.6021Z" fill="#2D2D2D"/>
<path d="M18.3171 40.6021V41.6021H18.9065L19.192 41.0865L18.3171 40.6021ZM17.9355 40.6021H16.9355V41.6021H17.9355V40.6021ZM17.9355 37.6133V36.6133H16.9355V37.6133H17.9355ZM18.3458 37.6133H19.3458V36.6133H18.3458V37.6133ZM18.3458 39.6875H17.3458V43.5449L19.2199 40.1733L18.3458 39.6875ZM19.4988 37.6133V36.6133H18.9105L18.6247 37.1274L19.4988 37.6133ZM19.9091 37.6133H20.9091V36.6133H19.9091V37.6133ZM19.9091 40.6021V41.6021H20.9091V40.6021H19.9091ZM19.4988 40.6021H18.4988V41.6021H19.4988V40.6021ZM19.4988 38.468H20.4988V34.5976L18.6239 37.9836L19.4988 38.468ZM18.3171 40.6021V39.6021H17.9355V40.6021V41.6021H18.3171V40.6021ZM17.9355 40.6021H18.9355V37.6133H17.9355H16.9355V40.6021H17.9355ZM17.9355 37.6133V38.6133H18.3458V37.6133V36.6133H17.9355V37.6133ZM18.3458 37.6133H17.3458V39.6875H18.3458H19.3458V37.6133H18.3458ZM18.3458 39.6875L19.2199 40.1733L20.3728 38.0991L19.4988 37.6133L18.6247 37.1274L17.4718 39.2017L18.3458 39.6875ZM19.4988 37.6133V38.6133H19.9091V37.6133V36.6133H19.4988V37.6133ZM19.9091 37.6133H18.9091V40.6021H19.9091H20.9091V37.6133H19.9091ZM19.9091 40.6021V39.6021H19.4988V40.6021V41.6021H19.9091V40.6021ZM19.4988 40.6021H20.4988V38.468H19.4988H18.4988V40.6021H19.4988ZM19.4988 38.468L18.6239 37.9836L17.4423 40.1177L18.3171 40.6021L19.192 41.0865L20.3736 38.9524L19.4988 38.468Z" fill="#D5C7AD" fill-opacity="0.5" mask="url(#path-15-inside-7_76_152)"/>
<mask id="path-17-inside-8_76_152" fill="white">
<path d="M22.7067 40.6021H22.2964V38.3809L21.603 40.6021H21.4347L20.7619 38.3809V40.6021H20.3516V37.6133H20.926L21.5373 39.5786L22.1569 37.6133H22.7149L22.7067 40.6021Z"/>
</mask>
<path d="M22.7067 40.6021H22.2964V38.3809L21.603 40.6021H21.4347L20.7619 38.3809V40.6021H20.3516V37.6133H20.926L21.5373 39.5786L22.1569 37.6133H22.7149L22.7067 40.6021Z" fill="#2D2D2D"/>
<path d="M22.7067 40.6021V41.6021H23.7039L23.7066 40.6049L22.7067 40.6021ZM22.2964 40.6021H21.2964V41.6021H22.2964V40.6021ZM22.2964 38.3809H23.2964L21.3418 38.0829L22.2964 38.3809ZM21.603 40.6021V41.6021H22.3384L22.5575 40.9001L21.603 40.6021ZM21.4347 40.6021L20.4777 40.892L20.6928 41.6021H21.4347V40.6021ZM20.7619 38.3809L21.7189 38.091L19.7619 38.3809H20.7619ZM20.7619 40.6021V41.6021H21.7619V40.6021H20.7619ZM20.3516 40.6021H19.3516V41.6021H20.3516V40.6021ZM20.3516 37.6133V36.6133H19.3516V37.6133H20.3516ZM20.926 37.6133L21.8808 37.3163L21.6622 36.6133H20.926V37.6133ZM21.5373 39.5786L20.5824 39.8756L21.531 42.9249L22.491 39.8793L21.5373 39.5786ZM22.1569 37.6133V36.6133H21.4236L21.2031 37.3126L22.1569 37.6133ZM22.7149 37.6133L23.7149 37.616L23.7176 36.6133H22.7149V37.6133ZM22.7067 40.6021V39.6021H22.2964V40.6021V41.6021H22.7067V40.6021ZM22.2964 40.6021H23.2964V38.3809H22.2964H21.2964V40.6021H22.2964ZM22.2964 38.3809L21.3418 38.0829L20.6484 40.3041L21.603 40.6021L22.5575 40.9001L23.2509 38.6789L22.2964 38.3809ZM21.603 40.6021V39.6021H21.4347V40.6021V41.6021H21.603V40.6021ZM21.4347 40.6021L22.3918 40.3122L21.7189 38.091L20.7619 38.3809L19.8048 38.6708L20.4777 40.892L21.4347 40.6021ZM20.7619 38.3809H19.7619V40.6021H20.7619H21.7619V38.3809H20.7619ZM20.7619 40.6021V39.6021H20.3516V40.6021V41.6021H20.7619V40.6021ZM20.3516 40.6021H21.3516V37.6133H20.3516H19.3516V40.6021H20.3516ZM20.3516 37.6133V38.6133H20.926V37.6133V36.6133H20.3516V37.6133ZM20.926 37.6133L19.9711 37.9103L20.5824 39.8756L21.5373 39.5786L22.4922 39.2816L21.8808 37.3163L20.926 37.6133ZM21.5373 39.5786L22.491 39.8793L23.1106 37.9139L22.1569 37.6133L21.2031 37.3126L20.5836 39.278L21.5373 39.5786ZM22.1569 37.6133V38.6133H22.7149V37.6133V36.6133H22.1569V37.6133ZM22.7149 37.6133L21.7149 37.6105L21.7067 40.5994L22.7067 40.6021L23.7066 40.6049L23.7149 37.616L22.7149 37.6133Z" fill="#D5C7AD" fill-opacity="0.5" mask="url(#path-17-inside-8_76_152)"/>
<mask id="path-19-inside-9_76_152" fill="white">
<path d="M25.0614 40.2155C24.8388 40.4914 24.5455 40.6449 24.2408 40.6449C23.9362 40.6449 23.6429 40.4914 23.4202 40.2155C23.2103 39.9138 23.0938 39.5182 23.0938 39.1076C23.0938 38.697 23.2103 38.3014 23.4202 37.9997C23.6429 37.7238 23.9362 37.5703 24.2408 37.5703C24.5455 37.5703 24.8388 37.7238 25.0614 37.9997C25.2713 38.3014 25.3879 38.697 25.3879 39.1076C25.3879 39.5182 25.2713 39.9138 25.0614 40.2155ZM24.2408 40.1883C24.3425 40.1936 24.4437 40.1691 24.5374 40.1163C24.631 40.0636 24.7147 39.9841 24.7824 39.8834C24.9156 39.6645 24.9883 39.3917 24.9883 39.1103C24.9883 38.829 24.9156 38.5561 24.7824 38.3373C24.7123 38.2404 24.6283 38.1634 24.5352 38.1108C24.4421 38.0581 24.342 38.031 24.2408 38.031C24.1397 38.031 24.0395 38.0581 23.9465 38.1108C23.8534 38.1634 23.7693 38.2404 23.6992 38.3373C23.5664 38.5574 23.494 38.831 23.494 39.113C23.494 39.3951 23.5664 39.6687 23.6992 39.8888C23.7669 39.9878 23.8501 40.0659 23.9429 40.1177C24.0358 40.1694 24.1361 40.1935 24.2367 40.1883H24.2408Z"/>
</mask>
<path d="M25.0614 40.2155C24.8388 40.4914 24.5455 40.6449 24.2408 40.6449C23.9362 40.6449 23.6429 40.4914 23.4202 40.2155C23.2103 39.9138 23.0938 39.5182 23.0938 39.1076C23.0938 38.697 23.2103 38.3014 23.4202 37.9997C23.6429 37.7238 23.9362 37.5703 24.2408 37.5703C24.5455 37.5703 24.8388 37.7238 25.0614 37.9997C25.2713 38.3014 25.3879 38.697 25.3879 39.1076C25.3879 39.5182 25.2713 39.9138 25.0614 40.2155ZM24.2408 40.1883C24.3425 40.1936 24.4437 40.1691 24.5374 40.1163C24.631 40.0636 24.7147 39.9841 24.7824 39.8834C24.9156 39.6645 24.9883 39.3917 24.9883 39.1103C24.9883 38.829 24.9156 38.5561 24.7824 38.3373C24.7123 38.2404 24.6283 38.1634 24.5352 38.1108C24.4421 38.0581 24.342 38.031 24.2408 38.031C24.1397 38.031 24.0395 38.0581 23.9465 38.1108C23.8534 38.1634 23.7693 38.2404 23.6992 38.3373C23.5664 38.5574 23.494 38.831 23.494 39.113C23.494 39.3951 23.5664 39.6687 23.6992 39.8888C23.7669 39.9878 23.8501 40.0659 23.9429 40.1177C24.0358 40.1694 24.1361 40.1935 24.2367 40.1883H24.2408Z" fill="#2D2D2D"/>
<path d="M25.0614 40.2155L25.8397 40.8434L25.862 40.8158L25.8823 40.7866L25.0614 40.2155ZM24.2408 40.6449L24.2408 39.6449L24.2408 40.6449ZM23.4202 40.2155L22.5994 40.7866L22.6197 40.8158L22.642 40.8434L23.4202 40.2155ZM23.4202 37.9997L22.642 37.3718L22.6197 37.3994L22.5994 37.4286L23.4202 37.9997ZM24.2408 37.5703L24.2408 38.5703L24.2408 37.5703ZM25.0614 37.9997L25.8823 37.4286L25.862 37.3994L25.8397 37.3718L25.0614 37.9997ZM24.2408 40.1883L24.2934 39.1896L24.2671 39.1883H24.2408V40.1883ZM24.7824 39.8834L25.6122 40.4415L25.6248 40.4227L25.6366 40.4033L24.7824 39.8834ZM24.7824 38.3373L25.6366 37.8173L25.6159 37.7833L25.5925 37.751L24.7824 38.3373ZM23.6992 38.3373L22.8891 37.751L22.8646 37.7849L22.843 37.8206L23.6992 38.3373ZM23.6992 39.8888L22.843 40.4055L22.8577 40.4298L22.8737 40.4532L23.6992 39.8888ZM24.2367 40.1883V39.1883H24.2108L24.1849 39.1896L24.2367 40.1883ZM25.0614 40.2155L24.2832 39.5875C24.2493 39.6294 24.2245 39.6444 24.2182 39.6476C24.2134 39.6502 24.2221 39.6449 24.2408 39.6449L24.2408 40.6449L24.2408 41.6449C24.8992 41.6449 25.462 41.3115 25.8397 40.8434L25.0614 40.2155ZM24.2408 40.6449L24.2408 39.6449C24.2595 39.6449 24.2683 39.6502 24.2634 39.6476C24.2572 39.6444 24.2323 39.6294 24.1985 39.5875L23.4202 40.2155L22.642 40.8434C23.0196 41.3115 23.5824 41.6449 24.2408 41.6449L24.2408 40.6449ZM23.4202 40.2155L24.2411 39.6444C24.1613 39.5296 24.0938 39.3389 24.0938 39.1076H23.0938H22.0938C22.0938 39.6975 22.2594 40.2979 22.5994 40.7866L23.4202 40.2155ZM23.0938 39.1076H24.0938C24.0938 38.8763 24.1613 38.6856 24.2411 38.5709L23.4202 37.9997L22.5994 37.4286C22.2594 37.9173 22.0938 38.5177 22.0938 39.1076H23.0938ZM23.4202 37.9997L24.1985 38.6277C24.2323 38.5858 24.2572 38.5708 24.2634 38.5676C24.2683 38.565 24.2595 38.5703 24.2408 38.5703L24.2408 37.5703L24.2408 36.5703C23.5824 36.5703 23.0196 36.9037 22.642 37.3718L23.4202 37.9997ZM24.2408 37.5703L24.2408 38.5703C24.2221 38.5703 24.2134 38.565 24.2182 38.5676C24.2245 38.5708 24.2493 38.5858 24.2832 38.6277L25.0614 37.9997L25.8397 37.3718C25.462 36.9037 24.8992 36.5703 24.2408 36.5703L24.2408 37.5703ZM25.0614 37.9997L24.2406 38.5709C24.3204 38.6856 24.3879 38.8763 24.3879 39.1076H25.3879H26.3879C26.3879 38.5177 26.2223 37.9173 25.8823 37.4286L25.0614 37.9997ZM25.3879 39.1076H24.3879C24.3879 39.339 24.3204 39.5296 24.2406 39.6444L25.0614 40.2155L25.8823 40.7866C26.2223 40.2979 26.3879 39.6975 26.3879 39.1076H25.3879ZM24.2408 40.1883L24.1882 41.1869C24.4901 41.2028 24.7786 41.1281 25.0279 40.9878L24.5374 40.1163L24.0468 39.2449C24.1088 39.21 24.1948 39.1845 24.2934 39.1896L24.2408 40.1883ZM24.5374 40.1163L25.0279 40.9878C25.2742 40.8491 25.4687 40.6548 25.6122 40.4415L24.7824 39.8834L23.9527 39.3253C23.9607 39.3134 23.9878 39.2781 24.0468 39.2449L24.5374 40.1163ZM24.7824 39.8834L25.6366 40.4033C25.8744 40.0127 25.9883 39.5565 25.9883 39.1103H24.9883H23.9883C23.9883 39.2268 23.9569 39.3164 23.9282 39.3635L24.7824 39.8834ZM24.9883 39.1103H25.9883C25.9883 38.6641 25.8744 38.208 25.6366 37.8173L24.7824 38.3373L23.9282 38.8572C23.9569 38.9043 23.9883 38.9938 23.9883 39.1103H24.9883ZM24.7824 38.3373L25.5925 37.751C25.4481 37.5515 25.2597 37.3716 25.0274 37.2403L24.5352 38.1108L24.043 38.9812C23.9968 38.9552 23.9765 38.9294 23.9723 38.9235L24.7824 38.3373ZM24.5352 38.1108L25.0274 37.2403C24.793 37.1078 24.5244 37.031 24.2408 37.031V38.031V39.031C24.1596 39.031 24.0912 39.0085 24.043 38.9812L24.5352 38.1108ZM24.2408 38.031V37.031C23.9573 37.031 23.6886 37.1078 23.4543 37.2403L23.9465 38.1108L24.4387 38.9812C24.3905 39.0085 24.3221 39.031 24.2408 39.031V38.031ZM23.9465 38.1108L23.4543 37.2403C23.222 37.3716 23.0335 37.5515 22.8891 37.751L23.6992 38.3373L24.5094 38.9235C24.5051 38.9294 24.4848 38.9552 24.4387 38.9812L23.9465 38.1108ZM23.6992 38.3373L22.843 37.8206C22.6071 38.2116 22.494 38.6671 22.494 39.113H23.494H24.494C24.494 38.9949 24.5257 38.9033 24.5554 38.8539L23.6992 38.3373ZM23.494 39.113H22.494C22.494 39.559 22.6071 40.0145 22.843 40.4055L23.6992 39.8888L24.5554 39.3722C24.5257 39.3228 24.494 39.2312 24.494 39.113H23.494ZM23.6992 39.8888L22.8737 40.4532C23.0175 40.6636 23.2116 40.8549 23.4563 40.9912L23.9429 40.1177L24.4296 39.2441C24.4886 39.2769 24.5163 39.312 24.5248 39.3245L23.6992 39.8888ZM23.9429 40.1177L23.4563 40.9912C23.7039 41.1292 23.9897 41.2024 24.2885 41.1869L24.2367 40.1883L24.1849 39.1896C24.2824 39.1845 24.3677 39.2096 24.4296 39.2441L23.9429 40.1177ZM24.2367 40.1883V41.1883H24.2408V40.1883V39.1883H24.2367V40.1883Z" fill="#D5C7AD" fill-opacity="0.5" mask="url(#path-19-inside-9_76_152)"/>
<mask id="path-21-inside-10_76_152" fill="white">
<path d="M26.8513 40.6555C26.6959 40.6619 26.5412 40.6272 26.396 40.5533C26.2509 40.4795 26.1183 40.368 26.0061 40.2254C25.7938 39.9231 25.6758 39.5252 25.6758 39.112C25.6758 38.6989 25.7938 38.301 26.0061 37.9987C26.118 37.8551 26.2504 37.7426 26.3956 37.6678C26.5407 37.593 26.6956 37.5575 26.8513 37.5632C27.034 37.5554 27.2148 37.6136 27.3745 37.7315C27.5342 37.8495 27.6667 38.0227 27.758 38.2328L27.4216 38.4615C27.364 38.3309 27.282 38.2221 27.1836 38.1457C27.0844 38.067 26.971 38.0255 26.8554 38.0259C26.7521 38.0225 26.6495 38.0479 26.5541 38.1004C26.4587 38.1529 26.3726 38.2314 26.3015 38.3308C26.1587 38.5448 26.0799 38.8208 26.0799 39.1066C26.0799 39.3924 26.1587 39.6684 26.3015 39.8824C26.3726 39.9818 26.4587 40.0603 26.5541 40.1128C26.6495 40.1653 26.7521 40.1907 26.8554 40.1873C26.9724 40.1889 27.0874 40.1475 27.1877 40.0675C27.2863 39.9913 27.3682 39.8825 27.4257 39.7517L27.7621 39.9804C27.6704 40.1915 27.5372 40.3658 27.3769 40.4846C27.2165 40.6035 27.0349 40.6625 26.8513 40.6555V40.6555Z"/>
</mask>
<path d="M26.8513 40.6555C26.6959 40.6619 26.5412 40.6272 26.396 40.5533C26.2509 40.4795 26.1183 40.368 26.0061 40.2254C25.7938 39.9231 25.6758 39.5252 25.6758 39.112C25.6758 38.6989 25.7938 38.301 26.0061 37.9987C26.118 37.8551 26.2504 37.7426 26.3956 37.6678C26.5407 37.593 26.6956 37.5575 26.8513 37.5632C27.034 37.5554 27.2148 37.6136 27.3745 37.7315C27.5342 37.8495 27.6667 38.0227 27.758 38.2328L27.4216 38.4615C27.364 38.3309 27.282 38.2221 27.1836 38.1457C27.0844 38.067 26.971 38.0255 26.8554 38.0259C26.7521 38.0225 26.6495 38.0479 26.5541 38.1004C26.4587 38.1529 26.3726 38.2314 26.3015 38.3308C26.1587 38.5448 26.0799 38.8208 26.0799 39.1066C26.0799 39.3924 26.1587 39.6684 26.3015 39.8824C26.3726 39.9818 26.4587 40.0603 26.5541 40.1128C26.6495 40.1653 26.7521 40.1907 26.8554 40.1873C26.9724 40.1889 27.0874 40.1475 27.1877 40.0675C27.2863 39.9913 27.3682 39.8825 27.4257 39.7517L27.7621 39.9804C27.6704 40.1915 27.5372 40.3658 27.3769 40.4846C27.2165 40.6035 27.0349 40.6625 26.8513 40.6555V40.6555Z" fill="#2D2D2D"/>
<path d="M26.0061 40.2254L25.1877 40.8L25.2034 40.8224L25.2203 40.8439L26.0061 40.2254ZM26.0061 37.9987L25.2174 37.3839L25.202 37.4036L25.1877 37.4241L26.0061 37.9987ZM26.8513 37.5632L26.8145 38.5625L26.8542 38.564L26.8938 38.5623L26.8513 37.5632ZM27.758 38.2328L28.3201 39.0599L29.0054 38.5942L28.6752 37.8343L27.758 38.2328ZM27.4216 38.4615L26.5066 38.865L26.991 39.9632L27.9837 39.2885L27.4216 38.4615ZM27.1836 38.1457L26.5617 38.9289L26.5703 38.9356L27.1836 38.1457ZM26.8554 38.0259L26.8224 39.0254L26.8406 39.026L26.8588 39.0259L26.8554 38.0259ZM26.3015 38.3308L25.4883 37.7489L25.4787 37.7622L25.4696 37.7759L26.3015 38.3308ZM26.0799 39.1066L25.0799 39.1066L26.0799 39.1066ZM26.3015 39.8824L25.4696 40.4373L25.4787 40.451L25.4883 40.4643L26.3015 39.8824ZM26.8554 40.1873L26.8697 39.1874L26.8461 39.187L26.8224 39.1878L26.8554 40.1873ZM27.1877 40.0675L26.5759 39.2765L26.57 39.2811L26.5642 39.2857L27.1877 40.0675ZM27.4257 39.7517L27.9878 38.9247L26.9937 38.249L26.5102 39.3495L27.4257 39.7517ZM27.7621 39.9804L28.6793 40.379L29.0095 39.6191L28.3242 39.1533L27.7621 39.9804ZM26.8513 40.6555L26.8098 39.6563C26.8207 39.6559 26.8307 39.6569 26.8387 39.6587C26.8466 39.6605 26.8503 39.6625 26.8496 39.6621L26.396 40.5533L25.9425 41.4446C26.2331 41.5925 26.5576 41.6685 26.8927 41.6546L26.8513 40.6555ZM26.396 40.5533L26.8496 39.6621C26.8478 39.6612 26.8248 39.6487 26.7918 39.6068L26.0061 40.2254L25.2203 40.8439C25.4119 41.0873 25.6541 41.2978 25.9425 41.4446L26.396 40.5533ZM26.0061 40.2254L26.8245 39.6507C26.7442 39.5364 26.6758 39.345 26.6758 39.112H25.6758H24.6758C24.6758 39.7055 24.8434 40.3097 25.1877 40.8L26.0061 40.2254ZM25.6758 39.112H26.6758C26.6758 38.8791 26.7442 38.6877 26.8245 38.5734L26.0061 37.9987L25.1877 37.4241C24.8434 37.9144 24.6758 38.5186 24.6758 39.112H25.6758ZM26.0061 37.9987L26.7948 38.6135C26.828 38.5709 26.8514 38.5579 26.8536 38.5568L26.3956 37.6678L25.9375 36.7789C25.6495 36.9273 25.408 37.1393 25.2174 37.3839L26.0061 37.9987ZM26.3956 37.6678L26.8536 38.5568C26.8546 38.5563 26.8511 38.5582 26.8433 38.56C26.8354 38.5618 26.8254 38.5629 26.8145 38.5625L26.8513 37.5632L26.888 36.5639C26.5523 36.5515 26.2277 36.6294 25.9375 36.7789L26.3956 37.6678ZM26.8513 37.5632L26.8938 38.5623C26.864 38.5636 26.8369 38.5591 26.8152 38.5522C26.7939 38.5453 26.7827 38.5376 26.7804 38.536L27.3745 37.7315L27.9685 36.9271C27.642 36.6859 27.2397 36.5458 26.8088 36.5641L26.8513 37.5632ZM27.3745 37.7315L26.7804 38.536C26.778 38.5342 26.8088 38.5575 26.8409 38.6313L27.758 38.2328L28.6752 37.8343C28.5247 37.488 28.2903 37.1647 27.9685 36.9271L27.3745 37.7315ZM27.758 38.2328L27.1959 37.4057L26.8595 37.6344L27.4216 38.4615L27.9837 39.2885L28.3201 39.0599L27.758 38.2328ZM27.4216 38.4615L28.3366 38.058C28.2218 37.7978 28.0444 37.548 27.7969 37.3559L27.1836 38.1457L26.5703 38.9356C26.5444 38.9155 26.5283 38.8971 26.5193 38.8851C26.5103 38.8732 26.507 38.8658 26.5066 38.865L27.4216 38.4615ZM27.1836 38.1457L27.8055 37.3626C27.5467 37.1571 27.2167 37.0247 26.852 37.0259L26.8554 38.0259L26.8588 39.0259C26.7253 39.0264 26.6222 38.9768 26.5617 38.9288L27.1836 38.1457ZM26.8554 38.0259L26.8883 37.0265C26.5955 37.0168 26.3159 37.09 26.0719 37.2244L26.5541 38.1004L27.0363 38.9765C26.9831 39.0058 26.9087 39.0282 26.8224 39.0254L26.8554 38.0259ZM26.5541 38.1004L26.0719 37.2244C25.8303 37.3573 25.6357 37.5429 25.4883 37.7489L26.3015 38.3308L27.1147 38.9128C27.1095 38.92 27.087 38.9486 27.0363 38.9765L26.5541 38.1004ZM26.3015 38.3308L25.4696 37.7759C25.2052 38.1722 25.0799 38.646 25.0799 39.1066L26.0799 39.1066L27.0799 39.1066C27.0799 38.9955 27.1122 38.9175 27.1334 38.8857L26.3015 38.3308ZM26.0799 39.1066L25.0799 39.1066C25.0799 39.5672 25.2052 40.041 25.4696 40.4373L26.3015 39.8824L27.1334 39.3275C27.1122 39.2957 27.0799 39.2177 27.0799 39.1066L26.0799 39.1066ZM26.3015 39.8824L25.4883 40.4643C25.6357 40.6703 25.8303 40.8559 26.0719 40.9888L26.5541 40.1128L27.0363 39.2367C27.087 39.2646 27.1095 39.2932 27.1147 39.3004L26.3015 39.8824ZM26.5541 40.1128L26.0719 40.9888C26.3159 41.1231 26.5955 41.1964 26.8883 41.1867L26.8554 40.1873L26.8224 39.1878C26.9087 39.185 26.9831 39.2074 27.0363 39.2367L26.5541 40.1128ZM26.8554 40.1873L26.8411 41.1872C27.2122 41.1925 27.5486 41.0588 27.8113 40.8493L27.1877 40.0675L26.5642 39.2857C26.6263 39.2362 26.7325 39.1854 26.8697 39.1874L26.8554 40.1873ZM27.1877 40.0675L27.7996 40.8584C28.0485 40.6659 28.2265 40.415 28.3412 40.154L27.4257 39.7517L26.5102 39.3495C26.5107 39.3483 26.5142 39.3406 26.5235 39.3282C26.5328 39.3159 26.5494 39.297 26.5759 39.2765L27.1877 40.0675ZM27.4257 39.7517L26.8636 40.5788L27.2 40.8075L27.7621 39.9804L28.3242 39.1533L27.9878 38.9247L27.4257 39.7517ZM27.7621 39.9804L26.845 39.5818C26.8123 39.6571 26.7806 39.6818 26.7814 39.6812L27.3769 40.4846L27.9723 41.288C28.2939 41.0497 28.5285 40.726 28.6793 40.379L27.7621 39.9804ZM27.3769 40.4846L26.7814 39.6812C26.7829 39.6801 26.7933 39.6728 26.8137 39.6662C26.8344 39.6595 26.8606 39.6551 26.8896 39.6562L26.8513 40.6555L26.813 41.6547C27.2441 41.6713 27.646 41.5299 27.9723 41.288L27.3769 40.4846Z" fill="#D5C7AD" fill-opacity="0.5" mask="url(#path-21-inside-10_76_152)"/>
<mask id="path-23-inside-11_76_152" fill="white">
<path d="M29.0047 40.6021H28.5944V38.076H27.9297V37.6133H29.6899V38.076H29.0047V40.6021Z"/>
</mask>
<path d="M29.0047 40.6021H28.5944V38.076H27.9297V37.6133H29.6899V38.076H29.0047V40.6021Z" fill="#2D2D2D"/>
<path d="M29.0047 40.6021V41.6021H30.0047V40.6021H29.0047ZM28.5944 40.6021H27.5944V41.6021H28.5944V40.6021ZM28.5944 38.076H29.5944V37.076H28.5944V38.076ZM27.9297 38.076H26.9297V39.076H27.9297V38.076ZM27.9297 37.6133V36.6133H26.9297V37.6133H27.9297ZM29.6899 37.6133H30.6899V36.6133H29.6899V37.6133ZM29.6899 38.076V39.076H30.6899V38.076H29.6899ZM29.0047 38.076V37.076H28.0047V38.076H29.0047ZM29.0047 40.6021V39.6021H28.5944V40.6021V41.6021H29.0047V40.6021ZM28.5944 40.6021H29.5944V38.076H28.5944H27.5944V40.6021H28.5944ZM28.5944 38.076V37.076H27.9297V38.076V39.076H28.5944V38.076ZM27.9297 38.076H28.9297V37.6133H27.9297H26.9297V38.076H27.9297ZM27.9297 37.6133V38.6133H29.6899V37.6133V36.6133H27.9297V37.6133ZM29.6899 37.6133H28.6899V38.076H29.6899H30.6899V37.6133H29.6899ZM29.6899 38.076V37.076H29.0047V38.076V39.076H29.6899V38.076ZM29.0047 38.076H28.0047V40.6021H29.0047H30.0047V38.076H29.0047Z" fill="#D5C7AD" fill-opacity="0.5" mask="url(#path-23-inside-11_76_152)"/>
<mask id="path-25-inside-12_76_152" fill="white">
<path d="M30.0215 37.6133H30.4318V38.7021H31.0267C31.1256 38.6955 31.2245 38.7163 31.317 38.7632C31.4096 38.8101 31.4937 38.882 31.5642 38.9743C31.6911 39.1556 31.7616 39.3938 31.7616 39.6412C31.7616 39.8886 31.6911 40.1269 31.5642 40.3081C31.4932 40.3992 31.4089 40.47 31.3164 40.5159C31.2239 40.5618 31.1253 40.5818 31.0267 40.5749H30.0215V37.6133ZM30.957 39.1975H30.4154V40.1502H30.957C31.0576 40.1529 31.1554 40.1064 31.2319 40.0196C31.2665 39.9745 31.294 39.9207 31.3127 39.8613C31.3315 39.802 31.3412 39.7383 31.3412 39.6739C31.3412 39.6095 31.3315 39.5458 31.3127 39.4864C31.294 39.4271 31.2665 39.3733 31.2319 39.3282C31.1554 39.2414 31.0576 39.1949 30.957 39.1975Z"/>
</mask>
<path d="M30.0215 37.6133H30.4318V38.7021H31.0267C31.1256 38.6955 31.2245 38.7163 31.317 38.7632C31.4096 38.8101 31.4937 38.882 31.5642 38.9743C31.6911 39.1556 31.7616 39.3938 31.7616 39.6412C31.7616 39.8886 31.6911 40.1269 31.5642 40.3081C31.4932 40.3992 31.4089 40.47 31.3164 40.5159C31.2239 40.5618 31.1253 40.5818 31.0267 40.5749H30.0215V37.6133ZM30.957 39.1975H30.4154V40.1502H30.957C31.0576 40.1529 31.1554 40.1064 31.2319 40.0196C31.2665 39.9745 31.294 39.9207 31.3127 39.8613C31.3315 39.802 31.3412 39.7383 31.3412 39.6739C31.3412 39.6095 31.3315 39.5458 31.3127 39.4864C31.294 39.4271 31.2665 39.3733 31.2319 39.3282C31.1554 39.2414 31.0576 39.1949 30.957 39.1975Z" fill="#2D2D2D"/>
<path d="M30.0215 37.6133V36.6133H29.0215V37.6133H30.0215ZM30.4318 37.6133H31.4318V36.6133H30.4318V37.6133ZM30.4318 38.7021H29.4318V39.7021H30.4318V38.7021ZM31.0267 38.7021V39.7021H31.0599L31.0931 39.6999L31.0267 38.7021ZM31.5642 38.9743L32.3834 38.4008L32.3717 38.3841L32.3593 38.3678L31.5642 38.9743ZM31.5642 40.3081L32.3532 40.9225L32.3688 40.9025L32.3834 40.8816L31.5642 40.3081ZM31.0267 40.5749L31.0971 39.5774L31.062 39.5749H31.0267V40.5749ZM30.0215 40.5749H29.0215V41.5749H30.0215V40.5749ZM30.957 39.1975V40.1975H30.9701L30.9833 40.1972L30.957 39.1975ZM30.4154 39.1975V38.1975H29.4154V39.1975H30.4154ZM30.4154 40.1502H29.4154V41.1502H30.4154V40.1502ZM30.957 40.1502L30.9833 39.1506L30.9701 39.1502H30.957V40.1502ZM31.2319 40.0196L31.9823 40.6805L32.0046 40.6552L32.0252 40.6284L31.2319 40.0196ZM31.2319 39.3282L32.0252 38.7194L32.0046 38.6926L31.9823 38.6672L31.2319 39.3282ZM30.0215 37.6133V38.6133H30.4318V37.6133V36.6133H30.0215V37.6133ZM30.4318 37.6133H29.4318V38.7021H30.4318H31.4318V37.6133H30.4318ZM30.4318 38.7021V39.7021H31.0267V38.7021V37.7021H30.4318V38.7021ZM31.0267 38.7021L31.0931 39.6999C31.0045 39.7058 30.9251 39.6856 30.8652 39.6553L31.317 38.7632L31.7688 37.8711C31.5239 37.747 31.2468 37.6853 30.9603 37.7043L31.0267 38.7021ZM31.317 38.7632L30.8652 39.6553C30.8079 39.6263 30.779 39.5938 30.7691 39.5808L31.5642 38.9743L32.3593 38.3678C32.2084 38.1701 32.0112 37.9938 31.7688 37.8711L31.317 38.7632ZM31.5642 38.9743L30.745 39.5478C30.741 39.5421 30.7458 39.5473 30.7516 39.5668C30.7572 39.5858 30.7616 39.6115 30.7616 39.6412H31.7616H32.7616C32.7616 39.2139 32.6417 38.7698 32.3834 38.4008L31.5642 38.9743ZM31.7616 39.6412H30.7616C30.7616 39.6709 30.7572 39.6966 30.7516 39.7156C30.7459 39.7351 30.741 39.7404 30.745 39.7347L31.5642 40.3081L32.3834 40.8816C32.6417 40.5127 32.7616 40.0685 32.7616 39.6412H31.7616ZM31.5642 40.3081L30.7752 39.6937C30.7855 39.6805 30.8147 39.6485 30.8718 39.6201L31.3164 40.5159L31.761 41.4116C32.0031 41.2914 32.201 41.1179 32.3532 40.9225L31.5642 40.3081ZM31.3164 40.5159L30.8718 39.6201C30.9315 39.5905 31.01 39.5712 31.0971 39.5774L31.0267 40.5749L30.9563 41.5724C31.2406 41.5925 31.5164 41.533 31.761 41.4116L31.3164 40.5159ZM31.0267 40.5749V39.5749H30.0215V40.5749V41.5749H31.0267V40.5749ZM30.0215 40.5749H31.0215V37.6133H30.0215H29.0215V40.5749H30.0215ZM30.957 39.1975V38.1975H30.4154V39.1975V40.1975H30.957V39.1975ZM30.4154 39.1975H29.4154V40.1502H30.4154H31.4154V39.1975H30.4154ZM30.4154 40.1502V41.1502H30.957V40.1502V39.1502H30.4154V40.1502ZM30.957 40.1502L30.9306 41.1499C31.3737 41.1616 31.7426 40.9527 31.9823 40.6805L31.2319 40.0196L30.4814 39.3586C30.5682 39.2601 30.7414 39.1442 30.9833 39.1506L30.957 40.1502ZM31.2319 40.0196L32.0252 40.6284C32.1371 40.4826 32.2157 40.3226 32.2662 40.1628L31.3127 39.8613L30.3592 39.5599C30.3722 39.5188 30.3958 39.4664 30.4385 39.4108L31.2319 40.0196ZM31.3127 39.8613L32.2662 40.1628C32.3168 40.0026 32.3412 39.837 32.3412 39.6739H31.3412H30.3412C30.3412 39.6395 30.3461 39.6013 30.3592 39.5599L31.3127 39.8613ZM31.3412 39.6739H32.3412C32.3412 39.5107 32.3168 39.3451 32.2662 39.185L31.3127 39.4864L30.3592 39.7879C30.3461 39.7465 30.3412 39.7083 30.3412 39.6739H31.3412ZM31.3127 39.4864L32.2662 39.185C32.2157 39.0252 32.1371 38.8652 32.0252 38.7194L31.2319 39.3282L30.4385 39.937C30.3958 39.8813 30.3722 39.829 30.3592 39.7879L31.3127 39.4864ZM31.2319 39.3282L31.9823 38.6672C31.7426 38.3951 31.3737 38.1862 30.9306 38.1979L30.957 39.1975L30.9833 40.1972C30.7414 40.2035 30.5682 40.0876 30.4814 39.9891L31.2319 39.3282Z" fill="#D5C7AD" fill-opacity="0.5" mask="url(#path-25-inside-12_76_152)"/>
<path d="M52.8615 24.0736C52.8813 23.4468 52.8016 22.8216 52.6278 22.2382C52.4539 21.6549 52.1897 21.1265 51.8522 20.6873C51.496 20.248 51.0775 19.9072 50.621 19.6848C50.1645 19.4623 49.6792 19.3627 49.1935 19.3916H44.59C44.5029 19.3916 44.4194 19.4375 44.3579 19.5192C44.2963 19.6009 44.2617 19.7116 44.2617 19.8271V33.8675C44.2617 33.9831 44.2963 34.0938 44.3579 34.1755C44.4194 34.2572 44.5029 34.3031 44.59 34.3031H45.9029C45.9899 34.3031 46.0734 34.2572 46.135 34.1755C46.1966 34.0938 46.2311 33.9831 46.2311 33.8675V28.7392H48.1841L50.5803 34.0853C50.6105 34.1527 50.6539 34.208 50.7059 34.2454C50.7579 34.2828 50.8166 34.3008 50.8757 34.2976H52.3691C52.4275 34.2975 52.4849 34.2768 52.5352 34.2375C52.5855 34.1982 52.6271 34.1418 52.6555 34.0741C52.6839 34.0065 52.6982 33.9299 52.6969 33.8525C52.6956 33.775 52.6788 33.6994 52.6481 33.6334L50.2151 28.4452C50.9448 28.2911 51.6118 27.8063 52.1024 27.0733C52.6343 26.2382 52.9058 25.1653 52.8615 24.0736V24.0736ZM50.3013 25.7939C49.9212 26.2362 49.4278 26.468 48.9227 26.4418H46.2311V21.7054H48.9227C49.4277 21.6796 49.921 21.9115 50.3013 22.3532C50.472 22.5788 50.6074 22.8469 50.6998 23.1421C50.7922 23.4374 50.8398 23.7539 50.8398 24.0736C50.8398 24.3932 50.7922 24.7098 50.6998 25.005C50.6074 25.3002 50.472 25.5683 50.3013 25.7939V25.7939Z" fill="#D5C7AD"/>
<path d="M49.2236 19.8906C49.6197 19.8671 50.0198 19.9474 50.4023 20.1338C50.7841 20.3198 51.1447 20.6101 51.459 20.9961C51.7542 21.3815 51.9909 21.8523 52.1484 22.3809C52.3065 22.9112 52.3794 23.4829 52.3613 24.0576L52.8613 24.0732L52.3623 24.0938C52.4027 25.0902 52.154 26.0561 51.6865 26.7949C51.2542 27.4408 50.6904 27.8338 50.1113 27.9561L49.4941 28.0859L49.7627 28.6572L52.1729 33.7979H50.999L48.6406 28.5352L48.5078 28.2393H45.7314V33.8027H44.7617V19.8916H49.208L49.2236 19.8906ZM48.9229 21.2051H45.7314V26.9414H48.8965L49.0244 26.9434C49.6601 26.9359 50.2461 26.6257 50.6807 26.1201L50.3008 25.7939L50.7002 26.0957C50.9087 25.8201 51.0688 25.4993 51.1768 25.1543C51.2848 24.8091 51.3398 24.4419 51.3398 24.0732C51.3398 23.7048 51.2847 23.3381 51.1768 22.9932C51.0688 22.6483 50.9086 22.3273 50.7002 22.0518L50.6904 22.0391L50.6807 22.0273L50.498 21.8359C50.0628 21.4209 49.5118 21.1826 48.9229 21.2051Z" stroke="#D5C7AD" stroke-opacity="0.5"/>
<path d="M63.6246 19.4023H62.3937C62.3067 19.4023 62.2232 19.4482 62.1616 19.5299C62.1001 19.6116 62.0655 19.7224 62.0655 19.8379V28.3362C62.1091 29.3718 61.8588 30.3915 61.3639 31.1943C60.8154 31.8689 60.0952 32.2437 59.3473 32.2437C58.5994 32.2437 57.8792 31.8689 57.3307 31.1943C56.831 30.3944 56.5775 29.3735 56.6209 28.3362V19.8379C56.6209 19.7224 56.5863 19.6116 56.5248 19.5299C56.4632 19.4482 56.3797 19.4023 56.2927 19.4023H55.0618C54.9747 19.4023 54.8912 19.4482 54.8297 19.5299C54.7681 19.6116 54.7335 19.7224 54.7335 19.8379V28.4287C54.6663 30.072 55.0876 31.6847 55.907 32.9201C56.6893 34.0089 57.8367 34.5533 59.3494 34.5533C60.862 34.5533 62.004 34.0089 62.7753 32.9201C63.5576 31.8313 63.9488 30.3269 63.9488 28.4069V19.8379C63.9488 19.7233 63.9147 19.6133 63.8541 19.5318C63.7934 19.4503 63.711 19.4038 63.6246 19.4023V19.4023Z" fill="#D5C7AD"/>
<path d="M56.1211 19.9023V28.3359C56.0781 29.4563 56.3514 30.5705 56.9062 31.459L56.9229 31.4854L56.9424 31.5098C57.5685 32.2799 58.4239 32.7441 59.3477 32.7441C60.2713 32.744 61.1259 32.2798 61.752 31.5098L61.7725 31.4844L61.7891 31.457C62.2725 30.6729 62.5408 29.7167 62.5684 28.7363L62.5654 28.3154V19.9023H63.4492V28.4072C63.4492 30.2658 63.0689 31.6538 62.3691 32.6279L62.3672 32.6309C61.7032 33.5681 60.725 34.0537 59.3496 34.0537C58.06 34.0537 57.1131 33.6267 56.4434 32.7988L56.3135 32.6279C55.5653 31.4917 55.1702 29.9922 55.2334 28.4492V19.9023H56.1211Z" stroke="#D5C7AD" stroke-opacity="0.5"/>
<path d="M38.5427 28.4219H36.959V34.2961H38.5427C38.6962 34.2961 38.8433 34.2152 38.9518 34.0713C39.0603 33.9273 39.1212 33.7321 39.1212 33.5285V29.1732C39.118 28.9724 39.0556 28.7813 38.9475 28.6409C38.8394 28.5005 38.694 28.4218 38.5427 28.4219V28.4219Z" fill="#D5C7AD"/>
<path d="M38.5273 28.9219C38.5322 28.9255 38.5413 28.9327 38.5518 28.9463C38.5772 28.9794 38.6024 29.0345 38.6143 29.1055L38.6211 29.1816V33.5283C38.6211 33.638 38.5875 33.7243 38.5527 33.7705C38.5419 33.7849 38.5324 33.7921 38.5273 33.7959H37.459V28.9219H38.5273Z" stroke="#D5C7AD" stroke-opacity="0.5"/>
<path d="M11.4021 19.4039H10.3518C10.2647 19.4039 10.1812 19.4498 10.1197 19.5314C10.0581 19.6131 10.0236 19.7239 10.0236 19.8394V29.7477L5.13284 19.5999C5.10336 19.5385 5.06275 19.4879 5.01473 19.4527C4.96671 19.4175 4.9128 19.3989 4.85795 19.3984H3.62706C3.54001 19.3984 3.45652 19.4443 3.39497 19.526C3.33341 19.6077 3.29883 19.7185 3.29883 19.834V33.8689C3.29883 33.9844 3.33341 34.0952 3.39497 34.1769C3.45652 34.2586 3.54001 34.3045 3.62706 34.3045H4.68152C4.76857 34.3045 4.85206 34.2586 4.91362 34.1769C4.97517 34.0952 5.00976 33.9844 5.00976 33.8689V23.6721L9.98252 34.103C10.0125 34.1634 10.0533 34.2129 10.1013 34.2471C10.1493 34.2814 10.2029 34.2992 10.2574 34.299H11.4021C11.4892 34.299 11.5727 34.2531 11.6342 34.1714C11.6958 34.0898 11.7304 33.979 11.7304 33.8635V19.8394C11.7304 19.7239 11.6958 19.6131 11.6342 19.5314C11.5727 19.4498 11.4892 19.4039 11.4021 19.4039Z" fill="#2D2D2D"/>
<path d="M4.72168 19.8984L9.57324 29.9648L10.5234 29.748V19.9043H11.2305V33.7988H10.3916L5.46094 23.457L4.50977 23.6719V33.8047H3.79883V19.8984H4.72168Z" stroke="#D5C7AD" stroke-opacity="0.5"/>
<path d="M17.3479 19.4035H13.922C13.8349 19.4035 13.7514 19.4494 13.6899 19.5311C13.6283 19.6128 13.5938 19.7236 13.5938 19.8391V33.8686C13.5938 33.9841 13.6283 34.0949 13.6899 34.1765C13.7514 34.2582 13.8349 34.3041 13.922 34.3041H17.3479C18.0794 34.3423 18.8088 34.177 19.4893 33.8189C20.1698 33.4607 20.7862 32.9176 21.2991 32.2244C21.8066 31.5085 22.2015 30.6655 22.4607 29.7448C22.72 28.8241 22.8383 27.8441 22.809 26.862C22.839 25.8756 22.7202 24.8912 22.4595 23.9665C22.1988 23.0419 21.8015 22.1958 21.2909 21.4777C20.7785 20.7872 20.1632 20.2461 19.4842 19.889C18.8053 19.5318 18.0777 19.3665 17.3479 19.4035V19.4035ZM19.9615 30.5259C19.6369 31.0158 19.2336 31.4027 18.7812 31.6581C18.3289 31.9134 17.839 32.0307 17.3479 32.0012H15.4237V21.7064H17.3479C17.8416 21.6712 18.335 21.7836 18.7916 22.0352C19.2482 22.2867 19.6564 22.6711 19.9861 23.16C20.6346 24.1987 20.9695 25.5198 20.9257 26.8674C20.9589 28.2037 20.6151 29.5083 19.9615 30.5259Z" fill="#2D2D2D"/>
<path d="M17.3477 19.4033L17.373 19.9033C18.0085 19.8711 18.6475 20.0137 19.251 20.3311C19.8532 20.6479 20.411 21.1341 20.8828 21.7676H20.8838C21.3582 22.4348 21.732 23.2282 21.9785 24.1025C22.2249 24.9766 22.3381 25.91 22.3096 26.8467L22.3086 26.8623L22.3096 26.877C22.3375 27.8096 22.2246 28.7389 21.9795 29.6094C21.7354 30.4762 21.3661 31.2633 20.8975 31.9268C20.424 32.5667 19.8629 33.0569 19.2568 33.376C18.6519 33.6944 18.0111 33.838 17.374 33.8047L17.3613 33.8037H14.0938V19.9033H17.3477V19.4033ZM17.3477 21.2061H14.9238V32.501H17.3477V32.5C17.9302 32.5292 18.5049 32.3887 19.0273 32.0938C19.557 31.7947 20.0155 31.3488 20.3779 30.8018L20.3818 30.7959C21.0903 29.6928 21.4556 28.2992 21.4258 26.8838C21.4724 25.4476 21.1164 24.0267 20.4102 22.8955L20.4053 22.8877L20.4004 22.8809L20.2578 22.6807C19.915 22.2264 19.5009 21.8554 19.0332 21.5977C18.5074 21.308 17.9308 21.1714 17.3477 21.2061Z" stroke="#D5C7AD" stroke-opacity="0.5"/>
<path d="M33.4429 19.4023H32.0643C31.9957 19.402 31.9287 19.4301 31.8728 19.4828C31.8168 19.5356 31.7748 19.6102 31.7525 19.6963L28.6712 31.4665L25.5816 19.6963C25.5594 19.6102 25.5173 19.5356 25.4613 19.4828C25.4054 19.4301 25.3384 19.402 25.2698 19.4023H23.8953C23.8428 19.4026 23.7911 19.4196 23.7445 19.4519C23.698 19.4842 23.658 19.5308 23.6278 19.5879C23.5977 19.645 23.5783 19.7108 23.5713 19.7799C23.5643 19.849 23.5699 19.9193 23.5876 19.9849L27.4485 34.0144C27.4712 34.0986 27.513 34.1715 27.568 34.2231C27.6231 34.2747 27.6888 34.3026 27.7562 34.3029H29.582C29.6494 34.3026 29.7151 34.2747 29.7702 34.2231C29.8252 34.1715 29.867 34.0986 29.8897 34.0144L33.7506 19.9849C33.7683 19.9193 33.7739 19.849 33.7669 19.7799C33.76 19.7108 33.7406 19.645 33.7104 19.5879C33.6803 19.5308 33.6402 19.4842 33.5937 19.4519C33.5471 19.4196 33.4954 19.4026 33.4429 19.4023V19.4023Z" fill="#2D2D2D"/>
<path d="M25.1182 19.9023L28.1875 31.5938L28.6719 33.4385L29.1553 31.5928L32.2158 19.9023H33.2549L29.4287 33.8027H27.9092L24.083 19.9023H25.1182Z" stroke="#D5C7AD" stroke-opacity="0.5"/>
<path d="M35.4412 28.4258C35.2906 28.43 35.1472 28.512 35.0415 28.6544C34.9358 28.7967 34.876 28.9881 34.875 29.188V33.5433C34.8771 33.7422 34.9373 33.9322 35.0429 34.0734C35.1485 34.2145 35.2913 34.2958 35.4412 34.3H36.9634V28.4258H35.4412Z" fill="#2D2D2D"/>
<path d="M36.4639 28.9258V33.7998H35.4688C35.4636 33.7959 35.4543 33.7881 35.4434 33.7734C35.4179 33.7393 35.3922 33.684 35.3809 33.6133L35.375 33.5381V29.1904C35.3756 29.083 35.4081 28.9982 35.4424 28.9521C35.4536 28.9371 35.4636 28.9297 35.4688 28.9258H36.4639Z" stroke="#D5C7AD" stroke-opacity="0.5"/>
</svg>
