<svg width="120" height="35" viewBox="0 0 120 35" fill="none" xmlns="http://www.w3.org/2000/svg">
<path d="M26.6803 17.3563H34.8684V14.6589H26.6803V11.1097H35.4784V8.39844H23.3867V24.4132H35.7922V21.7158H26.6803V17.3563Z" fill="#D5C7AD"/>
<path d="M34.9785 8.89844V10.6094H26.1807V15.1592H34.3682V16.8564H26.1807V22.2158H35.292V23.9131H23.8867V8.89844H34.9785Z" stroke="#D5C7AD" stroke-opacity="0.5"/>
<path d="M41.9674 8.52734H38.6738V24.4105H50.1555V21.7131H41.9674V8.52734Z" fill="#D5C7AD"/>
<path d="M41.4678 9.02734V22.2129H49.6553V23.9102H39.1738V9.02734H41.4678Z" stroke="#D5C7AD" stroke-opacity="0.5"/>
<path d="M55.694 8.39844H52.4004V24.4132H55.694V8.39844Z" fill="#D5C7AD"/>
<path d="M55.1943 8.89844V23.9131H52.9004V8.89844H55.1943Z" stroke="#D5C7AD" stroke-opacity="0.5"/>
<path d="M68.0333 8.63736C67.4245 8.47808 66.1186 8.39844 64.1156 8.39844H58.8262V24.4132H62.1197V18.3709H64.2672C65.418 18.3982 66.5689 18.3217 67.7054 18.1423C68.3197 18.0028 68.8998 17.745 69.4121 17.384C69.9963 16.9744 70.4717 16.4329 70.798 15.805C71.1848 15.0352 71.3725 14.1837 71.3445 13.3258C71.3941 12.2123 71.0613 11.1148 70.3995 10.2094C69.8176 9.43459 68.9822 8.87961 68.0333 8.63736V8.63736ZM67.5608 14.6139C67.3082 14.9737 66.9486 15.2482 66.5311 15.3999C66.0939 15.5684 65.2264 15.6527 63.9287 15.6527H62.1268V11.1062H63.7171C64.5087 11.085 65.3009 11.1221 66.0868 11.217C66.5969 11.2995 67.0632 11.5498 67.4092 11.9269C67.7633 12.3244 67.9499 12.8395 67.9311 13.3673C67.9412 13.8104 67.8119 14.2457 67.5608 14.6139V14.6139Z" fill="#D5C7AD"/>
<path d="M68.0332 8.6377L67.9092 9.12207C68.7469 9.33593 69.4825 9.82491 69.9951 10.5049H69.9961C70.591 11.3191 70.8892 12.3048 70.8447 13.3037L70.8438 13.3232L70.8447 13.3418C70.8699 14.1137 70.7018 14.8804 70.3545 15.5742C70.0656 16.1301 69.644 16.6108 69.125 16.9746L69.124 16.9756C68.6685 17.2966 68.1523 17.5257 67.6055 17.6514C66.5059 17.8236 65.3926 17.8976 64.2793 17.8711H61.6201V23.9131H59.3262V8.89844H64.1152C66.1322 8.89844 67.3719 8.98104 67.9072 9.12109L68.0332 8.6377ZM63.7041 10.6064H61.627V16.1523H63.9287C64.5866 16.1523 65.1451 16.1311 65.6006 16.0869C66.0428 16.044 66.4195 15.976 66.7012 15.8691L66.7021 15.8701C67.2147 15.6839 67.6576 15.3458 67.9697 14.9014L67.5605 14.6143L67.9736 14.8955C68.2832 14.4416 68.4432 13.9035 68.4307 13.3555C68.4462 12.7083 68.2146 12.0802 67.7822 11.5947L67.7773 11.5889L67.6123 11.4238C67.2119 11.0555 66.7093 10.8114 66.167 10.7236L66.1562 10.7217L66.1465 10.7207L65.5381 10.6582C64.9284 10.6072 64.3161 10.5901 63.7041 10.6064Z" stroke="#D5C7AD" stroke-opacity="0.5"/>
<path d="M81.2493 8.12295C80.0424 8.09858 78.8429 8.31412 77.723 8.75662C76.9249 9.0898 76.2049 9.58004 75.6072 10.1971C74.9723 10.8348 74.4578 11.5781 74.0874 12.3924C73.5543 13.6976 73.3021 15.097 73.3469 16.5026C73.3469 19.0418 74.0627 21.0432 75.4944 22.5068C76.926 23.9703 78.8549 24.6963 81.281 24.6848C83.6766 24.6848 85.5902 23.9542 87.0219 22.4929C88.4535 21.0317 89.1694 19.0084 89.1694 16.4229C89.1694 13.8167 88.4477 11.7807 87.0042 10.3148C85.5608 8.84895 83.6425 8.11834 81.2493 8.12295ZM84.5147 20.5296C84.1027 20.9706 83.6019 21.3228 83.0441 21.5637C82.4862 21.8045 81.8834 21.9289 81.274 21.9289C80.6646 21.9289 80.0618 21.8045 79.5039 21.5637C78.946 21.3228 78.4452 20.9706 78.0333 20.5296C77.1799 19.5947 76.7533 18.22 76.7533 16.4056C76.7533 14.5912 77.1682 13.213 77.998 12.2712C78.4229 11.8401 78.9316 11.4973 79.4941 11.2631C80.0566 11.029 80.6613 10.9084 81.2722 10.9084C81.8831 10.9084 82.4878 11.029 83.0503 11.2631C83.6128 11.4973 84.1216 11.8401 84.5464 12.2712C85.3668 13.1738 85.7771 14.5427 85.7771 16.3779C85.7771 18.2131 85.3563 19.597 84.5147 20.5296Z" fill="#D5C7AD"/>
<path d="M81.2725 10.4082C80.5958 10.4082 79.9253 10.5422 79.3018 10.8018C78.6783 11.0613 78.1134 11.4411 77.6416 11.9199L77.6318 11.9307L77.623 11.9404C76.6834 13.0069 76.253 14.5227 76.2529 16.4053C76.2529 18.2906 76.6965 19.806 77.6641 20.8662V20.8672L77.668 20.8711C78.1272 21.3627 78.6851 21.7545 79.3057 22.0225C79.9263 22.2905 80.597 22.4287 81.2744 22.4287C81.9517 22.4287 82.6217 22.2904 83.2422 22.0225C83.8628 21.7545 84.4206 21.3627 84.8799 20.8711L84.8857 20.8643C85.8413 19.8053 86.2773 18.2807 86.2773 16.3779C86.2773 14.4794 85.8537 12.9661 84.916 11.9346L84.9092 11.9277L84.9023 11.9199C84.4305 11.4412 83.8656 11.0613 83.2422 10.8018C82.6188 10.5423 81.949 10.4082 81.2725 10.4082ZM73.8467 16.4863C73.8045 15.1577 74.0414 13.8347 74.543 12.5996C74.8885 11.8398 75.3688 11.1456 75.9619 10.5498L75.9668 10.5449C76.5158 9.97814 77.177 9.52589 77.9111 9.21875C78.9679 8.80196 80.1002 8.60004 81.2393 8.62305H81.25C83.5327 8.61864 85.3147 9.31155 86.6484 10.666C87.9766 12.015 88.6689 13.9115 88.6689 16.4229C88.6689 18.9134 87.9824 20.7978 86.665 22.1426C85.3435 23.4914 83.5672 24.1845 81.2812 24.1846H81.2783C78.9607 24.1955 77.1712 23.5062 75.8516 22.1572C74.5322 20.8085 73.8467 18.9444 73.8467 16.5029V16.4863Z" stroke="#D5C7AD" stroke-opacity="0.5"/>
<path d="M102.563 18.6968C102.045 18.1671 101.451 17.7145 100.8 17.3533C102.232 17.1501 103.307 16.6561 104.027 15.8713C104.76 15.0504 105.146 13.9849 105.106 12.8934C105.124 12.0028 104.879 11.1261 104.4 10.3691C103.961 9.663 103.293 9.12262 102.503 8.83517C101.713 8.54662 100.447 8.40234 98.7054 8.40234H91.7656V24.4136H95.0592V17.7272H95.7257C96.2843 17.7031 96.8433 17.7638 97.383 17.9073C97.7667 18.0461 98.1103 18.2743 98.3845 18.5721C99.0136 19.3197 99.5931 20.1062 100.119 20.9267L102.5 24.4102H106.439L104.446 21.2938C103.897 20.3759 103.267 19.5069 102.563 18.6968V18.6968ZM97.4923 15.1684H95.0557V11.1067H97.6263C98.9616 11.1067 99.7621 11.1251 100.028 11.1621C100.503 11.2142 100.944 11.4301 101.273 11.7715C101.578 12.1383 101.735 12.6033 101.713 13.0769C101.729 13.5016 101.613 13.921 101.378 14.2785C101.159 14.6052 100.833 14.8493 100.454 14.971C100.059 15.1026 99.0721 15.1684 97.4923 15.1684Z" fill="#D5C7AD"/>
<path d="M98.7051 8.90234C100.221 8.90234 101.323 9.01406 102.045 9.21387L102.332 9.30469C103.018 9.55427 103.597 10.023 103.976 10.6328L103.978 10.6357C104.404 11.3104 104.621 12.0916 104.605 12.8838V12.8975L104.606 12.9121C104.642 13.8732 104.302 14.8128 103.653 15.5381C103.036 16.2087 102.084 16.6662 100.729 16.8584L99.2539 17.0674L100.558 17.79C101.161 18.1247 101.712 18.5433 102.192 19.0322C102.874 19.8181 103.485 20.661 104.018 21.5508L104.021 21.5566L104.025 21.5635L105.525 23.9102H102.764L100.532 20.6445H100.531C99.9954 19.8104 99.4063 19.0101 98.7666 18.25L98.7598 18.2412L98.752 18.2334C98.423 17.8761 98.0112 17.6034 97.5527 17.4375L97.5322 17.4297L97.5117 17.4238L97.29 17.3701C96.7706 17.2529 96.2372 17.2045 95.7041 17.2275H94.5596V23.9141H92.2656V8.90234H98.7051ZM94.5557 15.668H97.4922C98.2875 15.668 98.9419 15.6521 99.4512 15.6182C99.9415 15.5855 100.342 15.5332 100.606 15.4463L100.607 15.4473C101.092 15.2917 101.51 14.9786 101.793 14.5576L101.797 14.5527C102.051 14.1644 102.194 13.7162 102.213 13.2559V12.876C102.188 12.3557 101.993 11.8555 101.656 11.4512L101.646 11.4375L101.633 11.4248C101.226 11.0014 100.681 10.7343 100.096 10.667H100.097C100.095 10.6668 100.093 10.6662 100.092 10.666C100.089 10.6657 100.085 10.6654 100.082 10.665H100.081C99.7602 10.6236 98.9219 10.6064 97.626 10.6064H94.5557V15.668Z" stroke="#D5C7AD" stroke-opacity="0.5"/>
<path d="M107.041 8.39844V11.1097H111.879V24.4132H115.173V11.1097H120V8.39844H107.041Z" fill="#D5C7AD"/>
<path d="M119.5 8.89844V10.6094H114.673V23.9131H112.379V10.6094H107.541V8.89844H119.5Z" stroke="#D5C7AD" stroke-opacity="0.5"/>
<path d="M6.94336 8.39844V24.4132H10.2369V17.4117H16.6901V24.4132H19.9836V8.39844H16.6901V14.7039H10.2369V8.39844H6.94336Z" fill="#D5C7AD"/>
<path d="M9.7373 8.89844V15.2041H17.1904V8.89844H19.4834V23.9131H17.1904V16.9121H9.7373V23.9131H7.44336V8.89844H9.7373Z" stroke="#D5C7AD" stroke-opacity="0.5"/>
<path d="M31.218 32.0571C31.037 32.5742 30.9042 32.9666 30.8195 33.2344C30.7443 33.0035 30.6268 32.6411 30.4669 32.1471L28.7038 26.9531H27.2051V34.2801H28.1572V28.0473L30.3259 34.2801H31.218L33.3902 28.1374V34.2801H34.3423V26.9531H33.0058L31.218 32.0571Z" fill="#D5C7AD"/>
<path d="M33.8428 27.4531V28.1289L33.1641 28.0127L33.3604 27.4531H33.8428ZM28.3457 27.4531L28.498 27.9043L27.7051 28.0381V27.4531H28.3457Z" stroke="#D5C7AD" stroke-opacity="0.5"/>
<mask id="path-19-inside-1_76_80" fill="white">
<path d="M38.0142 28.8536C37.397 28.8363 36.7947 29.042 36.3216 29.4318C35.7645 29.905 35.4859 30.6345 35.4859 31.6202C35.4587 31.995 35.507 32.3714 35.628 32.7279C35.749 33.0844 35.9404 33.414 36.1911 33.6978C36.4292 33.9369 36.7158 34.1242 37.0323 34.2477C37.3487 34.3711 37.6881 34.428 38.0283 34.4146C38.4857 34.4187 38.9364 34.3065 39.3366 34.0891C39.7275 33.8811 40.0457 33.5626 40.2499 33.1749C40.4829 32.669 40.5904 32.116 40.5638 31.5613C40.5854 31.2013 40.5342 30.8406 40.4132 30.5C40.2921 30.1595 40.1036 29.8459 39.8585 29.5772C39.6203 29.3359 39.3329 29.1466 39.0151 29.0219C38.6973 28.8972 38.3562 28.8398 38.0142 28.8536ZM39.1427 33.1576C39.001 33.3176 38.826 33.4459 38.6295 33.5339C38.433 33.6218 38.2196 33.6673 38.0037 33.6673C37.7877 33.6673 37.5743 33.6218 37.3778 33.5339C37.1813 33.4459 37.0063 33.3176 36.8647 33.1576C36.5291 32.7185 36.3675 32.1746 36.4098 31.6271C36.3674 31.0807 36.5291 30.5379 36.8647 30.1001C37.0084 29.9421 37.1849 29.8161 37.3823 29.7306C37.5798 29.6451 37.7935 29.602 38.0093 29.6043C38.225 29.6066 38.4378 29.6542 38.6333 29.7439C38.8288 29.8336 39.0024 29.9633 39.1427 30.1243C39.475 30.5505 39.6368 31.0814 39.5976 31.6167C39.6377 32.1672 39.4764 32.7136 39.1427 33.1576Z"/>
</mask>
<path d="M38.0142 28.8536C37.397 28.8363 36.7947 29.042 36.3216 29.4318C35.7645 29.905 35.4859 30.6345 35.4859 31.6202C35.4587 31.995 35.507 32.3714 35.628 32.7279C35.749 33.0844 35.9404 33.414 36.1911 33.6978C36.4292 33.9369 36.7158 34.1242 37.0323 34.2477C37.3487 34.3711 37.6881 34.428 38.0283 34.4146C38.4857 34.4187 38.9364 34.3065 39.3366 34.0891C39.7275 33.8811 40.0457 33.5626 40.2499 33.1749C40.4829 32.669 40.5904 32.116 40.5638 31.5613C40.5854 31.2013 40.5342 30.8406 40.4132 30.5C40.2921 30.1595 40.1036 29.8459 39.8585 29.5772C39.6203 29.3359 39.3329 29.1466 39.0151 29.0219C38.6973 28.8972 38.3562 28.8398 38.0142 28.8536ZM39.1427 33.1576C39.001 33.3176 38.826 33.4459 38.6295 33.5339C38.433 33.6218 38.2196 33.6673 38.0037 33.6673C37.7877 33.6673 37.5743 33.6218 37.3778 33.5339C37.1813 33.4459 37.0063 33.3176 36.8647 33.1576C36.5291 32.7185 36.3675 32.1746 36.4098 31.6271C36.3674 31.0807 36.5291 30.5379 36.8647 30.1001C37.0084 29.9421 37.1849 29.8161 37.3823 29.7306C37.5798 29.6451 37.7935 29.602 38.0093 29.6043C38.225 29.6066 38.4378 29.6542 38.6333 29.7439C38.8288 29.8336 39.0024 29.9633 39.1427 30.1243C39.475 30.5505 39.6368 31.0814 39.5976 31.6167C39.6377 32.1672 39.4764 32.7136 39.1427 33.1576Z" fill="#D5C7AD"/>
<path d="M38.0142 28.8536L37.9862 29.8532L38.0203 29.8541L38.0544 29.8527L38.0142 28.8536ZM36.3216 29.4318L35.6857 28.6601L35.6799 28.6648L35.6742 28.6696L36.3216 29.4318ZM35.4859 31.6202L36.4833 31.6926L36.4859 31.6564V31.6202H35.4859ZM36.1911 33.6978L35.4417 34.3599L35.4615 34.3823L35.4826 34.4035L36.1911 33.6978ZM38.0283 34.4146L38.0373 33.4146L38.0131 33.4144L37.9889 33.4153L38.0283 34.4146ZM39.3366 34.0891L38.8669 33.2062L38.8591 33.2104L39.3366 34.0891ZM40.2499 33.1749L41.1346 33.6411L41.1471 33.6174L41.1583 33.5931L40.2499 33.1749ZM40.5638 31.5613L39.5656 31.5013L39.5623 31.5553L39.5649 31.6094L40.5638 31.5613ZM39.8585 29.5772L40.5972 28.9032L40.5841 28.8888L40.5703 28.8749L39.8585 29.5772ZM39.1427 33.1576L39.8914 33.8205L39.918 33.7905L39.9421 33.7584L39.1427 33.1576ZM36.8647 33.1576L36.0701 33.7648L36.092 33.7935L36.116 33.8205L36.8647 33.1576ZM36.4098 31.6271L37.4068 31.7042L37.4128 31.627L37.4068 31.5497L36.4098 31.6271ZM36.8647 30.1001L36.125 29.4272L36.0966 29.4583L36.071 29.4917L36.8647 30.1001ZM39.1427 30.1243L39.9312 29.5094L39.9146 29.4881L39.8968 29.4677L39.1427 30.1243ZM39.5976 31.6167L38.6002 31.5436L38.5949 31.6165L38.6002 31.6894L39.5976 31.6167ZM38.0142 28.8536L38.0423 27.8539C37.1854 27.8299 36.3468 28.1153 35.6857 28.6601L36.3216 29.4318L36.9575 30.2036C37.2426 29.9687 37.6085 29.8426 37.9862 29.8532L38.0142 28.8536ZM36.3216 29.4318L35.6742 28.6696C34.8224 29.3932 34.4859 30.4491 34.4859 31.6202H35.4859H36.4859C36.4859 30.8199 36.7065 30.4169 36.969 30.194L36.3216 29.4318ZM35.4859 31.6202L34.4885 31.5478C34.4516 32.0562 34.5172 32.5665 34.6811 33.0494L35.628 32.7279L36.5749 32.4065C36.4968 32.1763 36.4658 31.9338 36.4833 31.6926L35.4859 31.6202ZM35.628 32.7279L34.6811 33.0494C34.845 33.5321 35.1037 33.9774 35.4417 34.3599L36.1911 33.6978L36.9405 33.0357C36.777 32.8506 36.6531 32.6366 36.5749 32.4065L35.628 32.7279ZM36.1911 33.6978L35.4826 34.4035C35.8195 34.7417 36.2238 35.0056 36.6688 35.1793L37.0323 34.2477L37.3957 33.316C37.2078 33.2427 37.039 33.132 36.8997 32.9921L36.1911 33.6978ZM37.0323 34.2477L36.6688 35.1793C37.1138 35.3529 37.5903 35.4326 38.0678 35.4138L38.0283 34.4146L37.9889 33.4153C37.7858 33.4233 37.5837 33.3894 37.3957 33.316L37.0323 34.2477ZM38.0283 34.4146L38.0194 35.4145C38.6458 35.4201 39.264 35.2666 39.8141 34.9677L39.3366 34.0891L38.8591 33.2104C38.6088 33.3464 38.3256 33.4172 38.0373 33.4146L38.0283 34.4146ZM39.3366 34.0891L39.8063 34.9719C40.3722 34.6708 40.8359 34.2081 41.1346 33.6411L40.2499 33.1749L39.3652 32.7088C39.2554 32.9172 39.0827 33.0914 38.8669 33.2063L39.3366 34.0891ZM40.2499 33.1749L41.1583 33.5931C41.4582 32.9418 41.597 32.2289 41.5626 31.5133L40.5638 31.5613L39.5649 31.6094C39.5838 32.0031 39.5076 32.3962 39.3416 32.7567L40.2499 33.1749ZM40.5638 31.5613L41.562 31.6213C41.5917 31.127 41.5214 30.6319 41.3554 30.1651L40.4132 30.5L39.4709 30.835C39.5471 31.0492 39.5791 31.2756 39.5656 31.5013L40.5638 31.5613ZM40.4132 30.5L41.3554 30.1651C41.1895 29.6983 40.9315 29.2696 40.5972 28.9032L39.8585 29.5772L39.1198 30.2513C39.2757 30.4222 39.3948 30.6207 39.4709 30.835L40.4132 30.5ZM39.8585 29.5772L40.5703 28.8749C40.2332 28.5332 39.8275 28.2665 39.3804 28.091L39.0151 29.0219L38.6498 29.9528C38.8383 30.0268 39.0075 30.1385 39.1467 30.2796L39.8585 29.5772ZM39.0151 29.0219L39.3804 28.091C38.9333 27.9156 38.4542 27.8351 37.9741 27.8544L38.0142 28.8536L38.0544 29.8527C38.2583 29.8446 38.4613 29.8788 38.6498 29.9528L39.0151 29.0219ZM39.1427 33.1576L38.3939 32.4947C38.3473 32.5474 38.2886 32.5909 38.2211 32.6211L38.6295 33.5339L39.0379 34.4466C39.3634 34.301 39.6547 34.0879 39.8914 33.8205L39.1427 33.1576ZM38.6295 33.5339L38.2211 32.6211C38.1535 32.6513 38.0793 32.6673 38.0037 32.6673V33.6673V34.6673C38.3599 34.6673 38.7126 34.5922 39.0379 34.4466L38.6295 33.5339ZM38.0037 33.6673V32.6673C37.9281 32.6673 37.8539 32.6513 37.7863 32.6211L37.3778 33.5339L36.9694 34.4466C37.2948 34.5922 37.6474 34.6673 38.0037 34.6673V33.6673ZM37.3778 33.5339L37.7863 32.6211C37.7187 32.5909 37.66 32.5474 37.6134 32.4947L36.8647 33.1576L36.116 33.8205C36.3527 34.0879 36.6439 34.301 36.9694 34.4466L37.3778 33.5339ZM36.8647 33.1576L37.6593 32.5505C37.4719 32.3053 37.3836 32.0047 37.4068 31.7042L36.4098 31.6271L35.4127 31.5501C35.3513 32.3445 35.5863 33.1316 36.0701 33.7648L36.8647 33.1576ZM36.4098 31.6271L37.4068 31.5497C37.3836 31.251 37.4716 30.952 37.6583 30.7085L36.8647 30.1001L36.071 29.4917C35.5865 30.1238 35.3511 30.9105 35.4128 31.7045L36.4098 31.6271ZM36.8647 30.1001L37.6044 30.773C37.652 30.7207 37.7116 30.6778 37.7798 30.6482L37.3823 29.7306L36.9849 28.813C36.6583 28.9544 36.3648 29.1635 36.125 29.4272L36.8647 30.1001ZM37.3823 29.7306L37.7798 30.6482C37.8481 30.6186 37.9228 30.6035 37.9986 30.6043L38.0093 29.6043L38.0199 28.6044C37.6643 28.6006 37.3114 28.6715 36.9849 28.813L37.3823 29.7306ZM38.0093 29.6043L37.9986 30.6043C38.0745 30.6051 38.1488 30.6218 38.2163 30.6528L38.6333 29.7439L39.0503 28.835C38.7268 28.6866 38.3756 28.6082 38.0199 28.6044L38.0093 29.6043ZM38.6333 29.7439L38.2163 30.6528C38.2837 30.6837 38.3422 30.7278 38.3885 30.781L39.1427 30.1243L39.8968 29.4677C39.6627 29.1988 39.3738 28.9834 39.0503 28.835L38.6333 29.7439ZM39.1427 30.1243L38.3541 30.7393C38.5351 30.9714 38.6212 31.2574 38.6002 31.5436L39.5976 31.6167L40.5949 31.6899C40.6524 30.9054 40.4149 30.1296 39.9312 29.5094L39.1427 30.1243ZM39.5976 31.6167L38.6002 31.6894C38.6226 31.9971 38.5328 32.3046 38.3433 32.5568L39.1427 33.1576L39.9421 33.7584C40.4199 33.1226 40.6527 32.3372 40.5949 31.5441L39.5976 31.6167Z" fill="#D5C7AD" fill-opacity="0.5" mask="url(#path-19-inside-1_76_80)"/>
<mask id="path-21-inside-2_76_80" fill="white">
<path d="M44.9283 31.4877C44.4852 31.32 44.0318 31.1801 43.5707 31.0687C43.1217 30.9486 42.8513 30.8713 42.7596 30.8367C42.6223 30.7897 42.5005 30.7071 42.407 30.5978C42.3334 30.5087 42.2935 30.3974 42.2942 30.2827C42.2967 30.1869 42.3227 30.0932 42.3699 30.0094C42.4172 29.9256 42.4843 29.8542 42.5657 29.8014C42.8371 29.6413 43.1531 29.5698 43.4684 29.5971C43.7635 29.5794 44.0558 29.6613 44.2971 29.8291C44.4955 29.989 44.6221 30.219 44.6497 30.4696L45.5454 30.3485C45.5067 30.0532 45.398 29.7709 45.228 29.5243C45.0458 29.2983 44.8009 29.1287 44.5228 29.0361C44.1644 28.9098 43.7856 28.8488 43.4049 28.8561C43.1366 28.854 42.8693 28.8902 42.6115 28.9634C42.4037 29.0179 42.2069 29.1069 42.0297 29.2266C41.8416 29.3573 41.6871 29.5291 41.5783 29.7286C41.4685 29.9311 41.4115 30.1571 41.4126 30.3865C41.4087 30.6437 41.4818 30.8963 41.6228 31.113C41.7639 31.3297 41.9667 31.5009 42.206 31.6054C42.6626 31.7894 43.1345 31.9342 43.6165 32.0382C43.9408 32.1013 44.2559 32.2036 44.5545 32.3429C44.639 32.3925 44.7087 32.4631 44.7564 32.5476C44.8041 32.6322 44.8281 32.7276 44.826 32.8242C44.8243 32.9394 44.7957 33.0526 44.7425 33.1552C44.6894 33.2579 44.613 33.3472 44.5193 33.4164C44.2462 33.6055 43.9144 33.6949 43.5813 33.6691C43.2317 33.6909 42.8856 33.5903 42.6045 33.3852C42.3507 33.175 42.1911 32.8753 42.1602 32.5507L41.2539 32.6892C41.318 33.1867 41.5696 33.6426 41.9592 33.9669C42.4308 34.2834 42.9973 34.4346 43.5672 34.3963C43.9593 34.4023 44.3484 34.328 44.7097 34.1781C45.0219 34.06 45.2926 33.8555 45.489 33.5895C45.6627 33.3394 45.7561 33.0439 45.757 32.7411C45.7674 32.4677 45.691 32.1979 45.5383 31.969C45.3866 31.754 45.1747 31.5869 44.9283 31.4877V31.4877Z"/>
</mask>
<path d="M44.9283 31.4877C44.4852 31.32 44.0318 31.1801 43.5707 31.0687C43.1217 30.9486 42.8513 30.8713 42.7596 30.8367C42.6223 30.7897 42.5005 30.7071 42.407 30.5978C42.3334 30.5087 42.2935 30.3974 42.2942 30.2827C42.2967 30.1869 42.3227 30.0932 42.3699 30.0094C42.4172 29.9256 42.4843 29.8542 42.5657 29.8014C42.8371 29.6413 43.1531 29.5698 43.4684 29.5971C43.7635 29.5794 44.0558 29.6613 44.2971 29.8291C44.4955 29.989 44.6221 30.219 44.6497 30.4696L45.5454 30.3485C45.5067 30.0532 45.398 29.7709 45.228 29.5243C45.0458 29.2983 44.8009 29.1287 44.5228 29.0361C44.1644 28.9098 43.7856 28.8488 43.4049 28.8561C43.1366 28.854 42.8693 28.8902 42.6115 28.9634C42.4037 29.0179 42.2069 29.1069 42.0297 29.2266C41.8416 29.3573 41.6871 29.5291 41.5783 29.7286C41.4685 29.9311 41.4115 30.1571 41.4126 30.3865C41.4087 30.6437 41.4818 30.8963 41.6228 31.113C41.7639 31.3297 41.9667 31.5009 42.206 31.6054C42.6626 31.7894 43.1345 31.9342 43.6165 32.0382C43.9408 32.1013 44.2559 32.2036 44.5545 32.3429C44.639 32.3925 44.7087 32.4631 44.7564 32.5476C44.8041 32.6322 44.8281 32.7276 44.826 32.8242C44.8243 32.9394 44.7957 33.0526 44.7425 33.1552C44.6894 33.2579 44.613 33.3472 44.5193 33.4164C44.2462 33.6055 43.9144 33.6949 43.5813 33.6691C43.2317 33.6909 42.8856 33.5903 42.6045 33.3852C42.3507 33.175 42.1911 32.8753 42.1602 32.5507L41.2539 32.6892C41.318 33.1867 41.5696 33.6426 41.9592 33.9669C42.4308 34.2834 42.9973 34.4346 43.5672 34.3963C43.9593 34.4023 44.3484 34.328 44.7097 34.1781C45.0219 34.06 45.2926 33.8555 45.489 33.5895C45.6627 33.3394 45.7561 33.0439 45.757 32.7411C45.7674 32.4677 45.691 32.1979 45.5383 31.969C45.3866 31.754 45.1747 31.5869 44.9283 31.4877V31.4877Z" fill="#D5C7AD"/>
<path d="M43.5707 31.0687L43.3124 32.0348L43.3241 32.0379L43.3359 32.0407L43.5707 31.0687ZM42.7596 30.8367L43.1129 29.9012L43.0983 29.8957L43.0836 29.8906L42.7596 30.8367ZM42.407 30.5978L41.6365 31.2351L41.6416 31.2414L41.6469 31.2476L42.407 30.5978ZM42.2942 30.2827L41.2945 30.2565L41.2942 30.2666L41.2942 30.2767L42.2942 30.2827ZM42.5657 29.8014L42.0578 28.9399L42.039 28.951L42.0207 28.9629L42.5657 29.8014ZM43.4684 29.5971L43.3824 30.5934L43.4551 30.5996L43.528 30.5953L43.4684 29.5971ZM44.2971 29.8291L44.9247 29.0505L44.8971 29.0283L44.868 29.008L44.2971 29.8291ZM44.6497 30.4696L43.6557 30.5791L43.7679 31.5981L44.7838 31.4606L44.6497 30.4696ZM45.5454 30.3485L45.6795 31.3394L46.6664 31.2059L46.5369 30.2184L45.5454 30.3485ZM45.228 29.5243L46.0514 28.9569L46.0301 28.926L46.0066 28.8968L45.228 29.5243ZM44.5228 29.0361L44.1903 29.9792L44.1986 29.9821L44.2069 29.9849L44.5228 29.0361ZM43.4049 28.8561L43.3974 29.856L43.4107 29.8561L43.4241 29.8559L43.4049 28.8561ZM42.6115 28.9634L42.8653 29.9307L42.875 29.9281L42.8847 29.9254L42.6115 28.9634ZM42.0297 29.2266L41.4702 28.3976L41.4591 28.4053L42.0297 29.2266ZM41.5783 29.7286L40.7003 29.25L40.6994 29.2516L41.5783 29.7286ZM41.4126 30.3865L42.4125 30.4018L42.4126 30.3918L42.4126 30.3818L41.4126 30.3865ZM42.206 31.6054L41.8059 32.5219L41.819 32.5276L41.8322 32.5329L42.206 31.6054ZM43.6165 32.0382L43.4056 33.0157L43.4156 33.0179L43.4256 33.0198L43.6165 32.0382ZM44.5545 32.3429L45.0601 31.4801L45.0197 31.4565L44.9772 31.4367L44.5545 32.3429ZM44.826 32.8242L43.8262 32.8028L43.8262 32.809L44.826 32.8242ZM44.5193 33.4164L45.0887 34.2384L45.101 34.2298L45.1131 34.221L44.5193 33.4164ZM43.5813 33.6691L43.6585 32.6721L43.5889 32.6667L43.5192 32.6711L43.5813 33.6691ZM42.6045 33.3852L41.9667 34.1554L41.9903 34.175L42.0152 34.1931L42.6045 33.3852ZM42.1602 32.5507L43.1557 32.4559L43.0553 31.4023L42.0091 31.5622L42.1602 32.5507ZM41.2539 32.6892L41.1028 31.7007L40.1373 31.8482L40.2621 32.8169L41.2539 32.6892ZM41.9592 33.9669L41.3194 34.7354L41.3591 34.7685L41.402 34.7973L41.9592 33.9669ZM43.5672 34.3963L43.5826 33.3964L43.5413 33.3958L43.5001 33.3985L43.5672 34.3963ZM44.7097 34.1781L44.3558 33.2429L44.341 33.2484L44.3264 33.2545L44.7097 34.1781ZM45.489 33.5895L46.2935 34.1834L46.3021 34.1718L46.3102 34.16L45.489 33.5895ZM45.757 32.7411L44.7577 32.703L44.757 32.7206L44.757 32.7382L45.757 32.7411ZM45.5383 31.969L46.3703 31.4141L46.3629 31.4031L46.3553 31.3922L45.5383 31.969ZM44.9283 31.4877L45.2822 30.5524C44.8002 30.37 44.3069 30.2178 43.8055 30.0966L43.5707 31.0687L43.3359 32.0407C43.7566 32.1423 44.1703 32.27 44.5744 32.4229L44.9283 31.4877ZM43.5707 31.0687L43.8289 30.1026C43.6069 30.0433 43.4334 29.9956 43.3062 29.9592C43.2425 29.941 43.1934 29.9265 43.1573 29.9153C43.1172 29.9029 43.1066 29.8988 43.1129 29.9012L42.7596 30.8367L42.4063 31.7722C42.5566 31.8289 42.8869 31.921 43.3124 32.0348L43.5707 31.0687ZM42.7596 30.8367L43.0836 29.8906C43.114 29.901 43.1433 29.9201 43.1671 29.948L42.407 30.5978L41.6469 31.2476C41.8577 31.4942 42.1307 31.6783 42.4357 31.7828L42.7596 30.8367ZM42.407 30.5978L43.1776 29.9604C43.2523 30.0508 43.2949 30.1667 43.2941 30.2887L42.2942 30.2827L41.2942 30.2767C41.2921 30.628 41.4144 30.9667 41.6365 31.2351L42.407 30.5978ZM42.2942 30.2827L43.2938 30.3088C43.292 30.3771 43.2735 30.4429 43.2409 30.5007L42.3699 30.0094L41.499 29.518C41.3718 29.7434 41.3013 29.9968 41.2945 30.2565L42.2942 30.2827ZM42.3699 30.0094L43.2409 30.5007C43.2084 30.5584 43.1632 30.6057 43.1107 30.6398L42.5657 29.8014L42.0207 28.9629C41.8055 29.1028 41.626 29.2928 41.499 29.518L42.3699 30.0094ZM42.5657 29.8014L43.0736 30.6628C43.1649 30.6089 43.2732 30.5839 43.3824 30.5934L43.4684 29.5971L43.5544 28.6008C43.033 28.5557 42.5092 28.6738 42.0578 28.9399L42.5657 29.8014ZM43.4684 29.5971L43.528 30.5953C43.6004 30.591 43.6704 30.6113 43.7262 30.6501L44.2971 29.8291L44.868 29.008C44.4412 28.7113 43.9266 28.5679 43.4088 28.5988L43.4684 29.5971ZM44.2971 29.8291L43.6695 30.6076C43.6647 30.6037 43.6574 30.5943 43.6557 30.5791L44.6497 30.4696L45.6437 30.3602C45.5869 29.8437 45.3264 29.3743 44.9247 29.0505L44.2971 29.8291ZM44.6497 30.4696L44.7838 31.4606L45.6795 31.3394L45.5454 30.3485L45.4113 29.3575L44.5156 29.4787L44.6497 30.4696ZM45.5454 30.3485L46.5369 30.2184C46.4775 29.7651 46.3107 29.3331 46.0514 28.9569L45.228 29.5243L44.4046 30.0918C44.4852 30.2087 44.5359 30.3412 44.5539 30.4785L45.5454 30.3485ZM45.228 29.5243L46.0066 28.8968C45.7029 28.52 45.2968 28.2399 44.8387 28.0873L44.5228 29.0361L44.2069 29.9849C44.305 30.0176 44.3887 30.0765 44.4495 30.1519L45.228 29.5243ZM44.5228 29.0361L44.8553 28.093C44.3838 27.9268 43.8859 27.8467 43.3858 27.8562L43.4049 28.8561L43.4241 29.8559C43.6853 29.8509 43.9451 29.8928 44.1903 29.9792L44.5228 29.0361ZM43.4049 28.8561L43.4125 27.8561C43.0494 27.8533 42.6876 27.9023 42.3383 28.0014L42.6115 28.9634L42.8847 29.9254C43.0511 29.8781 43.2238 29.8547 43.3974 29.856L43.4049 28.8561ZM42.6115 28.9634L42.3578 27.9961C42.0415 28.0791 41.7413 28.2147 41.4702 28.3977L42.0297 29.2266L42.5892 30.0554C42.6726 29.9991 42.7659 29.9567 42.8653 29.9307L42.6115 28.9634ZM42.0297 29.2266L41.4591 28.4053C41.1443 28.624 40.8841 28.9128 40.7003 29.25L41.5783 29.7286L42.4564 30.2072C42.49 30.1455 42.5389 30.0905 42.6003 30.0478L42.0297 29.2266ZM41.5783 29.7286L40.6994 29.2516C40.5097 29.6013 40.4107 29.993 40.4126 30.3913L41.4126 30.3865L42.4126 30.3818C42.4123 30.3213 42.4272 30.2609 42.4572 30.2057L41.5783 29.7286ZM41.4126 30.3865L40.4127 30.3713C40.4057 30.8284 40.5358 31.2761 40.7848 31.6586L41.6228 31.113L42.4609 30.5675C42.4277 30.5165 42.4116 30.4589 42.4125 30.4018L41.4126 30.3865ZM41.6228 31.113L40.7848 31.6586C41.0336 32.0408 41.3894 32.34 41.8059 32.5219L42.206 31.6054L42.6061 30.6889C42.544 30.6618 42.4942 30.6186 42.4609 30.5675L41.6228 31.113ZM42.206 31.6054L41.8322 32.5329C42.3416 32.7382 42.8681 32.8997 43.4056 33.0157L43.6165 32.0382L43.8274 31.0607C43.4009 30.9687 42.9835 30.8406 42.5798 30.6779L42.206 31.6054ZM43.6165 32.0382L43.4256 33.0198C43.6701 33.0674 43.9073 33.1445 44.1318 33.2492L44.5545 32.3429L44.9772 31.4367C44.6045 31.2628 44.2116 31.1352 43.8074 31.0566L43.6165 32.0382ZM44.5545 32.3429L44.0489 33.2057C43.9825 33.1668 43.9254 33.1098 43.8854 33.039L44.7564 32.5476L45.6273 32.0563C45.492 31.8163 45.2956 31.6182 45.0601 31.4801L44.5545 32.3429ZM44.7564 32.5476L43.8854 33.039C43.8454 32.968 43.8245 32.8864 43.8263 32.8028L44.826 32.8242L45.8258 32.8457C45.8317 32.5688 45.7628 32.2964 45.6273 32.0563L44.7564 32.5476ZM44.826 32.8242L43.8262 32.809C43.8268 32.7686 43.8368 32.7296 43.8546 32.6952L44.7425 33.1552L45.6304 33.6153C45.7546 33.3756 45.8218 33.1102 45.8259 32.8395L44.826 32.8242ZM44.7425 33.1552L43.8546 32.6952C43.8724 32.6608 43.8971 32.6327 43.9254 32.6117L44.5193 33.4164L45.1131 34.221C45.3289 34.0617 45.5063 33.8549 45.6304 33.6153L44.7425 33.1552ZM44.5193 33.4164L43.9498 32.5944C43.867 32.6517 43.7638 32.6803 43.6585 32.6721L43.5813 33.6691L43.504 34.6661C44.0649 34.7096 44.6254 34.5593 45.0887 34.2384L44.5193 33.4164ZM43.5813 33.6691L43.5192 32.6711C43.4007 32.6784 43.2853 32.644 43.1938 32.5773L42.6045 33.3852L42.0152 34.1931C42.486 34.5365 43.0628 34.7033 43.6433 34.6672L43.5813 33.6691ZM42.6045 33.3852L43.2423 32.615C43.19 32.5717 43.1612 32.5137 43.1557 32.4559L42.1602 32.5507L41.1647 32.6455C41.221 33.2369 41.5113 33.7783 41.9667 34.1554L42.6045 33.3852ZM42.1602 32.5507L42.0091 31.5622L41.1028 31.7007L41.2539 32.6892L41.405 33.6777L42.3112 33.5392L42.1602 32.5507ZM41.2539 32.6892L40.2621 32.8169C40.3588 33.5677 40.738 34.2515 41.3194 34.7354L41.9592 33.9669L42.599 33.1984C42.4012 33.0337 42.2772 32.8057 42.2457 32.5615L41.2539 32.6892ZM41.9592 33.9669L41.402 34.7973C42.0586 35.2379 42.8448 35.4471 43.6342 35.394L43.5672 34.3963L43.5001 33.3985C43.1497 33.4221 42.803 33.3288 42.5163 33.1365L41.9592 33.9669ZM43.5672 34.3963L43.5517 35.3962C44.0802 35.4043 44.605 35.3042 45.0929 35.1018L44.7097 34.1781L44.3264 33.2545C44.0918 33.3519 43.8384 33.4004 43.5826 33.3964L43.5672 34.3963ZM44.7097 34.1781L45.0636 35.1134C45.5539 34.9279 45.9817 34.6058 46.2935 34.1834L45.489 33.5895L44.6844 32.9956C44.6035 33.1053 44.4899 33.1921 44.3558 33.2429L44.7097 34.1781ZM45.489 33.5895L46.3102 34.16C46.5991 33.7443 46.7555 33.2511 46.757 32.7441L45.757 32.7411L44.757 32.7382C44.7567 32.8367 44.7264 32.9345 44.6677 33.0189L45.489 33.5895ZM45.757 32.7411L46.7562 32.7793C46.7748 32.2943 46.6391 31.8171 46.3703 31.4141L45.5383 31.969L44.7064 32.5238C44.743 32.5786 44.7601 32.6412 44.7577 32.703L45.757 32.7411ZM45.5383 31.969L46.3553 31.3922C46.0914 31.0185 45.7249 30.7304 45.3018 30.56L44.9283 31.4877L44.5548 32.4153C44.6246 32.4434 44.6818 32.4896 44.7214 32.5457L45.5383 31.969Z" fill="#D5C7AD" fill-opacity="0.5" mask="url(#path-21-inside-2_76_80)"/>
<path d="M49.9154 33.3456C49.6686 33.5646 49.3451 33.6812 49.0126 33.6711C48.8054 33.6771 48.5995 33.6366 48.4107 33.5525C48.2218 33.4685 48.055 33.3433 47.923 33.1863C47.6038 32.7302 47.4555 32.1796 47.5034 31.6281C47.4563 31.0791 47.6101 30.5315 47.9371 30.0838C48.0749 29.9243 48.2477 29.7975 48.4425 29.713C48.6373 29.6284 48.8491 29.5883 49.062 29.5956C49.3478 29.5884 49.6264 29.6845 49.8448 29.8656C50.0801 30.0797 50.2384 30.3627 50.2962 30.6724L51.1884 30.5374C51.1157 30.0524 50.8648 29.6103 50.4831 29.2943C50.0618 28.9833 49.5425 28.8276 49.0161 28.8546C48.5649 28.8511 48.1204 28.962 47.7255 29.1766C47.328 29.393 47.0162 29.7345 46.8404 30.1461C46.6379 30.6228 46.5394 31.136 46.5513 31.6524C46.5017 32.3934 46.7441 33.1248 47.2283 33.6953C47.4566 33.9337 47.7343 34.121 48.0428 34.2447C48.3513 34.3684 48.6832 34.4255 49.0161 34.4121C49.5629 34.4268 50.0957 34.2417 50.5113 33.8927C50.9323 33.5206 51.2016 33.0113 51.2695 32.4592L50.3667 32.3449C50.3393 32.7198 50.1797 33.0737 49.9154 33.3456V33.3456Z" fill="#D5C7AD"/>
<path d="M49.915 33.3457L50.1299 33.5547C50.124 33.5592 50.1183 33.5639 50.1123 33.5684L49.915 33.3457Z" stroke="#D5C7AD" stroke-opacity="0.5"/>
<path d="M54.2596 28.8533C53.6339 28.83 53.0218 29.0361 52.5423 29.4316C51.9852 29.9048 51.7066 30.6343 51.7066 31.62C51.6794 31.9948 51.7277 32.3712 51.8487 32.7277C51.9697 33.0842 52.1611 33.4138 52.4118 33.6976C52.6499 33.9367 52.9365 34.124 53.253 34.2475C53.5694 34.3709 53.9088 34.4278 54.249 34.4144C54.7064 34.4185 55.1571 34.3063 55.5573 34.0889C55.9482 33.8809 56.2663 33.5624 56.4706 33.1747C56.7036 32.6688 56.8111 32.1158 56.7845 31.5611C56.8061 31.2011 56.7549 30.8404 56.6339 30.4998C56.5128 30.1593 56.3243 29.8457 56.0792 29.577C55.8439 29.3388 55.5605 29.1513 55.2472 29.0267C54.9338 28.9021 54.5975 28.843 54.2596 28.8533V28.8533ZM55.3951 33.1574C55.2534 33.3174 55.0784 33.4457 54.8819 33.5337C54.6854 33.6216 54.472 33.6671 54.2561 33.6671C54.0402 33.6671 53.8267 33.6216 53.6303 33.5337C53.4338 33.4457 53.2588 33.3174 53.1171 33.1574C52.7816 32.7183 52.6199 32.1744 52.6622 31.6269C52.6198 31.0805 52.7815 30.5377 53.1171 30.0999C53.2591 29.941 53.434 29.8136 53.6301 29.7264C53.8262 29.6391 54.039 29.594 54.2543 29.594C54.4696 29.594 54.6825 29.6391 54.8786 29.7264C55.0747 29.8136 55.2496 29.941 55.3916 30.0999C55.7239 30.526 55.8857 31.057 55.8465 31.5923C55.8936 32.1504 55.7333 32.7064 55.3951 33.1574Z" fill="#D5C7AD"/>
<path d="M54.2666 29.0938H54.25L54.2598 28.8535L54.2666 29.0938Z" stroke="#D5C7AD" stroke-opacity="0.5"/>
<path d="M63.7416 28.9752L62.8142 32.0501L62.5039 33.0889L62.2324 32.0743L61.4213 28.9925H60.4798L59.6194 32.1089C59.4454 32.783 59.3526 33.1489 59.3408 33.2066L59.0199 32.0639L58.1595 28.996H57.2109L58.8648 34.28H59.8239L60.9206 30.1906L61.1287 31.0978L61.9891 34.28H62.9412L64.6338 28.9648L63.7416 28.9752Z" fill="#D5C7AD"/>
<path d="M59.4404 33.7803H59.2324L59.0918 33.333L59.5645 33.3154L59.4404 33.7803ZM61.0352 29.4922L61.1885 30.0742L60.7021 30.0654L60.8604 29.4922H61.0352Z" stroke="#D5C7AD" stroke-opacity="0.5"/>
<path d="M13.4387 3.24482e-06C10.782 -0.00166483 8.16588 0.639824 5.82185 1.86769C3.47781 3.09555 1.4782 4.87192 0 7.03956H3.56862C4.82071 5.69099 6.34554 4.61374 8.04566 3.87665C9.74578 3.13957 11.5838 2.75886 13.4423 2.75886C15.3007 2.75886 17.1387 3.13957 18.8389 3.87665C20.539 4.61374 22.0638 5.69099 23.3159 7.03956H26.8775C25.3993 4.87192 23.3996 3.09555 21.0556 1.86769C18.7116 0.639824 16.0954 -0.00166483 13.4387 3.24482e-06V3.24482e-06Z" fill="#D5C7AD"/>
<path d="M13.4395 0.5C16.0153 0.498448 18.5514 1.12055 20.8232 2.31055C22.8066 3.34951 24.5351 4.79343 25.8945 6.54004H23.5303C22.2601 5.21529 20.7333 4.15297 19.0381 3.41797C17.275 2.6536 15.369 2.25881 13.4424 2.25879C11.5157 2.25879 9.60977 2.65359 7.84668 3.41797C6.15146 4.15295 4.6247 5.21529 3.35449 6.54004H0.983398C2.3428 4.79356 4.07043 3.34946 6.05371 2.31055C8.32576 1.12039 10.8624 0.498383 13.4385 0.5V0L13.4395 0.5Z" stroke="#D5C7AD" stroke-opacity="0.5"/>
<path d="M13.4381 29.0065C10.2535 29.01 7.17312 27.892 4.75637 25.8555H0.845703C2.36103 27.7025 4.27855 29.1927 6.45737 30.2165C8.63619 31.2403 11.0209 31.7717 13.4364 31.7717C15.8518 31.7717 18.2365 31.2403 20.4153 30.2165C22.5942 29.1927 24.5117 27.7025 26.027 25.8555H22.1199C19.7033 27.8923 16.6228 29.0103 13.4381 29.0065V29.0065Z" fill="#D5C7AD"/>
<path d="M4.58008 26.3555C7.06529 28.3924 10.1991 29.5092 13.4375 29.5059L13.4385 29.5068V29.5059C16.677 29.5095 19.8108 28.3927 22.2959 26.3555H24.918C23.5806 27.7693 21.9827 28.9274 20.2031 29.7637C18.0911 30.7561 15.7786 31.2715 13.4365 31.2715C11.0943 31.2715 8.78198 30.7561 6.66992 29.7637C4.8901 28.9273 3.29159 27.7695 1.9541 26.3555H4.58008Z" stroke="#D5C7AD" stroke-opacity="0.5"/>
</svg>
