<?xml version="1.0" encoding="UTF-8"?>
<svg width="24px" height="24px" viewBox="0 0 24 24" version="1.1" xmlns="http://www.w3.org/2000/svg">
    <path d="M23.498,6.186 C23.2367,5.2505 22.4943,4.5081 21.5588,4.2468 C19.6654,3.7 12,3.7 12,3.7 C12,3.7 4.3346,3.7 2.4412,4.2468 C1.5057,4.5081 0.7633,5.2505 0.502,6.186 C0,8.07941 0,12 0,12 C0,12 0,15.9206 0.502,17.814 C0.7633,18.7495 1.5057,19.4919 2.4412,19.7532 C4.3346,20.3 12,20.3 12,20.3 C12,20.3 19.6654,20.3 21.5588,19.7532 C22.4943,19.4919 23.2367,18.7495 23.498,17.814 C24,15.9206 24,12 24,12 C24,12 24,8.07941 23.498,6.186 Z M9.5454,15.5577 L9.5454,8.4423 L15.818,12 L9.5454,15.5577 Z" fill="#FFFFFF"></path>
</svg> 